<mxfile host="app.diagrams.net" agent="Mozilla/5.0 (X11; Linux x86_64) AppleWebKit/537.36 (KHTML, like Gecko) Chrome/123.0.0.0 Safari/537.36" version="26.0.6">
  <diagram name="Page-1" id="Br7bla8Or9tMoUe_HkAj">
    <mxGraphModel dx="1276" dy="761" grid="1" gridSize="10" guides="1" tooltips="1" connect="1" arrows="1" fold="1" page="1" pageScale="1" pageWidth="850" pageHeight="1100" math="0" shadow="0">
      <root>
        <mxCell id="0" />
        <mxCell id="1" parent="0" />
        <mxCell id="C6JPkx4cW7BWjq2j-6dr-2" value="Microservices Concepts" style="rounded=0;whiteSpace=wrap;html=1;" vertex="1" parent="1">
          <mxGeometry x="90" y="200" width="180" height="70" as="geometry" />
        </mxCell>
        <mxCell id="C6JPkx4cW7BWjq2j-6dr-3" value="Docker" style="rounded=0;whiteSpace=wrap;html=1;" vertex="1" parent="1">
          <mxGeometry x="240" y="120" width="80" height="40" as="geometry" />
        </mxCell>
        <mxCell id="C6JPkx4cW7BWjq2j-6dr-4" value="GraphQL" style="rounded=0;whiteSpace=wrap;html=1;" vertex="1" parent="1">
          <mxGeometry x="40" y="120" width="90" height="40" as="geometry" />
        </mxCell>
        <mxCell id="C6JPkx4cW7BWjq2j-6dr-5" value="Go" style="rounded=0;whiteSpace=wrap;html=1;" vertex="1" parent="1">
          <mxGeometry x="240" y="40" width="80" height="40" as="geometry" />
        </mxCell>
        <mxCell id="C6JPkx4cW7BWjq2j-6dr-6" value="gRPC" style="rounded=0;whiteSpace=wrap;html=1;" vertex="1" parent="1">
          <mxGeometry x="40" y="40" width="90" height="40" as="geometry" />
        </mxCell>
        <mxCell id="C6JPkx4cW7BWjq2j-6dr-9" value="GraphQL Gateway" style="rounded=0;whiteSpace=wrap;html=1;direction=south;" vertex="1" parent="1">
          <mxGeometry x="30" y="360" width="100" height="240" as="geometry" />
        </mxCell>
        <mxCell id="C6JPkx4cW7BWjq2j-6dr-10" value="Account client" style="rounded=0;whiteSpace=wrap;html=1;" vertex="1" parent="1">
          <mxGeometry x="240" y="360" width="90" height="40" as="geometry" />
        </mxCell>
        <mxCell id="C6JPkx4cW7BWjq2j-6dr-11" value="Product client" style="rounded=0;whiteSpace=wrap;html=1;" vertex="1" parent="1">
          <mxGeometry x="240" y="460" width="90" height="40" as="geometry" />
        </mxCell>
        <mxCell id="C6JPkx4cW7BWjq2j-6dr-12" value="Order client" style="rounded=0;whiteSpace=wrap;html=1;" vertex="1" parent="1">
          <mxGeometry x="240" y="560" width="90" height="40" as="geometry" />
        </mxCell>
        <mxCell id="C6JPkx4cW7BWjq2j-6dr-13" value="Account server" style="rounded=0;whiteSpace=wrap;html=1;" vertex="1" parent="1">
          <mxGeometry x="440" y="360" width="90" height="40" as="geometry" />
        </mxCell>
        <mxCell id="C6JPkx4cW7BWjq2j-6dr-14" value="Order server" style="rounded=0;whiteSpace=wrap;html=1;" vertex="1" parent="1">
          <mxGeometry x="440" y="560" width="90" height="40" as="geometry" />
        </mxCell>
        <mxCell id="C6JPkx4cW7BWjq2j-6dr-15" value="Product server" style="rounded=0;whiteSpace=wrap;html=1;" vertex="1" parent="1">
          <mxGeometry x="440" y="460" width="90" height="40" as="geometry" />
        </mxCell>
        <mxCell id="C6JPkx4cW7BWjq2j-6dr-16" value="" style="outlineConnect=0;dashed=0;verticalLabelPosition=bottom;verticalAlign=top;align=center;html=1;shape=mxgraph.aws3.postgre_sql_instance;fillColor=#2E73B8;gradientColor=none;" vertex="1" parent="1">
          <mxGeometry x="625.5" y="347.13" width="80" height="65.75" as="geometry" />
        </mxCell>
        <mxCell id="C6JPkx4cW7BWjq2j-6dr-20" value="" style="shape=image;verticalLabelPosition=bottom;labelBackgroundColor=default;verticalAlign=top;aspect=fixed;imageAspect=0;image=data:image/webp,iVBORw0KGgoAAAANSUhEUgAABckAAANACAYAAADwxuXKAADht0lEQVR4nOzdd4BlaV0m/u977r0Vu0JXdY6TSCJBiQbAIUkQAWVGFxDEwMi6rP50dd1d3WHWsK67riuI67AoiiQHzMoqigQlwyIgKDMwsSd0jtWV7j3f3x/VAwMMTKruU/fW58MEpqf69jN96p77vs95z3siAAAAAAAAAAAAAAAAAAAAAAAAAAAAAAAAAAAAAAAAAAAAAAAAAAAAAAAAAAAAAAAAAAAAAAAAAAAAAAAAAAAAAAAAAAAAAAAAAAAAAAAAAAAAAAAAAAAAAAAAAAAAAAAAAAAAAAAAAAAAAAAAAAAAAAAAAAAAAAAAAAAAAAAAAAAAAAAAAAAAAAAAAAAAAAAAAAAAAAAAAAAAAAAAAAAAAAAAAAAAAAAAAAAAAAAAAAAAAAAAAAAAAAAAAAAAAAAAAAAAAAAAAAAAAAAAAAAAAAAAAAAAAAAAAAAAAAAAAAAAAAAAAAAAAAAAAAAAAAAAAAAAAAAAAAAAAAAAAAAAAAAAAAAAAAAAAAAAAAAAAAAAAAAAAAAAAAAAAAAAAAAAAAAAAAAAAAAAAAAAAAAAAAAAAAAAAAAAAAAAAAAAAAAAAAAAAAAAAAAAAAAAAAAAAAAAAAAAAAAAAAAAAAAAAAAAAAAAAAAAAAAAAAAAAAAAAAAAAAAAAAAAAAAAAAAAAAAAAAAAAAAAAAAAAAAAAAAAAAAAAAAAAAAAAAAAAAAAAAAAAAAAAAAAAAAAAAAAAAAAAAAAAAAAAAAAAAAAAAAAAAAAAAAAAAAAAAAAAAAAAAAAAAAAAAAAAAAAAAAAAAAAAAAAAAAAAAAAAAAAAAAAAAAAAAAAAAAAAAAAAAAAAAAAAAAAAAAAAAAAAAAAAAAAAAAAAAAAAAAAAAAAAAAAAAAAAAAAAAAAAAAAAAAAAAAAAAAAAAAAAAAAAAAAAAAAAAAAAAAAAAAAAAAAAAAAAAAAAAAAAAAAAAAAAAAAAAAAAAAAAAAAAAAAAAAAAAAAAAAAAODuKk0HAACA9SAzqnjryvj73Zuj7JqP1tf6+n0fit63PTgyIiI+HVmuiPocxAQAgHVHSQ4AAPdQZpT9fxNjY9XESLfXHhvb0B7qdXNyua5mSpTNGTEeEZtKlJGMmK0iSkaMRkS18vOzFVFGqurOX7+uI0qJ0xGRESWiZLdkLGZELyIOZuZyljhQopyMzKN1Kw9WyzHXK93F9lh3/kScmN/9TTF/rn4/AACgnynJAQDgTlx1VbS+dfOGje0cnRpq5WQuV3ujVfZGxN5Sys7MmI2IjVWUmYycjKhGS2TJiFasjLOriCglSvnCqDvvZZgv/PyMKFHnyuvUEVGXM3/PiLmIPF5FOVpnHo2Ig1FiX8m4oUTc0GvX+xZ6iyeGu9XRjU85eqLc+zQAADBQlOQAAKx7x/5iamM10tlchmLbcrc8uF1aD66zXBQlt5eITZkxE1E6sVJ3l4hyJ+PozDv/8XPhzn7tvP0vGRkZJRZLxKGM+kCJsj8y/6Uu5VOtqr56oZcHDh46uP/Bl8apBsIDAECjlOQAAKwrh/40JqqJrXtaVdkTmY/JLI8oEednKVsiYjaifJVNUAZVdiPyYJa4tUR8LnrxkaiW/rEstq6fu+HgLTsui9NNJwQAgLNJSQ4AwEC6/PKoXvGsaM0fn9myVLUfGCUeGtH6psh4SGZur0qZilJiZeuSJleBry1ViejVGVUVBzPy1hLlHyN77x+q4pPHqtOfu/kzp4494qXRLcV2LQAADAYTAQAABkJmlFv/IkZbo1PbhlrDDynRelTJ+luzVPeLiM2tKjp13l6Kc3eVcqY479XzpZT9UcU/Rdbv72b9/6I+9U8nqvnD518ci2GPcwAA+pSSHACAvnXN22N4uto0MzRaHhK91mNLFd9S1+VhUWKmqkqnriOsEl9dpUSUyKgzF0qUA3Xk/ysl3l/VvfeX0v7sR+PWYxdfHN2mcwIAwN1lsgAAQF+57R0xPtTeeF4VnW/OUj2xZDwqSrUjIkdL2APkXCslIjOjRJzKyOuriA906/y7bpn/yNwNJ24+/yWx0HRGAAD4WpTkAACseZ//m41Ts6V1QavdelovyxMjysMjYrpEaa+U4laLrx0ZEbEckQcj46Ol5DuWl7rvnJ88fMPub4r5ptMBAMCXM5EAAGBNyrfH8KHhTQ8eqlrfWWf1tFLyQVHKhsioVoaxivG16/Zjk1EienXEkSrzU6WVf7q00H3H7PHD15RLo9d0SgAAiFCSAwCwhlx1SbS+/Qcnz4+R0afXWb6rRHlEREwYtg6KzIw4WEp+qIp46/LppXfNPuPIzeGhnwAANMhsAwCARuXlUc09dXxTd2nscSXbz48Sj4uIzWm1+ID6wirzLJE3R4l3RNRvOXRg+cMXXHL0RLGtPAAA55gJBwAAjbjtHTE+NrLlYb1u67tLyWdHKeeXLFUqxteVlbq8Xi5R/iWq+i11N//i0OKBz97vGbHYdDYAANYHkw8AAM6ZvCpaRzdu3Fm1h54SUb43sjy2qsqG2trhdW7lwkgpGVnn4VLyXVnqq+ZPz7/7tz506vAVV0TddEIAAAaXkhwAgLPuunfFyEzMfn1k+19lKc+JLHtLVVqpHOdOrKwuz6XM/ExV6rd1q+4ffbI+cs3FF0e36WwAAAweJTkAAGfN4bfHZBnd+rhWiR+o63JxKWX69grUlircPVlHxP7I+PM6uq8/Xg5+7PyLY6HpVAAADA4TEwAAVt3Rd01NRww9u4r2D2TkoyLKqKEn984XH/QZEScz810Z3ddcO3fo3Y98VpxuOh0AAP3PTAUAgFVz01/FzMTQludFlJdGVA+PUlpNZ2IQ1QuZ8b52Lr36s6eP/LWyHACA+0JJDgDAfXbbO8a3jLTHnxOl+jcR5ettpcLZdWZ1eWa3lPoDVclfm1s68I5tT425ppMBANB/TF4AALhXMqNc93fjW2ar8edGVC/PKA9SjnNufbEsj6g/0Cr1K5fmD75j9hlxoulkAAD0D5MYAADusVPvHN/aq8ael9F66ZmV45WHcdKcL+xbvhxRf7BE/GZ3fv/bleUAANwdJjEAANxtN/z91Map5c5zo3T+dUQ8PKK0lOOsPbkYUb87I//3/KkDf7PDnuUAAHwNJjMAANylm66K0YnZLU8rVfmxjPJNEdWQcpy1L0+XrP+ql0u/+on3Hv3wxVdEt+lEAACsPSY1AAB8VZdfHtVPPGnmkdHt/PuM8vQoZdQQkr5SIiPrYxH5B1XV+5+TTzh0TdORAABYW8xwAAC4U//8ezvuPzbZ/snJyaXvLlU1u/KjVo/TbzJWpj2ZpcRNpa5/9fDx/a8//7lxrOFgAACsESY4AAB8ietet3e6O9J5aa9b/UREtXVkbCkmJheiamUU/Th9LjOzKvnBdvSu+OerD/7dIy+L5aYzAQDQLLMcAAAiIiKviqFr5s9/aq8aurxEeUTmSiOemTE01I2JjQsxNFRbR06fu/1uiDxdIv9gOZf/26vec/iaK66IuulkAAA0wxQHAGCdy4hy9Zv2PiB6wz+TWV2aUUa/dFOVjMyIVruOicmFGB3vKsrpfyWyZJaMuDFL/T9OnFp4w97vOH606VgAAJx7pjcAAOvYoT+dnTh+cuMLlqP177Mu53314WFGZolS6hifWIrxicVotc5lUjiLMrtR8t3L3eVf3HT08N+XS6PXdCQAAM4dJTkAwDr1+TfvfuRyb/SKqMtTMkonVhaV3+X4MKOOkdFuTE7NR7tzDoLCOZEREYci6isX61Ov2vqkuf1NJwIA4NxQkgMArDOfeH2Mj7YufFn2Wj9ZR7Xt3gwJMzKGOt2YnFmITqfngZ4MgMxYeTP0IuJj7az/w9sP7X/PpVaVAwAMPLMZAIB15Lo37HjAcj3x3+oSz4worcyIu7N6/M5kZrQ6vZiaXojhka6inIFSsj5WR/0/64UDvz77jDjRdB4AAM4eMxkAgHXgqstj6OH3v+D5dd35+cyya2V/8fv6qiv7lFetXkxOL8TI6HKUshqvC2tEyTrrfHdpdf/d9BMOfbzpOAAAnB2mMAAAA27fG3buOl3GLq/r1osyy1ApmZmrXWVnbJhaiPENS1FVq/vK0Jw8s09/fSAzrpifu+13dzwrTjedCgCA1aUkBwAYUFddFa2Hd89/Yt0b+tXM8pAoJSPP3vgvo47x8aXYMLUYrdbZ+lXgXLu9KM/lEvUfLOb8K7Y88cTnm04FAMDqUZIDAAygw2+YmTxcZv9tXVf/LrNMRUTe273H75mMkdGlmJxejFY7z/4vB+dURkR+qo7uf/hEHPrriy+ObtOJAAC475TkAAAD5vNvuuB+3V7rVyOqp9VZdc7tr56RGTE8shxTGxei1U57lDNAMiOiZObxqtT/vTt/4FUe6gkA0P9MWQAABkRmlM++4cJvj2j9Wmb1gHOzcvyrZcnoDPVieuZ0tDt1FE05A6deLpF/lr2Fn55+8vFrm04DAMC9Z7YCADAA8qoYurZ7wcuWu51XZFTTGc0P9DIzOp1eTM3MR2eopyhnAGVG5qerbu9HJp968H1NpwEA4N4xUwEA6HOfvmpyptPd+kvZrX6gjnO9vcrXsrL1SrvTi+nZ+eh0FOUMmpXtVyLjUFXqn7r66v1vfORlsdx0KgAA7hmzFACAPvbPb9lx/2p5w2vqunpCRlmD+3+fKcrbdUzNzMfQcFdRzmDKeiFK/b96893/OvuMI/YpBwDoI2YoAAB9KCPK59540VO7veqVEdX9z/zQGh3bZWSWaLV7MbVxPoZHFOUMqswS9R/V9eJPbnzSsRuaTgMAwN1jdgIA0Gc+emV0pscufHE32r+cWc2Wkpm59lvnzFCUM+DyzMWq+sO9eunls0868uGmEwEAcNfMTAAA+sinX715Q2dq8qfqbP+7zGrsi6Vcf1CUM/hW9ikvkdfXUf/49Lcd+LNSIptOBQDAV1c1HQAAgLvn06+dnOlMTf96Xbf/Q2bpu4I8IqKUjF63FcePjMbiQjsydYcMmlIiIjPKeSWr3z717i0vfdfl0W46FQAAX11fTaoAANarD79u87ap9sbX9rJ6xlp8POc9s7JHebvdjanZ+Rga6llRzuDKnCtR/9KBhf2/er9nxGLTcQAA+EpmIwAAa9wNv7PngoWhkdfVdfX4WNMP6LwnMjIj2p1eTM/MR0dRzkCrl0qVr5xf3P+KbU+NuabTAADwpcxEAADWsKvfuPfhdT38uqyrh0cZlIL8dl8syjduOh3tdg7Ufx18qawz8vfK3PxPTn/H8aNNpwEA4IvsSQ4AsEZd/cbzH585fFVm9fBSDVpBHhGxsnFMd7kVxw+PRW+56TxwVpXI8pIcH73y8F/M7Gw6DAAAXzRgEy0AgMHw2Tdd8Iy61/7NyNbefnxA5z2zsqJ8eLgb07Pz0Wp7mCeDKjMiSmT9jqGy/INjFx/Z13QiAACsJAcAWHM+/5b7fVd2O69bHwV5xO0ryhcX23H86Ej0ek3ngbOllIjIKNVTlmL4jYf/ZuZBTScCAMBKcgCANeXzb77gucvdzv/JrGbXR0H+5TJGxpZicuNCtCznYGBlrvy1/n91b/n7Zp9y5J+bTgQAsJ6ZegAArBHXvumiZ3V77deu34I8IrPEwulOzJ0Yjrq27QqDqpSIUkqpvrFqdV5/8G8n7t90IgCA9WzdTbwAANaiz7/pgmd06/bv13Vrpuksa0MdE9MLMb5hKcr6u1bAupEZGSVKfrjk6edPPfHE55tOBACwHllJDgDQsGvfcr/vUJB/uSpOHR+JhdOdyLSinEFVSpTIiPLouoy96fi7Ji9qOhEAwHqkJAcAaNA1b7roWUvL1e8qyL9SXVdx4thILC21FOUMsJWHeZYoj84Y+73T75zZ2XQiAID1RkkOANCQa990/lPqXvvKzGo2Qwn85UrJ6PWqOHFkNLpdw1YG2UpRnlm+eanV+Z0jf71xd9OJAADWE7MNAIAGXPemi56w1Bu6ss6yfeVxlfbd/kolSolYXm7FiWMj0es1nQfOplJKiYysnlJ1Rv7PqXeMb2k6EQDAeqEkBwA4x659086HLtbVb2VW50dknllFyp1aKcqXFtpx8vhw1LZdYaCdORdU8ZRue+JVR981Nd1sHgCA9UFJDgBwDn3+qu17lnvjv5N19cCVvldBftdKRFQxPzcUp08N2Z+cAVdKZKmylOeVeuSXbvnzGGs6EQDAoFOSAwCcI59+7a6Z3uKG19VZPSIiUj1+z2RWcer4cCwuepAng69EqaIqPzw2vvnfv+vyaDedBwBgkCnJAQDOgQOv3ryhPTZ6ZS9bT4wIW6zcC6Vk1HUVJ4+ORq9bRXjYKQOvake0fvobv23LD+Xl5m4AAGeLgRYAwFl2zStj+OjU9C/Wy63vCgX5ffDlD/L028g6UKqROlu/fOqJm5+T6Qm/AABng5IcAOAsuvzyqOqNF/14XVc/EiWKgvy+KlFKicX5TsydHAq7rrAelFKmur32q4/+7eZvaToLAMAgUpIDAJxFL3zA+c/PaP+niGpIQb6KSom5k8OxMG9/ctaHUmJbabeuPPmemQc1nQUAYNAoyQEAzpLPvumCb+12O7+SWSbCmudVl1nixLGR6HYNaVkXskT5um499Jsn375hc9NhAAAGiRkFAMBZcN2b956Xvc5vRlTbVwpyq8hXWykRvW47Th4bibp2DYJBV0qsFOVP6A6P/cp174qRphMBAAwKJTkAwCq75g0zk0u9zm9kloeEB3WeRSVKyViY78TcqWHbrrAOlBJRSqmq52+st/yoB3kCAKwOJTkAwCrKq6LVi43/qa7bzwgF+TlQopSIUyeGYmmxFRGKctaDaiiq1n8+9s6tz2w6CQDAIFCSAwCsos/3LnxhZOfHbl/x2XSe9aFE1q04cWwkej2/5awbk6Uq/+vIezY+pOkgAAD9TkkOALBKrnnd3sd2l1u/nFmGm86y3pQSsbzUjlMnhj0ilfUiS6kurHrDP5tXRqfpMAAA/UxJDgCwCq6+atfOuj386oxqW9NZ1q8Sp+eGYmG+ZX9y1oFS6szjpeQflctiuek0AAD9TEkOAHAf5ZXRqRfHfqnO6hvCptiNKSUj6ypOHh+JXte2Kwy2Enk6Su8Vf31w/9uazgIA0O+U5AAA99HVGy58aWb1vRFhH/JGrTzEs7vcilMnh6Oum84DZ0nWyxm9V33+6gOvvvTS6DUdBwCg3ynJAQDug8+8ee83ZN3+jxFlKEI/vhaUUmJ+biiWFmy7wiCq64h4zcevP/CKR9pmBQBgVZjJAQDcSzddtWvm9NLYn9R19bhSIjOtIl8zMqLV6cbslrlotZoOA6ulriPzLbed3P8jD3x2nGw6DQDAoLCSHADgXnjX5dGeXx796ayrb41QkK85JVe2XTkxHHVtNTmDoO5F5Bt7C/tfpiAHAFhdSnIAgHth50UXfHuvbv1oRrEP+ZpUopQSp08NxdJiOzxPlf5WL5XI1x3u7n/57DPiRNNpAAAGjZIcAOAeuuYNO3dldH4lMjY0nYWvLbOKU8eHo+65jkF/KlEvRNS/Nndq/49d+JQ43nQeAIBBpCQHALgHPnpldDLGrsgoDwrLk9e8UjKWltoxd6rjIZ70nRJ5MiNfcfT6A6/Y8aw43XQeAIBBpSQHALgHJsYv/K46Wy+o0zYr/aFERInTp4ZjedkTPOkXmRn1kZL1j3/83ft/9fyXxELTiQAABpmJHQDA3XTD7+/ZvhAj76mzdb+ms3DPZGaMji3H1MzpqCpDYNa4rPdVpfuyyYsP/WW4YwUA4KyzkhwA4G7IjGohhi+vs7qo6Szcc6WUWJhvx+JC27YrrGGZmfWHsvSeNXnxob8IBTkAwDmhJAcAuBuuedP5z8ioXmiLlf6VWWLuxHDUtUPI2lOiXihZ//7i8Mnv3HjxwX9sOg8AwHqiJAcAuAvXXLVtc9adKzKr8VIsQ+5XpUQsL7Vjfq4TjiJrR2ZkfVtk/vTkwv6XbvuWuQNNJwIAWG/aTQcAAFjLMqJc0534t3VW3xAlMtNK8v5VIiNi7tRQDI92o92uozicNCq7mfX7WnX+h8knH/hg2F4FAKARVpIDAHwN1/3B+Y+se9WPRJQS6aHn/a6UjF63FadPDoVn2NOsPFpl/StHuqcunXzygQ+EghwAoDFKcgCAr+K618VId7n9s5FlU9igY0CUKKXE/OmhWF4yFKYJ2cuoPxx1/d1/dWj/f77wqbZXAQBomu1WAAC+it7whd9Zd6unn1lAbtnxAKnrKuZODkVnaN6WK5xD9ZEo+erT3dO/vvPJJw83nQYAgBVKcgCAO3HN72zb3Ou1fi6j6jSdhdVXSsbCfCeWFpdjeKQbroFwFmVEvRgRf1s6y1dMfevhjzYdCACAL+UeUwCAO1EPb/iROquvL8U2K4OpRGYVp04MRV03nYVBVUouZfY+VrL74vfP3/Y8BTkAwNpkyQwAwJe5/i17H7SwPPKerKvNRkuDLCMiY3p2PkZGl227wqopkcuR+dko9auzvfgH0487frTpTAAAfHW2WwEAuIOrLonWYq/zM5lFQT7wSmSWmDs5FMPD3SitpvPQ/3IpMj9bZ/07ywun3rLlmadvazoRAAB3TUkOAHAH3/Cdex9X19V3ZZawsHjwlRKxvNSKxYV2jIxZTc69VS9ExMcj87XtPPWXG540t7/pRAAA3H1KcgCAM/KqGPrs4tBPZ1bjutL1IldWk58aiuERq8m5ZzLzWBX57jrq12Vv+T0zTzl6vOlMAADcc0pyAIAzrute9O0RrYvDGvJ1pFhNzj2UdUR+rkT+ebR7b7rmnw996pGXxXLTqQAAuPeU5AAAEfGJd2wdXz5Y/XRmjDSdhXMvs8TpU0MxNNKNltXkfInMEtGLzNvqkh8sWb/59Nz8e3c869ShppMBALA6lOQAABExemj8O+tueYxF5OtTKSWWllqxtNiOkVGryck6IpYiY1+U/GhE/mk3T/z97BPnb246GQAAq09JDgCse5+/auPU8mLn/8tSdZrOQnNuX00+PNJ1rWTdybpEzGfmsSjxmYj6o73Mdw915j++4XGnDpWIbDohAABnj5IcAFj3er2Z50TGN5QSmRnq0XWqlBJLi61YWmjF8GjXavKBlRkZp0uJkxF5IDP+pVTlH+usP5XtpU/M3Xb00O5LY77plAAAnDtKcgBgXfv8VRdMLS+2/01G1bZWlMwSp+eGYmikZzV538rlyFiMEgslcj4j5kuUIyXjxih5bZ3lulK6Ny5Hff3R+bzloi1H5ssjPXgTAGA9U5IDAOtaNX5ytBMTv1OV8vqms7A2tKtelNKLtpK8b9R1lCyxv+7lYlWqxTq7p7oRpzpRHa9i/vhNR06ePLA56m/7tuiV4nIYAAAAAAAAAAAAAAAAAAAAAAAAAAAAAAAAAAAAAAAAAAAAAAAAAAAAAAAAAAAAAAAAAAAAAAAAAAAAAAAAAAAAAAAAAAAAAAAAAAAAAAAAAAAAAAAAAAAAAAAAAAAAAAAAAAAAAAAAAAAAAAAAAAAAAAAAAAAAAAAAAAAAAAAAAAAAAAAAAAAAAAAAAAAAAAAAAAAAAAAAAAAAAAAAAF9TaToAAMBq2/S4524f6s49PetoNZ2FQVLH3GO/68TcI56+0HSSftdrx7Eo5UT08nTU9XwcPnEijv3JibjiirrpbAAArD/tpgMAAKy2zsKxy0YOXPezTedgwNR1dI/cGItVHVmsNbkvWlkyMjMjT0RVTsbmqcO55cX7840v/kz28uN1r/pMDC/ti+c/4FDTWQEAGHxKcgBgsLz0yk7nPa96TES01JisqlJi+IZPRfS6UdqdptP0uYyIiFJiNiJmI+K8M//iGdEqkVXOZbZvyjde+8k667fXdf3h+Id3fS5ec9lyQ4EBABhg5o4AwECZeewzd04cvu7j7cW5zWG1L6soI6Ien44DL3t1dGe2G0ifI1lKRJ1HM+ITWeIPuwvlb6J7+Nq47JEKcwAAVkXVdAAAgNU0VC0/tlo6PaUgZ7WViKjmjkV7//URmU3HWTdKZkSJ6arEt1VRXjU0kn/f3rDxDa3fu/Y74nUfnw4LfwAAuI+U5ADAQBk6euBbSsRQ0zkYTKXuxdC+f9bKnmPlTBFeIqNEbK5KdWmrnW/rDE39VfWGz/1QvP4TW5rOCABA/1KSAwCD4ynfNx4lv7lY5cvZUqoYvu4TEVk3nWRdK5lRogxXEY9pl+p/D7Un/m/1+s//SFz50U1NZwMAoP8oyQGAgbHx1utnWgtzFzWdg8GVpUT7yK1RTh5tOgpfVJWMb2xV5ZWdDRv/uPX6zz07XnnNcNOhAADoH0pyAGBgjExteHzU9VSWYik5Z0WJiOrUkegc2990FM64fSuWqkSnZPnWqqreODTTujJe9/n7NZ0NAID+oCQHAAZG5+BNX1dl3S4e5MdZVHW70d5/bbgSs/aUElFKjEXkizud8lfVGz73PfHSKztN5wIAYG1TkgMAg+Gxl4zG0OiTw37knG2lxNANnw7XYtamElFKKVGVuKBdyu91Hv/kX4vfuWZz07kAAFi7lOQAwEDYkocnq9NHdzedg3WglOjcdm2UpYWmk3CXylCJ+NHOcPVH8Tuf+8am0wAAsDYpyQGAgVANTzyiZM7aj5xzoXXycFRzx5qOwV0oESVKyRLlWzvD5Y/iDdc/Ny65pNV0LgAA1hYlOQAwENoHrj+/ZD1kP3LOhWrueLSPH2w6BnfDyjblEVWUvZ3o/Xb7Wf/tR+LyTw81nQsAgLVDSQ4A9L9LLmmV4bEnlrpuOgnrRFX3onPLNZHFNZl+kRFZlbKxtOJX2vcb+fG4/CpFOQAAEaEkBwAGwac/3armTzyg6RisL+0DN4QbF/pHiSgZkVXEWInyivb9HvnyeOlHO03nAgCgeUpyAKDvbd78jXuqpYWtYVUv50op0TlwXZTuUtNJuAdu346pKjFaRfxC+wkbXxaXXGWPcgCAdU5JDgD0vdbigftFVc00nYP1pXXySJSFuaZjcC+VEiNVxq9Uz3rk94dbAgAA1jUlOQDQ91rH9u+uesvGNZxT1ckjUZ0+0XQM7oNSynCrFb/aesN1z2o6CwAAzTGZBAD6XanGJi+OzKZzsM5Uy4vROrY/fOf1typiqsr6VfF7Vz+66SwAADRDSQ4A9LtSzR2+qOkQrEOZ0TlwQ9gLv/9VVdnTabdfGVf+8/amswAAcO4pyQGAvjb27S/dWpaWPbSTBmS0D90cUQypB0GJeFRrw/B/iZe/fbjpLAAAnFtG9ABAXxtdOLyztKrNTedg/SmZ0Tp+W0R3uekorIISUVUZL6wec//vbToLAADnlpIcAOhrI7deM1l63ZGmc7A+tU4ciWppvukYrIKMiKrESCuqn4vfvebCpvMAAHDuKMkBgP42NvGQUnebTsE61Tp1NMryYtMxWAUlIjIiS4kL2+3Wz8blVw01nQkAgHNDSQ4A9LehoUdHNh2C9aqaPxFlca7pGKySElFKKVlKfk/c79FPajoPAADnhpIcAOhrrRNHtjedgXWqlCh1L1rHD7pOM0gySxXVaKfUPxuv+/h003EAADj7lOQAQP96wuUjrcVTM1FK00lYr+o6WscPhe/BwZKRWTIeWw1PPa/pLAAAnH1KcgCgb01NX7+tbg9tazoH61jW0TpxKFZ2tGZQrGy7ElWV8fJ47adnms4DAMDZpSQHAPrW0KHDU1XmdNM5WL/KF0pyG64MmozIKuPrq9Exq8kBAAackhwA6FvDt1w7XLrLQ03nYD0rUZ0+HtHrNh2EVfbF1eT1y+LKj041nQcAgLNHSQ4A9K16cuN5JXv2uaBR1anjUZTkA6uK8uDW2MyTm84BAMDZoyQHAPrX2NgDIm1zQbOqhRNRer2mY3C2lGiXki+Jy9/VbjoKAABnh5IcAOhbpe6d13QGqE6fiKitJB9UJaKUiG+NC/c8sOksAACcHUpyAKBvVadPbWw6A+tcKVEtnI7SXW46CWdJRmQpZaId1Xc1nQUAgLNDSQ4A9K32iQPDTWeAkr0o8yfDxj+DqUSUiKhKlU+PV396Q9N5AABYfUpyAKA/fcflY3VreEsUz+2kYXVGWVpoOgVnUVn5y4NipH1h01kAAFh9SnIAoD/NLI1Gqz3ZdAyIuhet08ebTsFZlBFZIibaQ0Pf1nQWAABWn5IcAOhLG48cHo+qmm46B5Ssz6wkd1fDoFp5eGeposS3xkuv7DSdBwCA1aUkBwD6UnvueCeyHmk6B0RdR7Uw13QKzrqMEvmIePS3TjSdBACA1aUkBwD6UnvhaKfKeqjpHBCREb1lC8kHXEZkKbE5OqMXNZ0FAIDVpSQHAPpSHjpYYnnJWIbGlboXrfmTTcfgLCsrl0HGqxIPaToLAACry8QSAOhLnROHqlJ3W03ngIiIyGw6AedCqUop+cBw3wAAwEBRkgMAfak3MuLheawRJcrCXERdNx2Es6xkRlWqB8WVH203nQUAgNWjJAcA+lLuuOBBUYrVnKwJZWneavJ1ISMjz4+NW5XkAAADREkOAPSlUlrDTWcA1peMyCpyY8ydmGo6CwAAq0dJDgAAcDeUiJKlDEevs7HpLAAArB4lOQDQl7KEh3aydthqZd0oEUPRKlaSAwAMECU5ANCnersjwp7kNK9EtOaORcle00k4FzKGW+0y3XQMAABWj5IcAOhLpRR7krNmlKwjLCZfJ0pEcYEOAGCQKMkBAAAAAFi3lOQAAAAAAKxbSnIAAAAAANYtJTkAAAAAAOuWkhwA6E91Odp0BLhdb3gsohharwsl6+jVy03HAABg9RjJAwB9qhyIiGw6BURG5PBYZClNJ+FcyLLY69bHmo4BAMDqUZIDAMB9la7XrBdZcimyd6zpHAAArB4lOQAAwN2V5XQs9Q43HQMAgNWjJAcA+tPS0pFI260A51p9S3RHTzedAgCA1aMkBwD6Uuumz37eluSsDRn1+HRE1Wo6CGdbKZFZrovD+3pNRwEAYPUoyQGAfqYlZ21otSM8t3MdKBFVfCauuLjbdBIAAFaPkhwA6EvdXRf0sjNqNSdrQzGsXg8y6+Ws45+bzgEAwOoymgcA+lIZGc2sSt10DsiqFb3xKfc1rAMZcbK3tPRPTecAAGB1KckBgL40t2HrYpTWfNM5IKJE2o98fajLtbHQu7npGAAArC4lOQDQlxZzsReRi03ngKiqqEcnmk7BWZZRoi7x4fjRB881nQUAgNWlJAcA+tLCpvNOZcbRpnNAlCqiMxT2Wxl4y1l33xcONADAwFGSAwD96X7/9Xh0Fw41HQOyqqI3Otl0DM6yzDxUd8f+vukcAACsPiU5ANCfrih1KZ0TkRZ10qwsVeTQSJSmg3DWZERk5vvjhqtvbToLAACrT0kOAPSt7tTMQtMZWOcyI1rtyDEryQdct87yp3HFxd2mgwAAsPqU5ABA38rRsQNNZ4B6ZDyy1W46BmdRZtxU9+b/pukcAACcHUpyAKBv9er8XNMZoB7ZEFG1mo7BWZIRWUf8Rbzkwbc1nQUAgLNDSQ4A9K3WkYOfyGInaJpVj05YST7AMuJkL+vfbToHAABnj5IcAOhb1fjEiWx1ek3nYH2rxyYjKyX5oMqMd8X3XfiPTecAAODsUZIDAH3r1PS2+axaHt5JgzLq8akIK8kHUmYsdEv8RkSpm84CAMDZoyQHAPrWwsT2oxlxuOkcrF9ZquhNzEbY9mfgZETUJf4urv7oe5vOAgDA2aUkBwD61vyfverWqte9OTKbjsJ6VUrUGzbGSqXKgDnVXVr873HFpUtNBwEA4OxSkgMAfaxkd3LTsaZTsI6VVvSmNunIB0xGRF2Xq+LtD/z7prMAAHD2KckBgL7WGxn7fNMZWL+yqqI7tTWKlnygZMQN3RK/Em8tHgwMALAOKMkBgL7WOn70fWk/aJqQGfXwWOTYRNjyZ3BkRDez/Gq88Pyrm84CAMC5oSQHAPra8sj4rdnqaChpRL1hY2R72IM7B0RGRGa8o7u4+LthEx0AgHVDSQ4A9LXFTRcdqavWyaZzsD71NkxHPTTcdAxWSUbuX+7W/zl+8IHOKQAA64iSHADoa0ePHvp86S3fbLsLzrWMiHrDbERHST4I6oyFXp3/Ob7/oo81nQUAgHNLSQ4A9LeP/cV8b8PswaZjsA6VEt2Z7RFhq5V+lxG9OuJ3679/5+uazgIAwLmnJAcA+l3WneHPNB2CdaiUWN68x0M7+1xGZJ3xt72F+f8Ur7lsuek8AACce0pyAKDvtRZO/l1WraZjsM5kqaK7aVcUz3fsW5kRdcbHu0un/nX80IOPNJ0HAIBmKMkBgL63uHnHobpqLzWdg/WlHhmPenzKSvI+Vkde013u/mD8wEOvbToLAADNUZIDAH1vrpf/FHW9P6zo5RyqJzdFPToRUexJ3o96Gdd1o/2SeMn9/7HpLAAANEtJDgD0vVNHbjieG6YO6sg5ZzKjO7k5cmRD00m4F+qMm7olvj9euPd9TWcBAKB5SnIAoP995pJuXVUfDAt6OYe6m3dbRd5nVh7Smdcsl3hhvOCC9zadBwCAtUFJDgAMgCvqKJ2PZtVuOgjryPKOi+xH3kcyo87IjyxHfLeCHACAO1KSAwADYWFi29UZMdd0DtaHutWO7pbzotjjpy9kxnJd4g+XF/N58cILP9V0HgAA1hYlOQAwEHq37ftUtoYOWtnLudDbMBO9DTNNx+BuqCOO1pm/2F1Y+sH4gYtuajoPAABrj5IcABgIR5748Pl6aPTjTedgHciM3uSm6I1PN52EryEjs5f5qbobL+q+9vW/GD/4wJNNZwIAYG2ycScAMBhe85rl+sHf+IGsqucWq8k5y7pbz4vodOxJvkbVGXMZ8QfdOq6IF19wY9N5AABY26wkBwAGxuLGbZ+KKAtN52DAZcbS7gcqyNegjMhexCfrjBd33/u3PxIvulBBDgDAXbKSHAAYGK1TJz5WD40caS3M7YhSmo7DgKrb7VjeekH4Dls7cuWSxS0Z8Vvdxd6V8QP3O9h0JgAA+oeSHAAYGLfd70nH93zqjz/RKrGj6SwMrt6GmehOb206BhGRUXqZ9c11xJt6pfd/4gX3v7bpTAAA9B8lOQAwON56xVL9Dd/ygZw/+bQSaaEvqy8zejM7Iidmmk6ybmVERsRSHXltRPmDbrd+Q3z//T7fdC4AAPqXkhwAGCjL1dA7hkr5D1HXo7ZcYdVlxtLeB4fvrXMvI3oZcTDq+GAv6z+qo/x1vOj8A03nAgCg/ynJAYCBcnp69+dGTh26uT1/4qKmszB4spRY2vnApmOsG5mxnCVuiyyf7EXvr+u6vCuOffaa+LfPWGw6GwAAg0NJDgAMlJPvfP3hjQ96+AeylIus9WW11aMTsbx5d2QpHtx5FmTEqYw4FJk3RbQ+UMfy+3qL+U+xfOKmuOyRy03nAwBgMCnJAYCBs7Rp5zur/cvPLJFV01kYLN3ZHd3u9La5iMhsOkw/yixZyumSsRSRS3VUxyPi5ij5ubouV1clr+u26tviX266Na64uNt0XAAA1gclOQAwcG47fN2bZ+//sA81nYPBszSxq7eU1VwsLDUdpX+NjM5HfWwpPnJzN171pdum1E1lAgAAAAAAAAAAAAAAAAAAAAAAAAAAAAAAAAAAAAAAAAAAAAAAAAAAAAAAAAAAAAAAAAAAAAAAAAAAAAAAAAAAAAAAAAAAAAAAAAAAAAAAAAAAAAAAAAAAAAAAAAAAAAAAAAAAAAAAAAAAAAAAAAAAAAAAAAAAAAAAAAAAAAAAAAAAAAAAAAAAAAAAAAAAAAAAAAAAAAAAAADuRGk6AABAoy65pBWP+7rxiNmmk7BWHT58Kq64om46BgAAcHYoyQGAdW3q9a86/+Ry73frOqebzsLaM9RuxcN37jg53On0ms7C3ZGRdRyOEidLicORebDu5c11lJtbrTh2cnHh8PJI69BnLr50LiKy6bQAAKwNSnIAYH276pLW6PwTXju/tPz9BkZ8ua0TG+J+WzYbNPejUu7w94ys6/mMcrxkHM9Sbo4Sn6mz98lSyjULp5avPXRo7sAN4+PLcemlLogAAKwzxvsAwLo3+ebfeuTc6cV39Op6o8ERt6si4ut3bIup0dGmo7CKMiJLRIlSIkqJuu4tlYjDGWVf1PmRUlofWFqKTx6byOs+e8viaaU5AMDgMw8EALjqktb4/BNec3pp+QeajsLakJkxPToaX799a5RSohTD5nWhKpF1Zok4npmfyxLvy8j3Li4vfuTgLQsHb3jJSxaajggAwOoz2gcAiIgtb/rNhx6eX35Hr663GiAREfHALVti88R40zFowB1Xm2fmYtS5P6vqg3XkXy2d7r3no+MzN8bFF3ebzgkAwOowBwQAOGPs9b/x6/OLyy8PY6R1LSNivNOJh+3cHq2qsoqcO+pmxC0R+d466rfOLfQ+8I/PuPRg06EAALhvjPgBAM6YeNNv3W9+YeFd3V7uNEhavzIzLtw8GzsmJxXkfInbV5jnyrWU5Yz4bNTxtl6ve9UH3v+pq+OKK+qmMwIAcM8Z9QMA3MH463/z508vLv7HWHluI+tMZsZIux0P27U9hlptJTl3KTMiqjiQWf5iuZuv+VDn4x+Li6+wFQsAQB8x6gcAuIMtb/o/W4/Oz//Dct27yEBp/cnM2L1xOs6b2agg5+4rJSOyZMbprOOvSyuuvO7gte/dd+lPzDcdDQCAu2bkDwDwZSZ//zdedmqh+6qMbDWdhXMnM2Oo3Y6H7tgWY0NDTcehD2VEllJK1rkYJd7VK/VvXHfq4LtufdZlp5vOBgDAV+c2YgCAL3NiuPz+cKf9gWw6COfcpvGxGO10ItPR554rESUyI0oMlRJPa2f1tgvHtv7+N73zDx9/0StfOdx0PgAA7pyV5AAAd2LyDa9+6tzC8h/XmWNNZ+Hsy8wYarXi63dsiw3DQ2GYzGrKiGOR8bZer/7197/vE5/xgE8AgLXFSnIAgDtx4r2feNdIu/W2pnNw7mzaMB7jQwpyVldGZImYjsgfqtqt//vNj3v4v3v4Vb+zuelcAAB8kRkAAMBXMfumKx94fH7hnd263mHQNLgyMzqtVjxkx7bYMGxHDM6OM2V5qTN7UeLDdbR+9v2Hfv89celbe01nAwBY78z3AAC+urLh9b/1M3NL878Yadw0yLZNTMRFm2ejFIeZcyMjTtR1+a2F+bn//rFnPf9Q03kAANYz260AAHx1OT3SvrLTan3EYxwHU2ZGu6pi+9SEgpxzqkRMVlX+1Nj42J8/9h1/+C1x+eXmZgAADTETAAC4CxNv+q1nzJ1e+IM6c4PB0+C5fRV5RCjKOadu34IlI47UGf91/+Kp13zuGS880XQuAID1xmoFAIC7cPKP3/nXI53OG0tE3XQWVlenqmLH1GSUUhTknHPlzKKlEjFTIn95+/CG1z7mHW+7X9O5AADWGyU5AMBdeetbeyOtoV9otVpXNx2F1ZOZsXViIsaHhyLThjo0q6qqKkpc0mm3/uib/uZPvt32KwAA546BFwDA3XDkhT+8b2xk6L9EKQtNZ2F1jHQ6sX1qMiJss8IakFkiIkuUr++04g3f+oRvvCwuv3yo6VgAAOuBkhwA4G460b71D0fa7T/JUiw77nOZGTsmJ2Kk3Wo6CnxBibj9cs2mkvmr3/L4b/iFi97+hslmUwEADD4lOQDA3XXpFUudVvm5dlXdpCXvX5kZ40NDsWVy4ouVJKwpGaXEaIn8iW0j4698xJ+/aVPTiQAABpmSHADgHjjxfT/6udHhzs9WpSwqyvtTKSV2T09FpzIUZq1auXhTSqlKxIvHxkZ+97F/8Xs7Gw4FADCwzAwAAO6hk6eqtwx32m8stl3pO5kZ06MjMbth3D7krHll5Y+MUj2zMzr1B494+1subDoTAMAgUpIDANxTl122PNoavrzTav1T01G4+zIz2lUVuzdOR6tSkNMfVoryyFLiW0aHR97wmHe87X5NZwIAGDRKcgCAe+HIC39430i789NVVY5ZTt4fSonYMrEhJoeH4/btLKAfrCwnj6xKPHaoar3hkX931QOazgQAMEiU5AAA99KJz936jrHO0G+UUnpNZ+Fry8wYbrdj59RkVLZZoQ/dXpRHVR41Ug/9/iP++m0PbDoTAMCgMEMAALgPNl515dT86aW3LXZ7T4pMY6s17ILZmdgxNRkRYT9y+lpGZGR+5MTSwvd84un/6vqm8wAA9DsryQEA7oOjl152vNWOn2iVckt6kOealJkxMTIcWyc2RClFQU7fKxElSnnUxNDIbz70j16/pek8AAD9TkkOAHAfzb3w5Z/aMDzyM1WUeS352tOqqti7cTrarVbTUWBVlShPn5ya+B9fd9VVG5rOAgDQz5TkAACr4NgLX/rGkU7nNfYnX2MyY+vEhpgeHY1MlzAYHOXMrkGllOdMbmo9rOk8AAD9TEkOALAqSg6Ptl4x3Gn/bdNJWJGZMTbUid3T07ZZYVB1o+RvfPCaQx9uOggAQD9TkgMArJKjl152vFP3Xt5utf7FmuXmtUqJvTMbY6htmxUGT0ZkZv7lrfNzvxyXXbbcdB4AgH6mJAcAWEUnX/Jj14wNj7y8XVWHFeXNyczYvGFDbBwbazoKrLrMiIz8p16Jn/zcM154ouk8AAD9TkkOALDKjj//h9851ulcXpWy1HSW9SgzY7TTid0bp6JVVbZZYaBkRGbJA91uvvz9T3zu55vOAwAwCJTkAACrrZQ8Md96zVin85qIqJuOs95UpcSemekY6XSajgKrL2Mx6/iPH3zqd72n6SgAAINCSQ4AcDZcdtlytTx8+Ui78zexsjsC50BmxqYN47FpfNwKcgZOZvSy5K+/78jy7zadBQBgkCjJAQDOkhM/9ENHRlqdl3Za7U+WCD35WZaZMTbUib0bN0arMsxlsOTKxbY/OLHvcz8fl17aazoPAMAgMXsAADiLjr7oshsnRjs/1CrV9Vrysyczo1VVsXdmY4wOdSKt3WeA5Mr/3nls7vRPfPJFPzXXdB4AgEGjJAcAOMsO/6sf+ej02Ni/aZfqkOr27CilxNaJidg0PvaFf4aBkBEZ5R+Xu71//U/f+fz9TccBABhESnIAgHPg0PN/+O0bRod+olXKnKJ8dWVmTAwPx56NU1GK4S2DIyMiIz+/1Ov+8Iee+rxrms4DADCozCIAAM6RY1ff9saRoeH/WJWy1HSWQdJpteKC2Y0x1Go1HQVWV+b+upsv+/BTnvfRpqMAAAwy96ECAJxLV101NH764H8+vbz8MxGp1V0FF8zOxI6pyYiwzQqDo848nnX51+97ynPeHB78CwBwVllJDgBwLl166dLcYvuXxobar4sSPc3XvZeZsWl8PLZPTkSEgpzBkZGnq6guf99TnvOmUJADAJx1ZhIAAA3Y/K6rNszdePC180tLl2REZVB2z2RmjA8Px4O3bYnhdltBzsDIjKVolZ/9+yc8+39EUZADAJwLVpIDADTg4MWXnprqtP/N6NDQX5awovyeyMzotFpx4exMjLTbTceBVZMZi3Xm//j7z972vxTkAADnjiU3AAAN2v6mKzcdX+6+dn55+Tsi7VF+VzJWVnlcsGkmtk9OWkHOwMiMhbrEr7zv0NIvxqWXergvAMA5ZCU5AECDbn3+ZYemOht/aKTVfndEsXL0LpSI2DY5EdsmJhTkDIyMWKoj/9v+f7rxlxTkAADnnpkFAMAaMPrm396RC/NvXOx2nxCRxmhfxdTIcDxw65YYarfCUJZBkBHdOstv7bvxyE/d8JKXLDSdBwBgPbKSHABgDZj/Vz94SxkZfcFIu/PeKFaU35nhVisu3DQbQ+12pN8hBkBmLGbG/zh58/GfUZADADRHSQ4AsEbM/6sfvGVq6+glY0Odt0fogW+XmdEqJS7cNBtjQ0MREbZaoe9lxFIv83/9w3s/fvknX/SiuabzAACsZ2YXAABrzI4//r3Z4ydO/u7ppeVnZES13gdsJSLOn9kYO6anVv5ZQU6fy4zFXh2/9v5r9//nuOyy5abzAACsd1aSAwCsMbc898WHJzudl4wOD19VIpbX+4ry7ZOTsX1qMiIU5PS/jDxZR/6CghwAYO1QkgMArEG3Pv+yQ+Mjm354dHj4tVWJpabzNGXz+FjsnZmOUoqCnL6XmcfqUv2H9733H39JQQ4AsHaYaQAArGFbX//68dPl+L+fW6p/Kut6pOk850pmxtToSDxwy5YY7rQjw8CV/rVyN0ge6GX+2PsPv/mtcelbew1HAgDgDqwkBwBYw/a/6EVzJ08P/fzo8PBPV1U1tx62XsnMGBsaios2bVopyDMV5PStzIyMvL7O+P73v/cTVynIAQDWHvMNAIB+cPnl1ez9t73g+MLi/+rWOTOog7jMjOF2Kx6wZUtMjY7YYoW+lit//MtSt7zkQ099zoeazgMAwJ0z6wAA6COb3vzbzzw2f/J/d+vYVTIHbizXKiXuv3lTzG4YjwgP6qR/ZURm5Ae7vfzBDz7lu/656TwAAHx1tlsBAOgjh/7VD/7l1NDYdw+1Wp+MiByU7VcyVgamF8zOKMjpe3VmL6L80fxSfreCHABg7VOSAwD0mcMvfOlHRqP9nJHO0NtLiW7TeVZDFRF7ZzfG1smJiFCQ078y4nSW8usHTsZLPva077q16TwAANw1JTkAQB86/pKXXb950/T3jQ8N/2Yp1UI/rygvEbFreip2TE6u/LOCnD6UK3/ur7P+6YVr9v/MZ5/97JNNZwIA4O4xAwEA6GcvfWln+gkPf+mpheXLu3W9uf8Gdxm7pqdjz8bpaFXWb9CfVh7QWf6l161//P1Pec7fRCn9fN0KAGDd6b95FAAAXyqjTP3+/7l4vjf/quVu7+uajnP3ZWyfmIzzZjdGu9VqOgzcK3Vmr5TyN93S/f8+cPHz/qXpPAAA3HNKcgCAATH5lisv7C0u/+bp5e6TInPNt87bJya+UJBnpm1W6EcLdR2vuXH/3CtufMELjjYdBgCAe8c9rQAAA+LE9172+dn2xu8dHxl+dYlqIdfglg+ZK5G2btgQ522a+cIKcgU5/SYzD/Xq+PF/+PuP/6SCHACgv5mNAAAMmssvr6bvv/MFp5YWfqnX7e2MNTbm27phQ1y4edYe5PSljKgz4mPLES//0BOf86Gm8wAAcN+tqQkTAACrZ/Nbfvthpxbmf22hu/y4zGivhYHftokNccEmBTn9Z+UeiDydUX5/cX7pFR955qW3NRwJAIBVshbmSgAAnCUbr7pyqrvU+3enF5b+dZ0502SW7RMTcf6mGQU5fScjMjKuq6v8L++7+sCb4rLLlpvOBADA6lGSAwAMussvryYv3PaUxV73vy11uw+JBp5Ls2NyIvbObPzCHuTQLzJyKTP+anmp93MfevrzPtl0HgAAVp+SHABgndj45t/ZvdSd/08Li8sv7EWMlcyzPhYsEbFzajJ2b5xWkNN36ojbSp3/8/CR5f/9mUsvPdV0HgAAzg4lOQDAenLllZ3Zybjk5PzSzy/1uhec7cHg7unp2L1xKlpVFZkZpRh+svZlRJ0Z71nM6t9/5Mnf+bGIqJvOBADA2WOWAgCwDm3+/ddeNJeLv7SwuPScjGjHKo4LMzNapcSe2Y2xc3IyKnuQ00cy4kgd8Rsnbp37X596wQuONp0HAICzT0kOALBeXXllZ+OG8t2nFhd+odvrnZ8R1X0dHGZmtKsqzp/dGNsmJyMirB5nzcuILBG9zHh/L/Nn3v/k536g6UwAAJw7ZiwAAOvc9Bt/Y+9yr/ynheXl76nrnIh7OUbMzBhut+KCTbOxacN4RCrIWfsyIjPz5ijVq27pLV557VMuPd50JgAAzi2zFgAAIi65pLXxu5/y1IX5xZ9b7PYeWZdo36MHe2bG6NBQ3G/zbEyNjESGgpy1r86YyxJ/3uvFL33wKc/5VNN5AABohpkLAABfsOuq184cX1p+ycLi8o9163rXyi4Ud21yeDgu2rIpxjqdiFCQs7ZlZi8iPtbN8t9vuenjf3HDS65YaDoTAADNMXsBAOArzL7pygcuLPd+aqG7fEmvrie+1qBx0/hYnD87GyOd9jnLB/dGrvxxa53xv4/Pzf+ff/rO5+9vOhMAAM1TkgMAcOcuv7w986A9T5xbPP0fl5e731JntG8fPGZEVBGxY3Iy9sxMR7vVisy0gpw1q86Yi4g/6i7Gf//g05/9T1FKNp0JAIC1wSwGAICvafNVr97QXa6+79Ri9ye6ve6FEVGqUuK8mY2xfXIiqqpqOiJ8VRnRi4gPdkv8/Afe/fF3xhVXdJvOBADA2qIkBwDgbhl73au3tTrlR3vd+gfOm924bXZsrIqw/zhrT0ZEZPaylM9kyV/93E0n37b/RS+aazoXAABrkxkNAAD3yP3+4o0XbB0df1mUfH6Jsq2s7LwCjVvZczx6kXFtZrlyfn7u9R971vMPNZ0LAIC1TUkOAMC98sj/e9UDRjqdl0VVvqdE2VIileU05sy2Ktdmxm9355fe8MHvuPTmpjMBANAflOQAANx7l19ePepbHvzQ4VbnB0vEd0cp24oxJudQRnQz84as6zcsZ+/3PvzUS69rOhMAAP3FBAYAgPvukktaj33pC76uXdXPj1KeX6LsVpZzNtUZvYj4l7rEb+f83B994JkvuDHObEcOAAD3hIkLAACrJ7M89t1vvbCTQ98XEc+PiAuV5aymOrMXEZ+qS/mdxaX6bR972nfd2nQmAAD6mwkLAABnxaPf/oe72kOtS1qt/KGsywOqEq2mM9G/MmI5Iz+aUf3WUn3sLz/y5BcfbjoTAACDQUkOAMBZ9XVXvXZmenb2Ga0SP5gRjy5RRq0u5+7IiCwRx3t1vjszX3vdQuddtz7rWaebzgUAwGAxOQEA4Jy46O1vH97cmn9M1apeUpXylFJia0S0m87F2pIrfyxHKTfUGX+e3fz997/vHz8ZV1xRN50NAIDBpCQHAOBcK49+x5+d12nV311V8dzIeEhEbLC6fH3LUurI+mhmfLiu863LS93/+5FnXnpb07kAABh8JiIAADTmAX/6pxPTI73HdjrVc0rEUyNyT4ky1HQuzo0zq8YXMsrnIuu/LFH++MYbj33yhpe8ZKHpbAAArB9KcgAAmnfVVa3Hzsa2TnQuzqp8V8l8bETZZnX5YMqMXkbeVCLfVUf1x4cz3/8vT3rukSiRTWcDAGD9MekAAGBNecSVV3aGzpu9sBrqPKn06ueUEt8QpcwozPtbRqkj8tbM/HBdtf5osbvw3o+95q03x1vf2ms6GwAA65uJBgAAa9eVV3Yec9H2B3Wy9+RSyrNLiYdGxHTTsbh7zmyncjAzPlpHvHUpO+/96JW/d4NiHACAtURJDgBAf7jyys6j9s7ef2i4dXGV5ZmR8Q2lxGxGtKwyXxsyIiOjFyVvzigfi4w/mV/M93/sQ/94XVxxRd10PgAAuDMmEwAA9J9LLml9w/d/767xkfajI+tvL63yqKjzglLKiNL83FlZKR7diDgZEVdnHR/uRv1/l7tzn/jY077v1objAQDA3WLyAABA33vIX7xx4+Tw8IWl1Xl8RP3okuXhUXJbZGwopbSazjdIMmI5Ik5FlBsj4+N1Vf9D6S1/4MiRuPEzl156qul8AABwTynJAQAYLJdf3n7g4x4+tbGUB5QSj2yVeGTU8bAosT0ipktEp+mI/SIjskQs1hHHIuKmkvGPEfHhbpaPLeXitR/7h0+ftI0KAAD9TkkOAMBge9e72o/oHhwfabXPy1I9sFXHI6LEQyLjoigxG1GmSmTVdMy1IFe2TjkWGQeyxOdKxEd7vfqTdcTVJ452b/pMxHxceqmHbgIAMFCU5AAArC+Z5Qnvfnfr6PLRmfEq90Zpn1eV3teXrL6hROyNkpsiymyJGG466tmUEXMReSSjHCoRn82Mf8qIT2aVN80di+unp6dPvefii3srXwoAAINLSQ4AACvKA/70TzdsHF7c2hkb21J3exdVWT8wSnX/rHNPqWI6MjdGlOlSot102LsjIxYj81iUcjQjj5ZSXZ+Z/xIlPlPqvHGxt3zwlmP7btt36U/MN50VAACaoiQHAIC7cuWVnYfv3jg9MhpTmWNTrbK0qx2xq45qd8ncmRlbosREREyUjNGoykRkjJSIsTu+TGaWezoEL+VLV3JnlIyo5yLKYkSciMjTmeVURJ7IKLeVErdE1DfUUW6IEgeW5k6fON3uHPvMb7/1eLz1rbZKAQCAL6MkBwCAVXDRK185PL57YjSzNTQ+PD6aY+1Ou5dDdZ1DUcVoRETVKuMR5R6tQs+oF7LXXoyIqLN3ql2iF9FbmM9ed3Q55m87srQ4NHTNwmcuvWLpbPx3AQAAAAAAAAAAAAAAAAAAAAAAAAAAAAAAAAAAAAAAAAAAAAAAAAAAAAAAAAAAAAAAAAAAAAAAAAAAAAAAAAAAAAAAAAAAAAAAAAAAAAAAAAAAAAAAAAAAAAAAAAAAAAAAAAAAAAAAAAAAAAAAAAAAAAAAAAAAAAAAAAAAAAAAAAAAAAAAAAAAAAAAAAAAAAAAAAAAAAAAAAAAAAAAAAAAAAAAAAAAAAAAAAAAAAAAAAAAAAAAAAAAAAAAAAAAAAAAAAAAAAAAAAAAAAAAAAAAAAAAAAAAAAAAAAAAAAAAAAAAAAAAAAAAAAAAAAAAAAAAAAAAAAAAAAAAAAAAAAAAAAAAAAAAAAAAAAAAAAAAAAAAAAAAAAAAAAAAAAAAAAAAAAAAAAAAAAAAAAAAAAAAAAAAAAAAAAAAAAAAAAAAAAAAAAAAAAAAAAAAAAAAAAAAAAAAAAAAAAAAAAAAAAAAAAAAAAAAAAAAAAAAAAAAAAAAAAAAAAAAAAAAAAAAAAAAAAAAAAAAAAAAAAAAAAAADSlNBwDutdV6/+YqvQ4AAACwNqxGZ6AvYN1oNx0AuHf27tr7klbJR8Z9+NDKKKcWblq64ta49fQqRgMAAAAasm3Dts2jG4d/ukSO3YeXKXVU77n+puv/YNWCwRqmJIc+VVXx7aVUl96nF8k81Jnq/HIcDyU5AAAADID2aHuqlPjhUqqp+/I6VV1HRCjJWReqpgMA99pq3PZUr8JrAAAAAGtIrs5833YrrBtKcgAAAAAA1i3brQAArKJdu3Z9e7u0H3hfXqPU9eHrbr7xqohYWqVYAAAAfBVKcgCAVdSpWi8okS+Me397aslW+fTMzMyfHTlyREkOAABwlinJAQBWUWaUqiolIsq9f4281z8XAACAe8ae5AAAAAAArFtKcgAAAAAA1i0lOQAAAAAA65aSHAAAAACAdUtJDgAAAADAuqUkBwAAAABg3VKSAwAAAACwbinJAQAAAABYt9pNBwAA1rbzd+16fF1aD46IvLevkXUevPHmG/9wFWMBAADAqlCSAwBfSxWl9X3tqvzQfXmRjPh4RCjJAQAAWHNstwIAfC0ZJer7/ColequQBQAAAFadkhwAAAAAgHVLSQ4AAAAAwLqlJAcAAAAAYN1SkgMAAAAAsG4pyQEAAAAAWLeU5AAAAAAArFvtpgMAAAySUuJwnXlTich7+xoZcWsp5V7/fAAAAO4+JTkAwCpaPLr889nO/3lfXmO5tbx8+PDhU6uVCQAAgK9OSQ4AsIpuOXnL4Yg43HQOAAAA7h57kgMAAAAAsG4pyQEAAAAAWLeU5AAAAAAArFtKcgAAAAAA1i0lOQAAAAAA65aSHAAAAACAdUtJDgAAAADAuqUkBwAAAABg3VKSAwAAAACwbinJAQAAAABYt5TkAAAAAACsW0pyAAAAAADWLSU5AAAAAADrlpIcAAAAAIB1S0kOAAAAAMC6pSQHAAAAAGDdUpIDAAAAALBuKckBAAAAAFi3lOQAAAAAAKxbSnIAAAAAANYtJTkAAAAAAOtWu+kArFtjG2NjZ2xmbKJX91p39gW5nPNLc0uLR+PoQkQsnuN8EBExekFcMHQ0jkY1W413ep3O1/riud7cqXa73T169OipiOido4x8pRIRG6amptrj1fiGOuuvekH49vNMmSl55MiRUxFRn7uYwL1UZmZmJnq9XjVeVRN1Dn/Fe7yMliynytxCZ2HZe3tVDV8QF4yc2HRirN1tD321L2qNt3qnT58+GUcjjsbRxYhYOIcZuftKzMaGqe5Ue6yqJjKHy1d8QSlZRsvc/C3z3aNx9GR4L6114xtjYzs2RoyNjU305u58nhWxcmxP16dPtlqtnvPkujOyd+ve7VkWR2+87bZ/johsOtBZ0rkgLhib3z7fGZnP8fk7+YJWtdQ71eudOn78+HJEzJ3rgNyl8ampqaHxqtpwZ+O9sdGSS63WqX379nUjwnmM+0xJztlQIqKamJiYnpyc3FlK2dHO6v5R4rwoZXdVyq7IejxK1cnI8Yj2Vxu8LYzPDC9Nx8RCRpwsEfsy4/o647poxbWLi4u3LSws3Hz8+PETsfLBPqgf7tw35fY/Z2dnxzJzanx8fKr0ynSp6skqq0115uaqXW3JjE2lxERG7KgihiJzJEo9tDGmos56rJTyNc+ZYzk0F1G6MxOTpzPjWETeWGdcV0dcG1VcFwsLt9144MAtEbEUPsDviyoiWjtnZrZ2Rkd3dkvZ3o7qfqUqF2bGripycyllPCM6kTmepXzFpP8OFsZnR5cyM6c3TMxlZi8ibitRTtURt9WZx6qsDtZZ31xX9YlW3TrZWz598vjCwtGTJ0+eiJXjmOEcBKuliohqy/iW2bHpzrZSV1t6VTmvWhlD7CkltpaIjZkxXiKrjBiPUu7sQliWjXF6JDvd6Q0Tc5FxPCJuzTpuraO+pYpyc5b6QGQeOzE/f7h1pHXsYBycj/X9fi4RUU1NTU1MjkzuKsNlW9WLC0pVLorI3VHK7sgcj1KPTOTYaJTytS4c94YnpuZiQx0bY2IxSlmMjJNZ4khmHIjMExFxa5ZysCp5aKnXO9Wu62O9Vuvkvn37jsTK5+R6PharpUREe/PmzbPDrdbu0ulsr3pxUatVLswo50XkpihlQ8lsn3kvfWVJvvK3uZE9Q72NMXmqzjheMvfVpVxf6vraXhXX1vPz+7uHWrfsj/3zYXyzGkqsnAvL1NTUhrGxscmqqqarupqsqmoySmwrkbOllM115pZSyniJ2FlKtDJzrJSqHRGRkeMx+VXnWREROZqdUxmlPjMGOhSl3FhnXFd69bXdKq/vzfVuu/XorbdFRDcc235VImJ09+7dF1SZD6mi+rZS4hsjYleU4U9FxDMjYrnZiPdKFRGdbdPbto2Mt7ZFXW3LdnV+ydxbInaWqmyPjPEo9ehIDLVLJ8ZG7+xVcqg3W8rpmanp5cici4wDUcptEbG/jri5ivrmXq93uNT10YWTeXj/3P6j8cXxv/fEfVNFRGf79u1bq7ra3u6U7RGtC1slL8gsu6Lk1ihlvGR2vtZ4byhi7oLde3tR4lRmHs2IfSXjuqzz6jp6+5bn5/fdevSo8xh3i5Kc1TK8c2bn5vZY+yEl8lGllG8uEfePyJkoZeorxtxnzm8lvlZ3FRGlRGRmdYcXaEVEZmZ7eOTY2NDw4Y1T0/8Sde8jGfGR3un45L4j+w6FlefrSYmI9q7Y1Z7bODc02hrd2urklqrV2lzVrR3RivMy4rxSYndEzJaI0YwYK+0YK6U9HHGHfae+/NvxDt+3rTv9TL7zr8/MLFUpESVasfI9G5mLOTxy7Pzde27NiP+XWb+vWsqPni7dz+/fb1J5F1qbN28eHet0Liql9dCI6tFVKx4dETsiYmYoYvQLp4jyhb+c+b93eZZZ+dozP/+O56qVY1fO/P8qMks3q5hvtUbnN4+MzW3aOHM6MvZlXe+LVuumqtu7sdsuB+u6PtA91d3f6/QOjx0c694QN/RiZVDWVNFTIuJr3gXxteyNqCKjulu/kV9DruT4qitPG5JxdiaG7bjvW9qdrWxrTXt2dnZ0w/CGi6qSD45WeVREPLxknpcR06VVJjtfNobIzKzOnGPv8tuy3PGcvDL8qFbOypFZepk5N71h4mRsiLkNsfe2zPxcZFwfmTfUWW6uq/pA91j3tjJR5m699dZurByTQSpth3fOzGxuj048tJR8ZInymKji/iVjU0RMl/btv8O3n2NvP1fezW/vM193+zH44in6i0cuM2K41Z6PVpyuIhYu2L3nVEY5HJn7spSbSub1kb3bspSDC93uwfn5+VvHxsYWzxwPE94vVfbu3Tu8tLR0XqfqPKRVlUdHxDdH5O5SymxEjJXOHT4j73Bc784pPjOydea9V0VEVK2oMpdzdOzY0O5y6Pzc86nMeF+vzo93T3b/+dZTtx6P9XEeu6e+MHY9OXVyZHR0dPtIu725ZG4uUe3KUs6LEnsjyp4oMVUixiJzLFtlrPrCxamVI/blH853HMfcraN65tivnFerEhFRlbj92M7HROvoBRv27Kvr8pEsvfeV+fr/XX+4ujFi30IM1rnwdlWsTkeytAqvca9dFDG8uHn3rvZQ+caoyuNL5OMjyp6oYvqO3yNZ56cbjHlPDW3atGl2eHj4AZ1oPbS0yiMi86GllK0RMV1aMbryGXWH/77ILOWLZ7g7fUeUO/y7LxtvrHyCtaJEWYx2mRufyZMXzOw5XmfcuPLZVF3fK3lDZNxaL9f757pzBycnJxdvuOGG2z+f+KJqb+wd6s50N1XD1YOqdnx9K6pHRuRDspRNJWI6vjCnK/f8M+oLX3qH419lVFkW2xOTh8+fmLw1Mj7Qq/NDywvLH20dbt2wb3DPY9wH93HKyzo3sm3btvOHq863Va3y1CjlURGxpfraK4vOjszIiOXM3B8RH6175R1ZL76nvq193b7Yd2d3VvW98/fsfUtVyvfcl9fIzAPd4/nAG4/feHS1cp1lI1NTUyPj1fhEa6R1Xruq90ZV7SlRLsyI86OUvSViMiJGI2KsfNnVmczML/+xc+mOv35GRNR5LCOvzoy/7Eb9V8vLy5/ev3+/2/xWVNs3bJ9pT7S/saqqJ1dVPLlEXnDHi25NH88vl5kREd2MmC+lzGVdHy9R9tV1XF+q+tpeXW4q0du3vJg3x1Ac7vV6C/v371+Is7w1z86Znbs6460rSinj9/IlSkQ8oirlwvuSo848EhF/c19eY9VlHDxy07GfOx7Hj63my+7ZtefftKryuLj3A++SGTd1b+r93IB+hnV2zcxsqUY3PLZV5beVKE+IUvZExJp6f2fmQkTMZ8Rcyby1jnJ1qevr6lJdV3r1vuVefdtSLh0YWxpbWDq+tHRr3LoUfTAp3rp16/hQDJ3f7pRvK6U8LUs8PCK2Vndxt9S5cmfH/sz5dT4iTkfmXJZya9R5Q12V6yLrG+pe7Kui2nd6+fSt3W53/ujRo/PRcEl1Lm3evHnDaHv0/q1WPDFKeXqUeFiJmPnCmOMsv5++/PUz83Rm3hKl+oe67r5jea7+h1uO3rI/1tExOaPs2rVrpDpZjSyOLE6PtNvnl6x2ZyvOr7JckFU5v8rcHaVsiIixuONF/zXiK8eu9aGM+KfI8hfd5fqvc39+fpA+p3Zt3fXoznDrJ+O+FWdL80uLP3nbbbcdXK1cd0OZnZ3dMD40dP9StR9fVeWppZRvjIhN5cxVzTs9t9b5zmtvuuHpsUYvZm3dunW83W5f1I7qm0qJJ1elPCpK2VxK+cKi8KbHC7nSQ8yViLmMOFXqvDarcm3p1df1qri+Ws5blrp5a92pjy4uLi5NHJlYuiFuOCd3Fe/avOuizmjrw1UpG+/L62Rd/+a1N934o/fipw7vnp2drUZHH1ZleUy0qm8rEfcvmTNRVcNfeP1zeAzPHK9DEfHprPMvu0v1X+07sO+asC0cZ6ytT2H6wrYN2zYPTQ09od0ql0bm46OULU1PZL9crjgcEe+rs75qbmHhXYcOHbotBuhK4YCX5K0LNm7csDA6OtmO2F1arfuXLPcvUS4sVVwQKxOK8ViZTHzJbaRND5Tuiduznpn8H8+ID0Yv3zDfW/rrczywXju2x9jesuNhVdV+dpR4ZlkpZkdLKX15bO/wA5ErZfjte/MezszPR5TPZZ3XRF1/ttctn+vOd4/feurWk7GKd8Ps2bbn69rD1fvOrNC41/rp9//uyswbevPx2BsO3nDbar7uebv3vqFVlRfcl9eo6/znY6dOfNPRo0ePr1aupu2a3DVTbai+uWqV55QSF5eIXaWUoYj++v7KlZP2QpSymJmnI+O2LHFLyfiX62664Wdjbd7NVm3fvn3XcNV5WqnKs0uJx8QdStR+lpkRmYtRysLKBY24ISI+X2denVF/bnmx/udWvXjgdMTJw4cPn4rBGQt+4ZhWrbgksjwyysoq0abfT19SrGZ2I/OWOuKdmfVbT8zNvX+Qzmt30N41OTnZGRubqLN1fhmqHlCiuigjLyylXBCZO0spYxExUu72rRhr15mx6+E6410R9RuOnzr17kE4rnt27vnuTrt62318mYXuQj7ohv03XL8amb6WzZs3bxiLzkXVUOuZUZWnlCgPu/08cHes0ZK8vW16286Ric7TSpTnRsSjSikb+/HzKjO7sTImWMyM41Hilsy4NSP+8oabbvjds/3rN1SSj+7ctHNXZ7h1cZZ4YlXKo0uJ7bFy7rsvMVZdRkRmHoo6/66X8fpT86f+/siRIyeazkWz1sSKEfrDli1bto4PjX53VPEDJfPrSynDX35L0lpSVdWmiHh21PH0DaNjV2/YuecNS6e7b7rl6C03NZ2Nr9DZtWvX3nYvLiyt6iER8fVR4oLhiAtLKdMRMVSqO6xw+xoTwH4aQN2e9czfpkrEt9dVXjzWGv7k3h27X31yYe6P1ssH9caNG6cmxyefVFXx4pLx+Dsb4Pfjsb3DD0RZ2cFl7MyfM6WU+0VEZIk6Wq2l0om59kjnpvM27vnA/E2LP7U/VvGugsz6vp6v++n3/+4refrs9GX3/UVL1KWUgSjzduzYsbvTaj2vKtX3loiHxpmJ0pmyOSL66/vrTNbRWLmANx0ldkTEN9aR3zA7O/tfDh8+vJZK8tbOLTsfPDRcvTBK+a4S5bwS0VrL47d7qpQSUcpwRAyXiKkzx+ObqoyIaC1VI9ViZPvgVCnXjbRGfvbmAzd/sNnE91m1Y9OOi4ZG2i+uSlwSpVxQSmndcelT0++nO/76pZR2lLKnynxJlNb3Tm+Y+PDk+PjrF7vdP+/zBQEje7dtO7+qOhdFlQ/L0npQibywRJzfKmUiIoZW3mtn+vABes9FfGHsOtsq8bzM6jumN0x8YHJk/JW9Vvz1vn39u7J8NT5388xtSGdRa+vWrXtG2kPfXlXlOaWUR0fEdNPv+1XQ3rN9+8Nanc73lYxnRym7v3wxVL8pK3dotTNzrKrKTEScHyWiV+fxiPjdZtOtqs7uzZv3VCNjT6lKPi2yPKaU2FQi2neYtzed8SuUiCilbMoqLm1HPGtyfOL9G0Y3/NqNN9/4zrCyfN1SknOXpqampmcnp783I38kSjy4imhHtbYXQNxxkFBV1VBEfH2W/KWRDe0fOG98z2vnjy7+3v65/QcajMgd7N68e0+7qv5vqWJvrBSJVbnDHon9XobfE1VVDWXmI6tWuXJ6w8QLRkZGXnHLLbd8IAZ0z9VdEaOdnXueGVX8mxL52FKq4dv3EI51crfTmRVlIyViJEqZ7WUOLW1casdau78D7qFt27ZtHq3aLyqt6qVRyoVfPtkduPN4xoGhw0Nndfuke2LPtj1fV3XiR6uI5525Pb1kZg5aWffVnPn2Gjpzt8JERFxQqvKbzaa6b3bN7NrZGW/9SES+uJSy6wvHtA+cOR6jpZQnRB3fMjY0/LK9O3b/6tItN/3ZrRGnm853T+3evvtRrXZ5W6ys0GyViKrccQ/+QTu/fQ2llJGIuLjVaT2myvyzrVu3/sL+/fv7aa/rvrA9to+1trUe1em0XhAln1ai7IiI1gB8q5XdW3c/uDNU/r8o5dkRMVOq/jm33R1fth1VRuZA9BC7JnfNVBPVN7Wr8vws8YQSsTWitEt1ZiHEF5/5tKa/SW//fKoin1S1ymPP37Xnrd3F/IWbDt70+aazce4pyflayvnbd39rdKpfyIhvKlE6a/z8dldKqar7l7r+r6OzI5fund55+Q033/yO6IP9Qwdd9nKhrKyubX/5h+ha/1A9G0opcWZS/6ThducbLti99xeuvemG/x1r8xb+e6vs2rrrUUOd6mejKk+JiOEvW3m27o77HRwZOTqylm57hXuqc96O3U8vreryUuJhMRiT+LuUJbqtaDU+qd++YcOmkenpH4mqvKxEbI87nFLX+bk16rpe1a2VzqHhPdt3Pa/Vbv2nUuKBpVRfKJD68ZhWVdXOzEdUrfJ7w7t2/+3euvrZG2654R+jj7bCKVFOn9n6z9g1vlAyjUXE94wPj3zz3t17//0NN93w1jjLz11ZDyYnJ2c2bph6alXFD5eqemwpZXRQbk3YvmH7puHpzsuqqrwsIrbd8cLfgL+P+uZcd2d2b958YdUZfk7Vql5YSnlwRLSrwTgPZillPKp4cWskvuX8Hbt/8rpbbvrLGNDFatw5JTl3anJycmZ2aurHS5R/W0qZajrParjD1hZVVcojs9V+2/m7dr92bmnxFw8cOLC/6XzrWVVVdax8KPXjh+nZVKpSZuusf+W83XseevjY0Z86efLk4aZD3VeTk5MzM5PTL6+q8mMRsTEc+y9RInproWiDe2PHxo27hzZMXl5FvrBUZfiuf8bgqDJO7It9TU6kWnt27Li4VbV/uVTlG51Xv1JVVX13AXLv1N7zqqn85ch4blWVoUEpkMqKoch8Rl3Fo/fu2PXLp5f3XXnwYJxqOtvdUUrphfHLVzjz+7GnFfk75+/c/eDrbr7plyPCQ+nvuTI7O7t9w9jY95QoP1CV8nWllGqA7rSsztu263GlU/1yKeUx62yhTEZEX16w3bN9zyNarXxxqarnRcT2QTtUd+iLSquU+9Ul33z+rj2vuG7fja+M9ffg6XVLSc6XKzs373zo0Ejr10opFw/aiS/iS05+I6WqXj4+MvrNe3bs+bc33nLjB6LPr+r2qxsP3Xjs/D175wfvu211VFXVyczvn52e2TI0NPTSw4cP39J0pnup2rtlx2PKSOe/VxHffIdBsEMP/a+1e/v2J7ZbnV8rJR4cMRj7qd8TWcrJaGi10cTExOzM5PTPVFX5kaqqNgzSberrWGvvzp3fXlX5P0uUB0SJgSjHv0IpUUVsKu3Wf9vQ2vOtI5vn/91NBw+u+Vvcewu9g63xVtcI5s6VUkajVf3H83ft3Xps7sRPDcJDPc+Ras+WPee1hvNFkfGiUqrz7/iWH4T3/+bYvGF85+iPVlX5mSgxHetx/p3ZV4VrRnzd+bv3vDkinllVrYmm85wrJWIsq/JL5+/eu3X5pt5/3hf9+7wF7r61vbE051p777Zdzx0aaf15VcrFMfgfWCUjsirlEe12+ePzdux+Ubhw1JReSbcx3ZWqxDMnx8ZfOzs7u6PpLPfC8J5de36gNdL5kyriW5oOs6ZlLu6LfYN+/mWwDJ+/a9dl7c7Qm6tW9eBYr6sr63oxGhg77dyy5aGbpqavarWqn6yqakPEYBQpq63O7NXdul+22Bvfu3P3T1VV6y1VVT0g1sd7qqqq6jnt0bE/2bVt1+Njjc9Tl9pL3dsvXPBVlVLFD01tmPifMzEz2XSYNa61c+fO+53//7N332GOXeX9wL/fc6/K9LbTNWUXY6rBtNCb6TXUkGAgCYEkQEgIEEiBlB9pJIFUEhJCKOmhkwRIgGB6LwZj3HdnpBlN2dGspqvc8/39Ia29Ni67e49GGs35PI8f22vvq3dH0r3nvPec90xN/XaYwmdI81smCI6izebjU0NTE11T6bebgL9Hw/56i8l2v7b9ENFsNDuHcyCSjyL548aYQ1MgB2pjKUMmSPxSmDG/CeBQ7ZA8rFp68OHtq9Ts5NQrTDJ4lzFmSodjMH7mqvIRhuZtM5NTrwPQ0eS0DiMJKjQ7iVZW/6zKkE/q6ez6kwEMHKA2SKNdM5np3wkN/4LkyGEdEJ818hSAA9cSwDucMsh0HJ2aeQNN8BZDDh22A+vOJKKAfe6/OzM5c0kq3fE+GnPJYf25n4NtG9q9ZidxR/r6+vqPZqbfYgzfdLogcRje29O9iAncM5kM/m16cvpZaOG5argbViUdpELXvjv9uTXkT/dN9bwRQLLJKbUijvWPzcxMTr0xZYJPkeaNNGYaaL+dI6Ojo7OJLvMeY4JLefqU28NJEbDe7CTOAetzt2bn0TQkE8bwVUcz0y9FC9+XPDf8G+wBQHp2IvObJjB/aMheoL1uyGfLkF3G8LdmM9NvhC+U7zcJ9P0K70B9hCJD/lj/ZO9rAQTNzumOjXfOZlJvMsSrawcNeWdBaLOVQ17bSocZ8wYSryOZBg7n+OE0We5rgXx6YvqxQYB/IHkh/DXjDhFQiqmW/jn19fUNDPb0/SkNX2qMOXS7G08vCCA5HgR8++zE1HPQoi3ZEiYRgcZvvb8D9d7zIPELs5PTP9XsfFrJ2NjY8Mzk1C919CT/NwjatzgOACMjI8c6U+l/AvAYtE9f9fNmrPximIMnDeK3ZiYnH9HsRLzG8kVyLzE7kXmjCcxrTk9wDzNjTJLEa45lpl8H33plP4nQZrOTOCBIMkCAX5qemH50s5O5A+FsJvEGEr9gjEk0OxnP85xKzE7NvMEYvpakXx0IALAF7FOxenJ08oFhgHeQnDnMq/fbycDAQN9gX/+f0fCFh3mV5Rmrj4cYmr8+Ojn9nGbndGu2wq0I0k6z8zggSDLNgL+ZGclc1OxkWkDH0cnp53Qkkh8NAvPHxpgLUS8at+O1PDOYmexKpd9J4CFAe/4Zz5EU6UAe3HnIyRhzxJjw93p6eoaanYzXOId2AOYBAMzs5PTLTBj8Mo3x/ZUASIIxJgnDX5mdnPoZHPKn3PtIoDnV7CQOEkP2mAB/kOnNDDY7l9tyNDPzIkP8Uq1A7g+RO1uUttGkw/8872zNTk7/lCFe4wvkNzHGlPbjdQYHBzPJZPB2GjPrC+TnpASLfXmPzkPHQHfvnxB4AckDsEtsfxhyiIZ/Ue9R3lI61jqqIPwCj3NAYCJMmd/B4d2xy8nh4Xsfm5p5LwO+1xjzIJIh0L6F4yEM9YRdwZ+RfCRPbyvwQB6+w80Pupva9OLBA30DL252Pl7j+JWyh9jMeObpDPim/WiBIN1YIKu1EZC2AKyD3BGweSt3SwOpB0CngAGSnagVrBt6cz0dmmQXA/OmycnJqxcWFi5r1Ot5Z7C2hKD1ntud8dk9K/s5+DPkfcNe8xJs4I/26zXP1vj4+H1h8Luk6az9ih8Uny2RW83OwfNuz/TExEMZ8Pf8DrSbCIC1dj9WlaZ7u3r+gMTFQPsWVhpkz1ZtKxbJw6NTM68G8dPYh8UZtxiTR5I2QJ4isA1wB9DNcrBAYIBeAD0A+lHrK93wMfmNuRJjidD8zczo6FPmlpdPNPL1zkUOOc1ipiVbJrTq2JW1LRJPmp2YetqJxex/7MdrtorpvukBduvnjeEv03D4XN+jA8r0Tnb+IqBnkMbfq04TtmD3Wv58DO/WkWRIvaK/v/8/Tp06NdfsfDz3fJH8kJoYnrjYhOYvTvcgb4T6zb8iYB3SlYC+D5nvlFW9whhz0uztbZ8ql0v9xeLu3C23J2dgJoo9nUEymUqk011RFZNIhPcgcR8j3R3EXVAbrIeNGtgZcjgZhG8bHxh/Un49P9+I1/BuJEuuuCyR1z9/FvXaBUhb74FnJUUkT0myANdBWEibIGuTZ6tTJKsAYKEyhGXcwRZ6AcYYjMFqXGQGUqb+cCdo1GeUpAH1itHR0f9YbqGJ48DAQF9HIvmHAMb36zXr73cEoCqpSvIUpAKAHZEbuL33T0iQ6BVASj0iUwA6CXSituOK9b8bAOYwb4P3vLHuseEgCN9qyOFmvP4Z1/ba9x3YBVCEcApACcTtHaRnCPQLMKe/66wV/5L1/2ZU+74HuLGec9aJRTCmeL5/rrN1dHzmUkI/DnDferpKilj7WUcCtgmsy2oTZBG83UOGSalftZXRCUi9IAMCA6hfW+s/8zOvr4etkMLZqalnEfo10jRsBXn9QMyyBZYgXWnJ70L2O6ryWtrS2h6wU1mu7BVQuLWHCMFEz0QHetCphLqS1eQxUvckcF8Y3E3SUZKdjVgBf/owTxOYu4vpPx4eHv7p1dXVVnmQXKHjw/fOuL7dNH6t/11ChcSGgCqEUyAkoUiiUh/frhO0ACjYbYkn7+j1SIYCxilNEJoSMEEy3eDdDGkGfE1fX98ni8XiQTq88HyFRyemH4UAbyLNA29ajdr+17rpiYlLaMxradiUmtOZcwMAEYRNQEWRWzeb9936b06B7IFgAPSTCFC7dwU4Y5yA87l3EeWyMft6hkkrusV4LqrPz4sCigB2AW4CutX3iFKngF4CAyCHCIQCEvs2RyNn+rt7f/bUqVO/sS+v5+0rXyQ/hMa6x4aT6cRfGGKqEdt0JVUg5SVcJpqPlaqlL+fz+WXg1re43uqMMgcsYvPMw3CuBXAZAGB0tGsyCicSHeYSgk+U9FCSQ64vipJkgLune5L/D+v4udvK33NCiqIyzuKMqjMGPGUB1frEfZdAQVJBQIHCJo0pSFqxwgasXbNCgYy2ojJXk2FU3oyiEklVKpU9kioUCmXUBlE44+/nI5HJ9Paw0jERJFKPNtATrDEPYm1HhPMbtyGn0mHyZwC80XXs88S+rp4XAXgsahO7hkwC6p+DkoB1Ad+n7FU2wpWgvcqWy/O7HR07lY3ibjGZrGJ1tYTbf8gRDA4OpgAglUolq9VkmIyqYZgIExGjI0EQ9EB2xBgeqe1swQiBQUGDBPpBjgDohZQAmQCQQJwHePZQrC7yDqagYyDxKyTvjwZ+v89U/67vQdoQeZ2srhV1tSyvQ6lyQzXJ1XQUldbL5VIymawuLy/f3r2aQ0NDaUk8/V3vCcvJcjVImoQdATkQMOi35CipIUYaBDBIYBDEsMhB1na4JVgbQ9/suy5bjXPvuEPTfSPHEOoNbPCBjpKqELYEHBdwJYEfRIp+UC3rOiRQsEW7V0qWyoVCoYTa/fi23PjzjqIek0rtpTokwnSmxVKnmBgy0BACDBLmCKlhKw6xtlp5EMIREkdQa+mTQO1nnjzve6mkXe621PU1M5K5J8A/oTFdrmPXVmGzJKvjAD4dCR/bLZtvrawcP4nbf99+yOLm4g42sVb/16sAfAwAZvpm+itd1dkUgyfL8HEA7kuyx+Xc4qbDPPHMznTnlwD8OVqjJZkgRWezUa5+HauitnioSqBigW0jrQsoCFwDtAnhFAyWEekUhFOiXUUFO1ZmtRpWK9VqtWyMsZVKZQ8AbvEdjHP9SY2Pj/ckgJnQhI+zho8HcD/X72WdQN53sLP7KcVi8Z8cx24ZaQDjA+PTqa7Eq2j4UpLdh2T1OABgpGtkNAgSbwbRv1+vWVv8hG0Bq5CugXQtwGuqka42qGZtOdyoJtfLpVKyfIt5360JBwcHk5LYn0ikI4kwJm2R7IbBAA1HaNgLa0cDckRUv2gGKDsIcBjQYP3edXqskEC9mC6pXC6XGzpeaDWn520AdiGtCjgO8gRlT0QwJxQpq8ru0k46vZs6FZX2EnuVQqGnDMzd1s8pMdPXl0IymYYN+9kZ3gXivUjdj8DF9blZuoEL1UCDS6eGpt6WXcsuNuI1vObxRfLDJ+wYSL2OxMNVOz3e2YVDUlnA92Sj9+xWKv+5vLw8j0YMYpeXtxdqRfNrAbxrcnjybsl0+HxIzwUx46oQeeOg3Nofn85Mf3I+N//PLuJ6t87QrACApD0BZQOULFCitAvwpKAlCMsEliJqmUDeRjxZRfWktbaQ2t2t7BXTlWUsnx70NGsgWsnlNgrARgHAFQD+bnp8/J5BkHgpqGeCHHY9eTSGzx0ZGfmrlZWVZVdxz9fEwESGhq9q1KBEUkVCDrCfUoRP70blryaWE8s55Hbv+Hffpmp9onlrjt/GrxsAyaGhoUQqlUpqV11BKhg1xowGBmOAHRODUQITgiYJjALoINmh2t9v9SBT1UaRa7f2387X7sZuoXsw/feW51+EIfEoQ94jTh6SViT8h1rorAdauxatbvuD187S1PjUQ0DzM41eqVOfTG1Lup7CZ6rCF8rb5W9EiWgt7irStbW1m618Xr3pH6+7jd8SZIDkZl9fqrOzMwyqQb9JmBEFOhJYjhliNJIdo+FgVMU1cXK7I6Yn/UqSM42IXf+ZnwLwzUj247ZS+dzG7u51xWJxAzHGcjf9vAvn8tsSo6OjydTeXjJIpZJVpoZNaEZg7IiRmRQ1CmIMwiSgCdZ2RaZR63Ocuq3Pp8Cd6GTUMt/3QQz2JtPBWwFMuYxbfy+3JH3J2ug9pVPVTy1tLa3e4W88D3PFuVMo4jsAvjMK/HlHJnN/wvykBZ5GYMjhWICGDCi9bvrI9GfnT85/y1HcOKzAtTMe5JUBlESWIG2TPAlhSdYuQVoWzbIV8iRPqqKVSlDZSO7sVMvFznIe+Tsq2DVaKZ/PlwCcBPDNceAvzOTkjyRN8HMQngiiz9V7yVqVMIzC8KcBfBBAy3wnHSIS0VPSycRLSd77jHaeTR//1MeZW5BOAbjBWv033M/XTVd/6uUk7osGP1CvF8YLEC4X8BlVoi/sbVWvXNpa2gQQp6VJtVAo7AHA+m2s6bsVidHR0eReKpVM7e0lU0wNm9AeoTEjsBwDMWqIUQFlFdQqO2Ia4vQ4DtKagKskfNMK37EVexWSWAhyuZ25O3x/bnfcUJ0rFk/P/ZawhqsAfARAYmhoargrHT04MMFzBDyGwJFGfPcIzAQdfDaAv3Qd22suXyQ/ZGbGMo8l8fOnd3q5iCnJSrha1v55qVj9QH4rf4fb+xwqL6wuXA7guxNHJt6Z6ky8AlYvomG/o/ikManA2jcODk5+tlBYyDmK691CVNWXYKKfl7QC6VS5gjVUUdjF7kYikYiWl5crqE0gbmcg1/Cd7uejNJ/PfxPAdyZHJt8dpoLfDoDHutzKSvJOHWHqSQDe7Srm+Up1Bi8icMz1LpVacVzfh/DOve3KR/Pr+QWc40o4xyyAvbW1tdMDvDUAt2zLRNQGzIlgJ0jbrnA0FVRHYcwoZCZo7TEYM0sqQ6EfZK+ALsQb1P+Q1Z3VpdUd/GqMEObo1MzfgIhVJAcwfzw794sxYzTCoVnZFVNnkDCvM+Rgow6LVM2irD4Bq/fZHfO1+eL8KTT3PYpywC6Kxd1isQjUiki3LKgb1MbUDStyjY3N3I3Ejzdg958grYr4cKlafbdZNN+J+dDRhUr9nr9d//dbewAcZpBJ7AzuJHoSPYMMOQobjcFwFNQMiKMEZww0IrIHQA+JShLJllm91zPZ9XIAl8BhEclKVUpfVqQ/3lvMfjq/jwXIZWAbudxnAXxxZmLiAQwSrzHEU1h7gBGbJNFwLOjEbwN4HmqtlppK5er7lQi/baNoLQpQYKWyxigqbEtbyWQyyufzVQAV3O41rPXGrnlgB7Uzmb6UGctckkia34Fwf2cPSEkY6IFHx8buf3xp6XNOYraWlDHBW1lr5bVvrbFuTf2+ugkyB+m71uqrEr8X7UVXs5NruYVcCY6L5FOjo3enodN6wy1JKkO62grvk+V/RYtzV+Waf004m3tXUP+rvG9Z7ZP6A4uTVrpaVp8B9eVoZ+d7QaGwdscFcWcqa2vZxTXgAwA+Oj0+fVEQ6OdB/hiN6XP5QiRB6gWjGP2HZSxv3/Hv8A4KXyQ/RHp6eoZMMvhdAN2uYkraiWTfWdqsvGXp1FIzDy7Q4snFawC8ZiaT+YSxwe+RuNjFZLJeDLiwp9O8slDA6x3k6t2K7HL2CtRWXreraGFl4Su9vb3PH+rp+1UE5pWuDr0jGQaGzwTwL2jioGu0a3SEhj/pelAsqyUr/elupfTu5eXlFVdx94EAlJeXl8sAtutb1a88478b1AbKifHx8SNpG4xFgRmxVduIa2mcIqMFnRUpfUH6gJoZm3mikR4H0vlquFqdVsuQ3rMXVd+Vz+evQ3NXVZ4riwZfeztDvQjkqMuY1tqywP+qVuwf5pZy38bB+plXc8hVUcBuAYUNACfO+G+n+8UG3d3dvQNdA6MmtCNAmK7vNmu6ieGJixmYX3a5K0PWrkj4k2iz+Pfzze31XJ1bXPxyBpkXhpPmBTT4TWNMJm7Q0zs8ATxhZizzpLml3AfjpxrP3PLCZTjdDrI9lXNLuU8MDg5e0dvZ9QfGmJ9wtciDZJcNk88A8Hm02digfqJt8vS/7vfrS6oCWJS1V1jhk1L0tVNbW1dtbGxs4Mzr/Dlt8DlrJkimX0XDkUYEl7WRgO9B9i93T1X/c2lr6SQO1ucnQnMX+ThVXzG+Kuk7ED9SVvULXFi4Nlcrijf7fanM5+e/BeDls+NT7zeh/SOQ93I1hq3XiO6VmkhdjEV80UVMrzX4IvkhMtjb/7OEu21PkvI2sr86t5D9V+B2D27aT9W5XO7jY2NjV6bD5F8ZgyfHnYCcvpAGxvzU+ND4u/Jr+avcpOodRhsbG4WNjY03zk5kKgzMa40xyTv+XXdMxIOHh6emVlez17uIdz7SvYnHgLzA1SpTSRDwxWrFviq7lP2GixxbzOnDuSr5fH4eP7wS3fNaRScTeAWNSbkObK2tAPjvaLfypvmT+e+gNXoNt5Tx8e4jIH/U8e6cdcj+5olc7h/Qfu0OTvd/rm5tba1ubW01pNVIDIlUKvx1Ak4Ov63vBvheWfaVuVyuZQqOOeR2sYB3ZEYzlydSfKch7+kgLA2ZRMK8bhCDn6o/IPEarFAo5FgovLw3M21h8AJ3rS3xpD70/b8iiqdcxDvM6vfS6wl+sRLZj5a3y99dLi7nsM8PPyeHJy8i8SzXcU+3BBP4tq21nbet7qwuuX4N7+xJKgH4rrV6f1TRf2eXs9eidVfHV0/ks/87NjZ2dUeQeDsC83gX17B6f/mUCfhMwBfJ28n+nP7qNd3o6OisMXwZ6+LGk7XXVir2eScWsu9F6xTIb7S0tDRX3bA/aYUP1bf+uDCc7ky+wlEs73ArnVjM/Takv7XWOllNQHKwM4GHu4h1vimYMHiBs2tMzUeiHT23TQvknndgTE9MP9gQD3Z96JisLcrijcez88+fP5n/FnyB/FYlg/6Hg7jA1c/fSvlK1f7U8Vzur9B+BfKWlxnLPIaGT3F0r7SSLqvs7T4rl8t9Di1SID9Tbjn3tcpu9Ewb2S+6uoSQfED3ZPfTnQTzzsoasLmRm/8FSR9x9j4CR3vHe108PDl0JMlaW5W1V9nI/m0U4cmlU+sPuyE795LsYvajy8XlE2jC7qBkR/hiQw64jFl/EHhNtaofO56de6MvkO+/+rwskrUnbBS9o1yOnrA5v3PJidz8H2WXs99H6xbIb7S0tDS3V1x/Iaw+5mo8VZ/0PnoIQz0u4nmtwRfJD4l0mHyFMcbJwUDW6gdRxOdl89nPu4jXKLmNXKFajH7W1gZzsSfeJAnh2VPDw3dykZ936FUKmxu/JeBLLoKRDGj4SNS2mO+7sbGxaQL3dTHokARY+3+lU+s/M39yPu8iP8/zzlsQBnwxyQ6XW1StlFekF55YmH8zmt9HtMWZJ5BMxP3519vaFFSxL8suZj/qKjvvnHQmQvNqAJ1xA0myAv57r1r5sezqatN2kZ2N3GruuvLezk9L+q6LeCRNYPgy1M7x8PbJGrC5s1F6taSrXcSjMSkTmke4iHUY1O+dFVkdt7Lvqlb15JPFUw89npv/+fnF+U8tbm46Pfj9XI32jc4CeI7LB+r14uxlUZlPml+c/5SruN65sdIVtmov3dzbffDxXPZnc0u5z64i3kHqzZDf2jpZ2tl6mYTvuIpJ4q6Jsc67uIrnNZ8vkh8Ck0cm7xwE5tK4NyxJsNL1UVUvnFuc+7ar/Bopt5ErVLe3Xinp6w7+/KLBaJDqeL6r/LzDrVgsrkdV/Ya1dtNFPBr+yODgYFMmjCHD+4IYdVLEAa7f2am8stmDfc/zgJmxmQsFPcFlTAF5W45efHwx+58u47ajgYGBvsDwIY7CVa3Vm0/ksx9xFM87RzPjmSeQeETc5031wtHnt/d2X5rP5086Sq+hFk6evLZso5+zUs5FDY3EA6ZHJx7tIDXvHCwXl09Y8f+p1t4jNkqPhq9J3K76Ct4VK3zI2uinNna3H3oim/2ZbD77yY2NjcZ0Fj8P6d70swiMu3ygDuDT5e3oRXPLc8ddxPTOD8HPnljM/vvq6sFfxb9QKOSsxaut5OrsjnQ64GMcxfJagL8hHQJhR/hzAMbi3LDqq49ORlH1l+bz8990mF7D5QqFhSjCayTFmkTUu0gYGv74RM/EkKv8vMMtm89+0QofjhtHkihNdoQds/GzOndhGDgZHEgq26r93aXC0g9cxPM8Lx6Fepoxxtk9T1anVLEvn1vKfcJVzHbW29FxTMCsi1gWuOxErvQ2F7G889LB0LzURW9/CVdV9nZfsrKysuwisf2ysLDwFUX6f6gd6hZXGCYTP40m7aA7zPZyex+xDnrwSpIh7ny0a8RJf/52Un8QtimrLyOyb9iplB99Ijv3vLlc7l9OnjzZgrssR7sM9Fw4Oqi0Xnv42u5m+WcWCgs5FzG980eoreqGcwtzn5XwLy52PZA0IB4GIOEgNa8FtNWH3fthmcHMZAA928ET3Qqt3jK/sPAxJ4nts/nF+S9KeJuDtiuCdEHYS79yxXPFmkjvkBSr3QBJguwJEsGFrhI7B0lCF8UNUl9F/tWdxb33u0jK87zYOo3hc10FU61/6h+fyPsV5GfLMriIDlpzWGmXFftHwPK2i7y8czc5OvkgQ8ZuLWGlDavo1bnV1etc5LXfTizM/yOE2D1ha+MePHJ8aPzOrnLzzs4ylrdh9S5JsXpe18euo1FvOuMqt4NOkq3ttrB/r4p99qntzSfesJD9w6WlpSvRhB7jZ2tiInVvAPdydr60sGRL0avy63l/qL3XCNqrlP5a0oqLYCTuPTo66rQXv9c8vkje5hKd5pkgXfQiv6y4sPM2tOCBQGdr71T5ryVdGTMMjTHJ0ITPBBC6yMvzjuez35D0vbhxSBpD3M1FTudipGtkAMC0g4dx1SjSOw9ijzvPa0eZscw9DHB3V/1FBXy+uLD9V/AHdJ61gLwryfgrZaWvHM9nP+sgJe/8BIlE8CKSsVqi1Q6ww9/N5XKfdJVYE+ypHL1ZQKw2EfXr0kAqnfhRR3l552CrtPtJSQtx45BMM+Ch7+crqWytvi0bva4cVS85ns2+7Hg++8lCobDR7NzORirQM0h2ODqbKLLSn86tLHzVRW6ed2uWlpauFOI/sAUAkkdSQeAf2LYJXyRvY6Oj6BLwvLiTK1lbtKXqG9ew5qRvcrMsbS2tVq3e5uTmDTxycnByzEVengdgV4KTXRqsFcn3detxoj/RS3IkbhxJebtnP+0iJ8/z4gsCPpVkp4v+opK2oxJ+r4CDMeFvESGBY3GDSAKEfwFQdpCTdx6Gh4dnjWHs3v6Srt5c234rgMhBWk1zfDn3dQgfijMmP6MN4uMBpB2m552FkydPrgj8gpNgsnd1EucAkrSjyH6qGukFFUWPPZ7LvWVhYeFaHKDv+BCGegQ+qv6ddHDANC4vnar8Aw7w4jzvgKjY90hycb5CKjDhfRzE8VqAL5K3sZQm7k3i4rhxLPCBE8sLX3OQUtOVq+UPAoi9PZXEmOkyD3OQkucBACR+zkouChhHsc/XdkacQMw+bLXFcfzuQmFh0VFanufFkyTxWFfBrPTJ+ZX5z7uKd0iEMpx0EGezrOjrDuJ456kr2fEYAuNxYkiKbKQ/OrnTiv2Iz5kqlejvJMVu/0PofqOjU3dykZR3TiJY+3lJ8Yu55KEqkkuSrN2KrD5QrVaefkNu/qnzC/Pvy+VyLXMI57lITaQuIODqPazC6s/yWwfjQGLvYCuWct8BcE3cOCSNpIvh66ttwb+J7YtBKvEMY0x3nCBWWq/sRX+BNnmSu7y8vGKt/jluHJJBCPMY+O+Q50hU2LwGQKwBYW1FFkcHMdjhKK2zYgIzhfjfBdHab8K3YfC8lpDJZKaNMU7aN0naUTn6S/iVzOdkdHQ0oBC/SC7ld3Z2TsTPyDtPKRo8HzE3ZMjay08tbnzIUU5Nl1vKfRtA/JXIZE86idi93r1zZ0vVbyDmIay1wzs5iUMwp6oXx4uyel81qj7xRHbuefOLi58GUGp2bnEkGTwibiupG0lXFrbozy3x9sX6OoqyctOKrvawz+9qagNtfzM6rPr6+vogPSVuHEofWlhdiN0ruZVUy/aDktbjR9Ij+vr6euPH8Twgt1tYFRCrt2Ntj6M6E32JIVd5ndXryvYh/mn2isC2utZ43kFmYB5I0skhRJK+OrfML7uIdZjs7OykyfgTLgtm19fXfZubJpmcnLwLgYvjtBaRZC3MO4sonnKYWrNVbdX+o4MDPA1lLoE/K2jfVfYwF7e3fP0A1r4BDPS4yqvV1GrjdlPSRyvVylOP5+YvnV9c/CIOUEuV2xEyMA8mGbuuJMlG4HuKxblTDvLyvLMimv+WFHuRliHvNDo6GmuBqtcafJG8TfWnu+9Dw6NxBp5W2qlU9W602crO3EruagjfihNDkkhm+rv69/2QRK9tRRCudhAnHabCfZ1o0JgjcFEkr0Q5F/l4nhefIR7j6gAuWfwbkNt1kddh0tHR0aeYraxqNB8/hne+EgweSWP64vTqlTBX3al+1GVerSAq7XxWUux7P4n7dXeP9ztIyTsH+S27C4v41xepOzgSdDpIqaVIgrV2S9KHAT37eHb+edl8/gsAqs3OzZW+vukeAPd3EkxaRXmvbXbLeAdDebv8fQFLceOI6EoyOe0iJ6+5fJG8PRGhuYRkR5wBOYFvlfPZWMXkFlW21sbaxlU/l6QTBvd1lZR36EUCbogdhUzTsD9+OufAuLmVGJoDfTiw57WLIQz1ELy3kwM7gZW97fL/uMjrsEkjHfvpIwAQ3EKbtM07gAwNnxY3iICPLRQWYu02a0W5QmEBwlfixKgtXMFof39wd1d5eWdreRdQ/M8l2dPBjrYpktcOn9S2pI9XI116vDr/guPZ7CdxwNuq3Jq+LtyNwJibh+r46tzy8gkHaXneWcuv5xchnIgbh0AHTPzD1r3m80Xy9pQ0hrEP26pafWQZiH2gTiuqUl+2UuyCnKEehvgraD3vtNiHcQkIgiA4qFuO/XfJ81pAOBoeATQTN069UPCVpVNLbVfc87yzMTo6Ok3hopitVvaiqv0o2vRBhyU/Hqe+Vms1h04Dc2+HaXlnx5LxztMBAElhpChwkVCLiKzVm49nK8/JLmY/ijx2mp1QozDQvQF0xX2oLgmR8H606XXOa2lVSN+IG4RkGJBHXSTkNZcvkrehiYmJGZAXxIkha4u01U+7yqnVbG9vXw0hfmsH4V6jGG2blQ9ec9nIrsftiWbIEESfq5w8zzt80on0XUn2If5kNYLwGbTR1nLPOxfJIHkRiLFYrVaAG7RdjD2Bb1WRom9AOBUrCAkD/QiAdiq0HgiR5WrcVcSG7EkkE24OfmwNEngdkG/b4nidMTB3d7DpDJJO7pZ3/dklXlNEgpt7rOEUfI31wPNvYBsKGd6LwJE4MSx5TXlRLvojt6T19fVtIV5fcgCA4Uh4JJxwkJLnwRhTRpudAXAuGHC02Tl4ngcIuh9qY8R4K8OAvWrZXuYkKe+8CXJxboR3HgLDR8cpIJ3ejZHb2Ih1OGIry+VyN4hYjBuH5EUzTnr4e+fEYA9+9e9hlYB0HxeBJF27urp6wkUszztnwvVWKscNQ+Ao/MPaA88XydtQSDw07oCcwmfz7f30uyprvxG3fRqBI0Ey8Ac0eIdbZNcRf4JEQhe6SMfzvHgMeVc4GCNSum67su0PjTxP5Z3yJoBK3DgE7gQ/aWuGJIkHx4xRpcVlLpJpYbsSvhMngCQRGN/rGx1zlJPneXdgpGukH47aS5Dm8/C7zrwm2d3aXZZ0Kn4kTc748daB54vk7ScB4iExY1Rg9TUn2bQwa/F9AHtxYpAEDO7mKCXPO5BkuAEHRXITmosdpON5XgyjGO0icDTu9mnVekf9YH19vegotUMn6oh2FbNoUDvUkJmJiYlxV3l5Z2dsbGy8vqrs/EnbpVL1q45SalVW1n49TgCSBNmT6En4hSuet08S3YlZEL1x40hCFOnzLnLyvPMRboR5A6zHiSFJIIfWe3t9K94DzhfJ28xY/9gEyKmYveG2KmX7bWdJtaiyLV8nxD9IhcBFLvLxvAPLVlcQs0hOkpQeNNPX1+8mKc/zzssoukDEPrQTACh800WcwyoMQwsgVpuNei/ssUDBfd1k5Z2tQMGdQA7HiSHhupJKsQ/1bnUCr7VSFCsI2WFgphyl5HneHQjCYIpA7F7yAgqVUuU6Fzl53vnII79nwViHzNfHWx3die5Y932v+XyRvM0kOhJTAEZiHRAkze/a3WWHabWkSqWyJmApbhxD+BYR3qEmGyzDTT/Ku7Cz54EO4nied56SSI4Q6HcQKqpUbdvvSmukfD5fhYNxCkkTJszz4fuS76tEKvEAxPiZ13cBXL22trbpMK2WZCt2nsBGnBgEYIALHKXked4dMMTRODWHGwnL+bV81kFKnne+RNnrHcRJmtD0OYjjNZEvkrcZGt6NZLw+SMJVa2tr7dyPHABQKBT2IByPE6O+rWZ4CEM9rvLyvIOmvFs+KSD+JJ5MMTQvA5COn5XneeclwDE4OPzOSqcquxU/6Y2nCsHVz/BxmdHMAxzF8s4CZS+OG8NKlztIpeUVd4uLLnZ3grwz/PzW8/aDoaGTh1ICbgCw6yKW550nCcw5iJMOiEEHcbwm8oOINmMMYp0wLQCWvBpAvC2PB0OZwGKcAPWn5/3pwbR/YugdWiYyW5BW4saptRTlE6Ynp5/jIi/P885dYDgDIIwbx5D5sinHahXiwVrgBGIeMg4ABAYSSfPbGI2/Nd47Kx0Ap2OuslS1ar/nLKMWtrm5uSUgflsZYhZ+x4Tn7QcKOOYikIgr4GZHquedN1kbu0hOIGENfV3ogPNF8jZDxDxEUqoisifcZNP6JC3EviNLPUEyin1oiecdVIubi6cYs4/baSTTgcHvThyZiPXAz/O88zZBB+NDSSf9oZ0ORPZ6G/PwTqB+0Djw2Jlw6nUA4u049O7Q8PBwH6DJODEElCJGsXY8HiCWUqxdE5JkpGEAKUc5eZ5320IjxLrGAbVDOyn7A/giuddkDHiyduZ8jBgkjDHdrnLymsMXydvIAAb6AI7GDBNZ4fAcnCEtIeZBQSR7rEJ/MfQOs0jS92MeGHwjkjOpjvBfZkZmHgy/Iszz9hNBjMJBi1FILno7HnrVqr0SLtpQADDGJILAvG42k/mNcaDTRUzv1gVB5wDJkTgxCKwmKonD8qApEk2s85BIUmTHkc4jfhWf5zXYSNdIv6DY818BlajqYBeJ58VUKdstSJXYgYgxB+l4TeSL5G2ke7j7CIi4p+lWyrbsoh/TgSCaVcRsLUOSNBx3lJLnHUiR8AWH4WSMuatJ4yNHJ6de1dPTMwRfLPe8/ZAE4OR+ZoUbXMQ57HYqO3MQnOzUAWq7dYwxv9kxNfPe2eHJe8NBax3vh6UCHEXM3v4CC7snd9v+0M46qyiKVSSv60x2JP3uTs9rsCAdDICM/bCVwE5UjWK3bPS8uAITFEWW4sYxsr3w89YDzRfJ2whD9gHojxND0hq2sO0mo9Ynq2UAsbbVAABC4w9o8A41lfUtAE76D5/u4WrIYQbmT4b7B/93dnL6JZODkxn4NgGe1zDDGE6AHHISjOaEkziH3Pr6+qaVvuYyJmkMDZ/NjvCTR6em3jo9Pn2/8fFxv7LcIVHHEHeeJXtqFauHZkxuyJNxYxDoMAnji+Se12AmMP10sSNJ2GUU/7vveXFFlWiDQDl2IGP642fjNZMvkrcRURlDxlwRxEIlVdlzk1Hri6rRJhwUyYNaD0TPO7Syq9l5WXt5A0KThvc1Af861R3+37HM9J/MTE4+enx8/Aj8U3rPc6o6UA0IDMSNIwk2in8AkgcAsAI+KSl2X/Iz3Pgg0pjglWGCn0yHiX+Zycy8eGRk+hh8T+fYDDmLuPcoYQWHqE9vBKzH7QcrIEEy7Sonz/NunQlMD4DY3zUR2wsF6w/59prPYheKfwaMpB74OeqB5rdYtpHQmKn4UbRRKBTiP0E7IBRqHQ6K5AL8SnLvrIyPj3diE53oQWeK7LAKuyg7ijCYCKiHAjyoDy8rAj8s6RK66Gdcd3pVOWsPAO8sg1cFCH82bXD17NTMl6LI/m9oK5cfX1paAhB7i5znHWapSirJmDvSAEDAro3sYeml3HDRTvTZoCtYIplpRHySAwB+NCCe3JXmytGp6a8T/N+9qPLl7e3tE8Vi8VQjXredGWCcMW+GIldd5XMQyKoiQxvn4GBDJowxPS7z8sDh4eEuY0wnyY4U2WEU9FQNx0iOGeDh8AWhQ8dIPXGvcQAAaRXIu3wI7HnnZRe7Gyn2xK6DuRhHe83li+TthJiJG0LSNoD4BxYcEHt7xqa7UI07tCPgDwnyOru7uzu7urp6kkCnCcMeWjMqg3EAY4YcBzAmwwEzoD6BPSD6QqAbCAwAonZa3kEtkkMV/hdS+A0AcQ8Qvk318XgniftIutiE5uekZH52avoKA36uUrVfUKDjuVxuCTHPG/C8w4YpDkFKODi4c9vIHJo2EY22UFhYmO2Y+l9RP+2kKHEr6mETBCZBTkp6WioIt9N9/dcM9PZ/VcL/VfYqVyyeXFwADk9bvvOUsNBAEHNwSRyuw+wIFlibg8San1pZP789S8MY7jajpjOZTPYkgI5qxD4QYwExLmAc5KghRgUMQOoT0GvAXhBdiVph/PS41RfJD5nIYMzRF81N61PPi6mzs7MC0H8WPV8kbydWGjGxq73mFA5RYSlZrpbVZU4R7I8TR7Hb3HgtLNnd3d3b2dnZ25lI9BhjeiKZEdhojMZMEpgAMSFgwJBdAnopdIPoZXgbq8LJtpxNzC3PnZjJTH8kDPiz+/F69WJRSHIKwBSAJ4Uhy4BZODo9fS1hvlSpRF9SVcdzq7lFADv7kZfnHVTGmJTcVGH3FOnQtG7bB4ps9d0mSD4PQNd+vCDJgGQvgPsHxP0lvdx0Jk4em5o+IeFbEL5oVb2iLGXz+fwaDlFbkDsyjOEUSRc7DHcdxDgwSFbh4HNEcsxBOgddx+joaE8ikegNrO021vTKcAzEuIiJgGYCwLiIfkpdIvskdYUhb3V1cH1L377/IbzWZYxxc46FUIS/f3gtIMgF0rS2487SCQzBPzg80Hxhr40YclhSrPktGb8P00FCUGD8J4YBMO4iH6/hblzxMg4kw6Gp/kqi0p8Kgl6SfYowaIhJBcEYhQwMxutbprohdQnoAtkdGgLBzS+fp797PP0qh5Oisv2rIM3nOCoQnDNjTFLSLGmOAnh8ImGkBNaOTU3nRX4rsvpmaHHlHqrZxcXFLGqr1iL4AbrnITQYIpCIHUja2ixs+tXGDmXz+S8dm5r5H0HPbNRq8ttTv78Ngxwm8ABJPxcgsZMG8kenpq+3Vl+DNd8UyvOVTcznt/JF1K6th25V1l5PItUlDcYtKlodrpXkqMLJ0dxsv4Urp8euZmhoKJ1Wus90mT5GUV/IRL+gIQtNkhw15FRtBTh6KXSJ6KYJugh03trn8XTx2xfBvXNlHD2MsqRfSe61hDnMaRYz63FiSBLIblc5ec3RboOIwywpotfEmDhJAqwO1aoVV0Q6GNZ7jiWGh4dTxpjhdBjOCMEUoQtMYI4KmDXAGICOBFKdqB0808ngh78+Nz54uoPV380oWrSi3Eru+7OTU+82gXl1s34kZ74X9cLOEZBHCFxkAv6kjKI0EutHp2dWKFxlpcthdVXV6ESpVJo3xmwuLy+XgMP10NDzrDFB4OIxH1lNIum/P25FpXL1j5Kp8FFsgXNQTre+gnSMxtzJGDxeEoTkZjigwtGB6eOy+j7J70QWJ6JyNLdrd5cLhUIJQBlt/GDySEc1JMLe2IHYvj+jWxWgSH/fTQ4ODqbT6fRYiHCahtOELiBxFMBs/SFVB4AOhCZNoIM0N+vTR9THrnEmhZ53ByiFTlYFWdvW9wPvcCFJyX+cDzpfJG8ToxhN1AdNcUjkSScJed7+S42MjPQnk8m7hDIXk7gPyHuRyADoBtDJM7qfnO2uC1/8Pme2urv91kRXz6MB3acVf3ysPdQ6Uiue4+4B+CwZKQFsJjo6NyTMz05NXw7hB9biyspu5dqyKa+vra1tw6928dpYQAzCxdhQ2l7Fql9J7tjC8sJXZzPTf2GpNxpjWuLh/C0eSoJAj4BuQ87A4FGSEBrshWG4lUTPUn9Xz9U20uUkripX9q4OSunsfHF+G7XCeVsoJxKJFNkVd3enjezhmmkLuyJt640aGieDTAeHdgfQ2XmPQLxp7Fo726WbQBp+7Oq1IkMnu6gJrriI43me54ovkreJ3d5EqlPqirtVTtLU9MT0Q621LTH5ajQa9iP+wwWvedLj4+OzKZN4OAwfSeKBBMZJ3tiz9bYmFH4C0Ti5QmFhOp1+XRCE/0SyYYd4ulRfcd4LoBdEBuBDIMEY7ATdiVNpJK7p7ej6LoSvVyr2chvaxcXFxQL86hevjZBMwsnSMPoWRg1SzG3+WX+m576Snt6qt7FbFs4BpCWlDHkExD0Dw2dbqZwyHTtKae5Y78wVEr5dVvVbJK/J5XInAZSa9geIiRUOIICJO84wwGRmLPMIV3m1OhnNQAjjzmVqK1xb1/DwcHcSyTslkuZRxphHAF33BzlMwxvnI37s6rU6CbGPQgMAkofmLDSv5Yn+/CoPvkjeNjptNSBTsQvbgeFPwOC5TpoCHgQkIKWanYZ3bqaGhiaY7rokMHg2gYeAHLytHpR+QtEc84uLn56dnHqdoD+vP4w6eGrXh4764UQTAB4lqZI0wTYYXHtsavobVYv/s2X7ndxqLosDXNTxPJfIw3MA+H5bx3oxVU39YkeYHILBQw7KPe6WeRoyCSJZPzj93pB+IoWwBCA/m5n5Dq39YtXicxu7G9cXi8VYPUL3mxh21uba8QSh+f3gMO1eIuliTC7DHhfpOGZmRkdnTCL1FABPp+H9AfTWdrax1sf2DAfle+0dZordnU0A7CE7oNhraRZSIfaiUyA5hKHONaxtOsrL22e+SN4mmGAHaqsgzz9GbUCWgItDuw4SJ+NQ+eJY43FiYuLCZBC80IDPAXknAGFtTuWbf7UgnVjI/tPM1EwQSG8B0H8QJ323zJlkAkQ/gAcIuH8Y4KXqCFaPTk1fDvE/ZSufPrG4eANqB4J63sFCpICbtbc9LwKWHGTj3YalpaW5qeHhn0ykOt4tg4cexGvrLbHWD60DwDFjdAzGPCOUdoaS/VcN9PR9oVq1H97c3fzuQSiYGxMlARP7PSF5+BZxuPgoC630GTHT4+MXB2H40wSfDjJT/6zfbOzaDt9h73AhHBzcKUWSfCHRax2MPQQGgUSiO5HGFvxn+4DyRfJ2kQbgZIu0dz4E5pudQzsbHxifTnclXg7DF7F24ObN5hN+ctGy7Fx27t2zExNrCMI/Ccg7Nzshl+qfu4DAuIAxGj7BMjx5dGr6m4T+Y29r61OL6+vZZufpeWdLwICLs94k/5Co0bKrq9dnBgd/PNHZ/RZRzzLGtM0Ch/pH0JDslnT/IDD3M8TLBhN9P+jv6f3fqFp5f25p6XK0aB9zE5hhOHjY5J0fa21LnK80NjZ2t85E6pdBPBvAQP1AN18Y99oCiUTccxeAQ7N33fO8A8QXyT3PBWtbadVK2xjGcHdHpuOnAuK1JGf8fOJA0onFxY+OjIxc0ZVK/y7JZwJItdHkkMBNk12SR0g+UdITU909C0e7uz8WRdG75xcXvwnfjsXzPIdyhcICCoWfmsnMfA7SrxLItNG1FcCNBXPSmBSBiw1wsTHmFUenpr+hSO/aLZY/vry9vArfA98DIAnGaKOZOYx3jx9JDiRfaYiXARj2izq8duU/z57ntSO/yqFNhNVqQpI/gLJ5fJHcLU5MTNyne6rjA6HhXxhjfIH8gFtZWbnheHb+J6NK9HxJX7XWltuxTc4ZxXIYYyZJ89IwTHzy6NTMB6cmpp42jOHuZufoeV5b2ZvLzf11ZTe6RMA7JK2347X1TAQ6jTGPNKF5V+dg6rMzkzO/Njo6Ogs/rzn0BJRlTbO2uAczk5OXpAaTHwsMf9OQw37s6nme53kHix9MtgkTdCZJ+iJ5k1hgsdk5tJHk7MTEi1Jh4qPGmMc3OxnPqcpcPvehU1ubTyT485K+KmmnnQs69QlyhzF8cjLg+7qmOz80OzH19Eyt967neZ4TudXcdcfn515WttETZfUeSSuS2vLQxzNXLxpj7hoE+L3OZPr/ZjPTvzE4OJiBbz94eEnliip7TXjlrqOZzC8HQfj+gHwA2nhc43me53ntzBfJPc8BG9ntZufQJjpmJqd+3YSJtxkyA7T3Vj4rVSVtSypIWqwXNdp+YrW+vl68ITv3ruL21hMii0shfEjWLrd7QUdkMiAfa0Lzb4nM9LsmhyfvDV/M8TzPHZvL5b52PDf/krKNHmut3mytfiBrS+14bzljfCBjeNQY/k5fd8//zE5MvQgY72xqcl5zkHssc2s/X7Kvr2/gaGbqT0Hz+yQHamm09di1ImnLSmuSFg7D7hXP8zzv8PA9yT3PActgudk5tIGO2cz0G1jrP550cRhMs1gpIrADaQfALsBdERuQliAsW2kJNCu0dtUabbCi9arlWpAOHh4Qf4dDcm0uFAobhULhwwA+Pjs8eVckgyfS6BkA7k6y56C+/7fljFYsHTB4XjIdPOToxMwfVkz0rlwut9vs/DzPaxtRLpf7HoArhoeH/6I72fFwUM+VwYMJjJNsq7PSbraynLy7QvP22ank46p7w7+dW129rpm5efuuZHbMvhXJ+/r6+gf7+v+MwAtIHujFZ1aqQNoluCNih8CeBQoQVgAtQ1iGtGTBtcCqWJFOVVFdSSdSLzXEr8E/9Pc8z/PawKEoxHheI8naUpLRTrPzOOASM5NTryfxWmNMEmjNVTiSIgHbBDYBbEPYtsQWpZyEJQBLFPKW9qSM2VC5dCoKgo3dxd2NdazvoHawmK3//YdW3cxkZi46pFOM0onVhcsBXD6M4bd1TiQuAoMnGGMeR+KuJAebnWADiOQUQvxpwpp79/X1vb5YLJ5qdlKe57UVra6uLq0C7wPwoanhqZkggYfB4KmGvL+AjDGmbeYCZzyITBvo+cl0x72mxqdekc1nP9/s3Lx9IlWKu8V9abcyitGujt7UWwlc2soFcmtthcCOgE2S2wS2rLRJMCdgyQJ5KMoTKJSt3UhYeyoqlzd2C9xYw9oe7mjsOjWzryv3Pc/zPK+R2mZg7HlNtKcoKjc7iYNsZjzz3CAwryOZbMbr19t8bArYJLhlZTchFAksglyKpKyxWqHRUhSZLVV3i2VjNpeXl7cA7OJWJg3e+VnF6hYW8WUAXwbw5qnRqWMmxMNJPJbkxSQnSaabnWdcZzwESsLgJQM9vZ1hsfjytdoDGM/zPNeq2dXs9QCuB/DeiYmJTIKJi0A9QdKDDXkBgP5WfEB9PkgS5EWJ0L53emL60vnF+S81Oyev8QjubmJzP+6j7JxMvgq1FeRN2ZlRX7ixQWlT5BakTQCnCCxaIS8yC0Ursna5CmwnoqhYNmYzn89vAig1I2fP8zzPa3W+SN4mbGTLBmaHQG+zczlsRG5XSvu3tbPdTI2O3tMkgj9u5MGz9V6JglQBOQchK+AHNoquEs2JMNJyxOpW1ZgtbnInt5HbAuAffDTfbnY5+30A3wfw9tGurpFkz+A0Az4kIB5K4q4AZkB2oXbGBg9ogYfGmOf3TM2U1rJzL4f/7HlNYoG9QAJif410EL+Hh4kWFxezALIAPgYgPTsxMWPJewY0jyR5b5HHCIyidm01B/TaChozG1D/ODk8+ayF2o4lr41ZYgdA1OjXyYxnHo/AvM6QiUa9Rn3sagGUBByHlBVwJSyurlo7ZxCtVsltY/a2Njd6tovF+S0A1Ubl43me53mHgS+St4lqWK0kkNyDL5LvP6FULVd9Uev8dISp9O8bcqIRwSVZAQVI35DwGRtVPlXZxHx+K78Gv/r7wFne3l7B9vYKgG8A+IuBgYG+rjAcNomOuxqD+xG4G6hZgDMgegAkAIStvA0aqFX2JcEQL5qZnLpibiH75/CfT68JAmFdQEQg1spIA464ysnbF3snFhevBnA1gA8ASEwNTQ0zxVkGvLeR7i3gGAyOQhqhMUlIIYDgIBTPCRxLpYO/HBsbe/bS0tJqs/PxGkhYRoPvnyNdI6OJMPh9QzZkzlVfIb4i6Suw+p+oii9s7G0sFovF9dv+XYVGpOJ5t8kKy0H8q7+JLJqyi9jzPO+2+CK558VF7Ghb281O4yA6Ojn9bEhPVK0/s7OJtqQI0g1W9n1Rhf+aXc5eA786t+2sr68X14EigOsA/BcADA0N9aCzsyddslNBGFxoAnPMRLrAGswSOEqgG0AHgEQrFXfqhfKEMfz1zFjmi7ml3NebnZN3KMX+TkgSa98x7+CqZNeyiwAWAZxuU5IcGxvrY4VD6VR4ZxvgAoIXUDpK4BjII6i97+kWfDApkg/vCBOvBfBrqK3O9doQibVGv0RXX/KlJO7r+oB5SRVJV0r4l6i0+4Hs6uoJ7MOqeM87T7EPnCfJIIj6HeTieZ7njC+SezcjaQfAEvwqxrNndf0qVn1vv3PU19c3QIPX0hhnW1UlQdKqFf6hVC3/zdLS0pyr2N7BsLa2tom1tU3Uijtfrf9yMDw83CGppzPZeTQg7iTi7iAuJHR3koOQ+kE2u3AuksOJhPkNAD8BBxMQzzsXEaC4A0OStPLtVtpQub4KexXAVad/cQZIa7qvA+WOccPEnRnwzqDuJvBuJKYF9BLobua19cbXpvnZydHJDy4sL3z1Dn5LPJXqOtKJ2IV4SWsATsVP6JAQDIA5NHAOMzIycpRh8POnz4h1EVO1wWvWCn+1Wym9Z3l5ecVFXM87GJrS0t/zPO82+SJ5m4g2opIGsR13CiLgi1FRz9sOt31Pu7OUTCYjAJVm53HQ9HX3PQfkPV3Fq08yLrfl6DVzywuXwa8U824Sra6ubgHYApDHGSsj+/r6Oru7u6eTwF1gwntJ9n4gLwQwZmq9zvfNGUWkx09PTl4yv7Dw3/v5+p6HKtYRoIrYs1Z1AEgD2HOQldfC5oA9zBf3gOI6gCvrvxxkMplkpVwZTQWpC4zB3Qjdn8S9RE4SGGzGYYfGsD+ZCl8D4PloYO/mKrATSIrb29+Cf7lb2v2TarXaaivzW1b3WncFDSySdybTP0Ny0lU8SVbCZaWo+trFxcVvu4rrefug6CKIle1zEcfzPM8VXyRvE8kgWQEZfzWzVJ0vzm/CH/ziNVaXMfxpV5NkSYLVpyql3ZdlV1evdxHTOxTKxWKxXCwWTwH4LoD3AwhmhmeOmCC60IbmR2T4SAr3ADRpjNmXvokkO4wJXwbg0/BFRm8/BSjBxQNGMjGEocQa1vzn93CKcrncLoAT9b8+hfqOnm4mj1WTwUWBwSMgPIDAURB9+7HSvN4K6ImTI5P3X1hZ+EqjXieicdMiw9q+5eVl387vHKw1sNvK8PDwGInnu4onyVpr/2V3vfCa5dp5K553kJxyEiUwvajtyvC72D3Pawm+SN4mNjc27UB/f9XBzj8DR9sHPe+2TI1P3ZfEvV3EqrdYuXynUvq55dXV4y5ieoeWAFTnVueWUGs79TkAb80MZsaDTlwE8UkAHkvgziSdtQm6NQZ46PT49D3m8/PfbOTreN4t7MJFkVzqMp2mCzvYjJ+S1yai1dXVrdXaA8nvAvjn4eHh7kQicedEEDzSyDyNxH0A9DeqYF4/+6E7mQx+AkDDiuRAZRVIxS6U07DTRTaeG52pzktIzLiIVR+7/m9ho/hLG9vb/tRN7+CRyi5KBpR8kdzzvJbii+Rtooji7qD6NxzcqwaA4RSw6tuHeA0ThOZHCTiZ/AlYLUXVly8vL/sCudcINlfILaCABQCfmO6bHgi7eR/L6MdhzJMITKBWe3Fa1CHRjwBPAuCL5N6+UaRTChnF/jCTyTAVJrHjIiuvXdXbYH27/tdfjY2N3bkjTD0ZtM8DcC+QSffXVhLUEyd6eoYWNzcbsuy4UqlUkEhV/ZKTtkIDPY80rt7Va7dLe6/Y2NjwBXLvQLLCkovtwAbsg1+g53leC/E97tpHGQ625ZM0Q0PW36i8hhkcHOwl9BgX815JkZX9s8XFxS87SM3z7tB8cX79hoW5/zuey/5sOao+WMKvSLhKkpvt9aeRMMTTxzHuVxJ6+6a8V94mEPuzLKlbVLeLnLxDo7q0tPSD47m5t2xmdy+pRniKoP+UtC3J6QpDAbOJ3t4Huox5pkQpURGwHjeOpH1p8eXdsfHx8SkaPsDFZ1HSnpV948rKyg0ucvO8ZqChk51iFhiFr0l5ntdC/AWpfQiMv63ZAh3VatXvMPAapivZdSGAO7mIJemKyqlTf+siluedq4WFhdzx7NxbK9p8nIQ/tdZuuIotSYa8MDnMC13F9Lw7klBiAw4OoibZmUwlOxyk5B1Cq1jdml+c//Tx+fnnRjZ6EYQrXBbKSSbJ4HGu4t3SbrBbERG7lziBMRf5ePElg+T9AIy42Nkg6X9OZLMfcZCW5zWNrJz00Sc0DF+T8jyvhfgLUhuRtOAgTE8qlfIrV7yGMaF5IMnYKwwlWQv+baO2S3ve2crlCgvHs3Ovj4SXy9plFzHrE/E+pMx9XcTzvLOxE+5UBazGjWPIUNCQi5y8Q608l8t9sLS7/WxJn3BVKCcJkA8cHR3tchHvljqLnWUCxfiRmIofw3PBEJfAwbxZ0q6t8G/hD+X2DjgT2S0rxXqoLkkk+wcGBtKu8vI8z4vLF8nbiRC7OGOkvkQ10dAD6bxDLSB1P0crcRai7c2PukjK8xyw87n5f65W7WustOUiIEkY8EHwvRq9fZIqpKou2kQAAANOu4jjeQsnT15b3o5+VtJXnRXKoTsDGHYR65byyJdgFfsBvqAeAH5HRvOlAd3L0dj1e1uVrS+4SMrzmqnEaBNSrIc9JAkpnUgk/EN1z/Nahi+StxHB5mL9fkkgkwgx6ConzzvTOJAicHcXsSR9LlcouNg94XnOzOdz/06rdzgr5BhzH7TJIduSEgD8Q9gWlke+Qumki1iUfJHcc2ahsJCLStXXCIh90GF99WJ3h0ncxUVutyIisRb3NkCgpxe9vkjeZMPDw/0EZuPGkSRY/c/a2pqTXs6e10xhNSyS3I0diOxMJBINeWDpeZ53PnyRvI3YiNk4v5+1JRImCIMRVzl53pls12g3GH91oSRY8OMucvI8x6rlHfsWSNfFDSRJkEaGh4fbYoUNyY4BDPiDSFtbFaCbInkQ3NlFHM87bX5l8UvW2nfGjVNfEZxS4OZ8lFtjLRcBxHxYyv7uge6GtITxzp4x6SMiYxfxJFWqFp90kZPnNdv66noRUvwiOdAZAEccxPE8z3PCF8nbiK3aFSuV48QQENBYv/rLa4hkT3IagIt+5Bsh7HcdpOR5zuUKuYUIfHfsVYQkRfYnmfQPLr39IgB5xPzsSpKBJuDHmZ5jUUnvsNbGfpBDkobBrIOUboPNArBxIhAasCnb4ygh7zylyLvQwS4oAkumuneti5w8r9m2sFUUEHtXBElDE/rag+d5LcNPXtpItVwtUorXS5QMyeCYo5Q872ZoOAYg9kFUJJfXcpuxdk54XiOVd8ofFBC7Jy2BnkQyMeAipxhkrS01OQdvn1StXRAQxYlBkpLGuru7ffs2z6ncau46AJ9yEUtQBg1qZ1W1OoG4K8nJRCoMZ5wk5J03BpqGi0M7gRvmVlf9YfNeu7AA551Eku4Kf/6O53ktwhfJ20jZlNdFxhp81e9Os/CfDa8BDDVIIBk3jrVaLqJYdJGT5zVCfi1/HNL34sYhychG4y5yipUHAicTewvrJ0EtzlDzBKrxI3GkL51u9gMerw3ZqnVyaDeBcTSoSG5pTwioxAxDw+BuThLyzhuNmUTMeZFqBz/lEP8z4Xmtwgo64SJQQN4DvkjueV6L8IXQNrK+vl6EtBo3DqE7jWLUHxTkNcJArRVoPARuQOxen57XUCVr9TkXgQITvxdqXMbFaEFKJ44k/L2lxZWq1RPWQZGcRK9JdBx1kZPnnanC8FuKu3OyZnB0dDRwEOeHhOVwg0DsMbmge7jIxzt/BnIydpW1NzhIx/NahWTjn78DACJmBjDgW0t5ntcSfJG8zUj4QdwYBI5VBhP9DtLxvDMRxjgp9olwcrCc5zWU1VWS4q/IJUcdZNN8xiS7gq7Y7Za8hjspoOAgDk1o7u8gjufdzN7eRl7SStw4JIcqlUpDiuTzJ+dPSVqME4O1E0YvgIM2dd55CyzY5yIQ6eZQZM9rGVYnJMU6ewEAII10DnfOxk/I8zwvPl8kbzOyinWYYW03IHu60/aurnLyvBtJbq45FrEnx57XcAxOAIjdy1vWtkeBxFqzu7frxx0tTkvaobTgIBQJ3MdBHM+7mUKhsAEgHzuQEFSr1Ya0WwGwSzCnmCc4k7zT8PCwb1vURISrsWv8Bzue10psmVkB23HjkOxlSL/zzPO8luAnq+2G9gc2xhPd2qIVdATGXOwuKc8DABDkiJNIxuw5ieN5DVQpVQqQg/6jxJiDdGKx1sZeKSSgM5FCt4t8vMZZxvK2gOMxa3sgCRJ37evr8wU+zz1hOXYIIpFKpRr2+YyAbzsIM5wO03d2EMc7P0kA/S4CRUHgx65eWynvlecJbMaNQxKJwDzIRU6e53lx+SJ5m1ElmI/bA5EkYIIHAkg4SsvzgNpHK/ahnZ53UCipNdBFb2c2pB3AuZC1a7G31JJhEKT9feUgqLVuc7GF+mh3qnsqfkKe90OW4gYgwKSSDZsLKarE2t1ZF4aheYSDON55GMc4Sfr7lufdiuXt5aKkeSfBDB8GoOnjXc/zPF8kbzPzK/OLkGJPHAA8eKRrZNBBHM9zTpA/Ad1reSTb5nBZ0sReEU8gHQS2y0U+XmNFVt+BgyI5yXSYDB8ePyPPuzm6eIjTYKoEPwBwKk4MkgbQw+H7kh94kh+7em2nKsQ/D63uwqnhqVlHsTzP886bL5K3nz0JsVeuUBpJ96Uf4CIhzzuDq0ntkKM4nuedBZHbiPn9JYlIbg7v9RqsgishuegzGhD2UfCrw7xDKLuaXYaDVZYELh4dHZ1wkZN37uRo7Br4savXfiIb4Vtx27MBAIHhIAF/2LfneU3ni+RtyJKfiRuDxiRNgCfBf0Y8d6x1sD0aAAzQ5yKO5zVSUApSAOKvHFP8wz8d5HAKQBQ3TECMx0/Ga7St1a2TAk64iEXyQYODmab31ffai4BOBzEiG9lGXl+3LPi9OAEkCeSRjjD1OFdJeWcvj3wZUsFJMKLXSRzPayHW2u8C2IkbhyQY8BnxM/I8z4vHF0DbUYTvWCn+IRrAk48cOTLqIiXPAwBaxS6yAYAAv6LKa3kKNCQ3Zzs4ebgUhyqVU3BQJBcwGT8br9HWsV4UeIViLg+TJJJjXR18jKvcPA8AYBh7HECguoe9oot0bksEfirO14g1AQ2eBSDtLjPvLImgk7GrgX9I7LWfiipXSVqPG6f+QPBhEwMT/hwTz/OayhfJ29DO4s61lBbixKhPbGe6kh1PcJWXd+jJxuzNeRqhKfjrl9figiQyRPzDagnEbnsRV7lq1+GgSA7ST34OCEXRl+LGqBf4wsDwGfCHgXvuJCBNxw0iYNcY09je5uXom5I2HER6cGYsc5GDON65iSJpy00o+fuf13aWl5eLgoNWryQJTIRdoa89eJ7XVL7I1IZWsboj8AtxYvA0w5eMYtQftOa54mqlwVCmN9PvIB/PaxjCXAAy9so/G9m8i3xi5RDagoBy7EDSLFy0oPEarlKxX5IUews1AJB85MyRiXu6iOV5k4OToyCPxA4kra6tJZ2sEr4t1eXqDQCOx41DsjcR8oXwc7d9Z4AiYvZcJkmQE/AHsHrtp0Srr7noSw6AAfF8+F0znuc1kR9otSdrq9H/SYq1Oqa2mhwPTIwnfB9EzwnCFiRVY8WoGWIH/bZVr5UFIO4TtxosCRGQc5JRDOlSugxgLW4cY8zQdN90f/yMvEbbre4elxz1JQcG1RG+AH7c6TlgUuYopJHYgcglIB9rTHJH8sjvWPKzceOQBIx51nDv8FEXeXlnz1JLTg7vFKZGRkb642fkea0lEj8Pci9unPoc74FT41MPd5GX53ne+fCTlTalqPxVSKtxYpCkMSYMQ/PqcYzHPiDJ82zEFcDBIYRSv4wujJ+R5zVGd3f3AIH4g3xpO0J00kFKsVSKlZKAlbhxBI0ouTvoIievsdbX14siv+wiFkmEwKVjg2N3cRHPO9yC0DzBGBO7fY+1dh5AxUFKt/86lfJ/WWtjF+MJTHb1drwCfv62r2SZg4MiOYnxlEn5lite2ynbwncVs9XrGTqDhPlF+NXknuc1iR9ktan5lZWsgNj9ROu9yR+Smky8wEVe3uFmrFkA4GKlAcIw8AfBeS1rsG/wUSRnYh98SK6XSqWmH9yZR74ExT9AlMCANUlfJDggZPXhuLvSTiM5mu5KvQJA6CKedzj19fX1g/jRuHEkgeJ1AJz0CLg965ub36ablisw5E9Pj0w8yEVe3lkSboCLleRAMkyYRziI43ktZWlp66SsPu+i5QpJGOAxU1NTvje553lN4Yvk7atiI31UUqxei7W25AyMwa9Pj43d3VVy3uG0Y3dWpfirUQHAQI8YxGCvi1ie51amIzD4GZKJ2jlEMUiLhULByXcmpshIORcToGQyfIiDfLx9sHdq7xsS5pwEI0Hip2YyGd/CzTtvQ509T6Z0Vweh9iKrHziIc4e2trbWIuHjToIR/Sad+J2+vr5+J/G8O1RRJStgM24ckobAJfCHGHvtR7D6OBztzCHQEcL81tDQ0ISLeJ7neefCF8nbWLS3/UlJbnrZktNBMvUHAwMDfU7ieYfS6upqSYCTSamAu3SNpx7oIpbnuTSTCZ5E4NFwskKRXwPQ0J65Z8sCNwBwccjdQ+HHHwfCyvbKsqDPuIpnyK6A5s0jIyPHXMX0Do/u7vEjNhG82hgTfzeCVFRJVzpI66xeLaraDzg6CFcGuGSwt/81AAIH8bw7UCqVTsHRw0JBD5oaHfXtAr22s13Z+5yArItYAkTi4p7OrjfAt13xPG+f+UlqG8sVCosCPuYiFmvLIZ/c1937RviblXf+KrL2ey4CGWOSQZj8Kfjr2A+htX6FfZPMjM4cNQZvojEpALFWkUuCYL+AfWgHcDaiSFchZpG8divRRVNDU2OO0vIaTv9urS07iSSJxlzUlUr/9fDwsP8MeOciGBpIvt4A94nbxgoALHhFrpCLfRjx2Sotlb4l4fK4ceoH2xkSr5qdnLoUMe8z3h0rFAobkK6L3T6t1sJy0ITJH3OVWzuJbNTT7By887e6urok6TIX12eevtABLz42PftL8G3aPM/bR7641N4UVfWvVtp2EYxkaKBfmJ3IvBJA0kVM7/CR+A1J8Q/vBGCIJ02PT9/HRay2QlzU7BQOo/Hu8SNM6C8MeXcXkwQBJ8u7u992kZsLxpavkxBvJaQgkuNM86GO0vIa7EQ2+xUCV7uIRZL1QtHje9Kdfz86OjriIq7X9jidmf5pQ/x8rUAcr42VJMnaL8LBGSlnaxWrW4iif3LY47+bgXnr9OT0s+EL5Q0nKfY5TzcW/gwvHR8fn3aRVzsxBvdqdg5ePNWKfS8kJw/VAYDGpCT7xpnJqVfCtynyPG+f+CJ5m8vms18H8CUXfWSB2s3KBOZNM5NTvw6g00lQ71CJ9ra+A6noKFy/CfnrOOAPbQYHB3tnJmceTdjnw8H2aRIPxgH/mRw0vb29g6mB5N8aw6fUi4DxixbSNxdPnjwRPzs3NiuVNcQ9fI4ggNBQPwn/GT0oNqrCPzobR5z+bhBP7kym/3VmfMZFf2mvfXF2cuqFoeGfGLLbRUABu9WKddMj/ByUdu1/Spp3Fc+QQ4HB22fGMz8OP6drKFuqfsFF8U+SDHmnZBC+Agf8PRvvHj8yPTn9lAB6Ehw8qAkC4x+eH3DRUvR1AU4XdxhjugLDP5jNTP/OEIb8bgPP8xruQN+cvbOyh0h/J8dPdYPAvOHY5Mw7RkdHZ13F9Q6HhUJhxZJfcxGrthVPT5mdnP4pF/H2EUcx2nVsfOphxzLTf9DX1f3FwOh/giB4josVcjTm4umJ6Qe4Sta7XcxkMhcN9Q28zxDPBM4oAsYgCTayHwXg7NodV6FQ2KDs9XGLpSRhjHn09MT04x2l5jWYLdkPCVh0Fe/0d4TEJUGIj81kMj+RQabDVXyvPQwODvYezUz/hjF8G0lnZ+JIunJvZe/7ruKdrcX1xayEf3Ox0+g0Y8xQkAj+/ujUzG/7wzwbZ/Pk3nUWuCZuHLJ2gnFgzM9NjY8/xkVu+8jMoK9/dnzq8bNTM3+VHkx+OQz4URrziLjjnlpbTz5qemTan1dxgOWR37HiO1ztmLkRmTSGr++d6nrfzMTEfeDPY/A8r4F8kfwQ2FjY/h+B33Ac1iDA8ztT6U9OT06/YGjIP9n1zlpZFp+Q5OIAwNruBoM3zYxOXuIiXgMFAwMDfdMT0w85lpn+za7p9GVImP9lYH7VGHNPGuNkG2F9N29nEOC12P/zAxIzk5OXzI5OPnBqaGiifl1Ioz0HsxweHh6bmZp6fdIEnzCGlwBuCuQAIGlht1r+hItYLtnaQaIuCjydYcjfzwxnLnAQy2uw3Gruelj7Tw5re6e/K6LhUWOC9yamzL/OTE5e4ovlt256bOzuM5OTj544MnHhTF9f//j4eCfad/t5x9T4+OP6uro/QsPfoTFOVpADgCQr6ANrWNt0FfNcRKXdvxew4DImyU4Sbxjs7fvQ9Mj0Y+F36Ti3jvUihE+7ikeyLxEm/nJqYOoermI2SDjRMzE0PTH9mKNTM2820/1fZML8V2D4CkNeUGsbHZ8kgRg1SbwS7TlmPDQKxcJHBFzlMuaNnYqMeYIJwv85mpn+vYkjExfC9yr3PK8B/IXlEFjD2mZP1Plm0fw7SSdFsxtXgQEXIMA/9HZ2f74r3fU32Cp+er5YXHfxGl77ikrR/5i0KZAcjhurNrDmiEmGf58Zz7wsl899CjEPF3RlBjNpO7Q1iFTn/cLAPILEowDclfUt4y5Xk52pHvcpRycyrzi+mPtzANVGvM4tDQ8PD5kg/DtjNGxS3du90nJvZ9cJCscjcp6RXSwjykpaALBTrVb3VldXSwAq+5GfI6nJI5PTic7gmUZ4Ach7ntFn2VWBHAA/tLKycsJFPJcqij6XUlAGmYoZSgAuSqbNOzOZzC/kcrkr0CIHlHq3SuU9+/fJTnMpgUlXQc8YSwQgf9SY4LFm2nxyOpr+p1K19Pnl5eWTANyuSDuggiDxMgbmxUEndoT+Yko4MTs1cwLSnMicrdqcgcmayKyzcmrvhvX1EoASDs73ihMTPYNJ9T+MIX8SwOONMV2u75OS8qXNyr+6jHkusqur189MzbyL0G+4KjCeRvJRQUr3O5qZ/nA10t9V89Vv5ZGPd46Ed6Mo0gcM7cvqB3PHUh+73iXs0ntngomXzJ1c/A5a5Ls6jvFOjWk4bRIPRMBHknwkgWMkG/YA86bdRXrx7MTUV04sZv8DLfLz8M7N5ubm2pGevr9RGPy562ucJBljhiW9PtURvuBYZvp9thL922Z178q1teY8+PQ8r/34IvkhcWIx+4nZqZmPBcSzXMc2ZALEJSQeor7+bx7t6ftwVMXHSkuluWUsOzk0tImC4eHhjiAIOowx6RTQUVUwom1dmdvIFZqd3EGVW80dP5qZvkxS7PYiNxUocTQRmn88mpn+fxu72+9p0mApnRnMDIWduAAyD4LBAxLouj/IUQJpkDcrjLsqqt5SfcVFwgK/PTMxpbnF7N8A2G3Ea53JlE2aaXTBmF4CvSTHAVwM1JcF0ZTTMGXVDktbQpDMd2dm8jJalGWOkc1ZVHNMJgs7Ozu7URTtFAqFPTS55cjw8HB3KpUaMzIPNoZPIPEoAhM0tc8e4Pa9lLRa2qu+Ey1YHNza2rom2dt/A4G7xYlz4/fWmEckLD44k5n5g1Obpz5YLBZPOUrVc2zh5MJ1s5np98rgV11fu24qkLALwDMY8ElBkL52NjP9KWvx6VCV796Qz69iH65jt5YegPSxgYHkTiqVDIIgFQRBEuVy2iIcDhNhP6KoH4YjUvT5uYWFrzQmC3aT7ATQSeAIiDudTk9SFCRMCWRZ0imlexeOdXUvicjLMmdpc7aKrDV2iXvcYZU7uY3cLmrX4mYWosIjR44Mp1KpuyaNuQQwTyZx9zMXdDi+tgrCPy2dWppzFfN8bO1svb23q+vZEO7m6s93xneoR9ILQ+LpiankF45h6gPb5fJly8vLi6g9NDnIEoODgx1hGHZ0GZOOkOwSNVQ/f6nhh7Bm89lvH52a/g6BB8aNdcY98L5Bh/nA7NTsr53InvgI9vEw2dPGMd6JcRxJIbgbAvMgQz4AxH0AHCGZBBq3qONM9QJor2D/fGY8Y+byuffjYC2i8OoK25v/PNjb90KSP+Iy7hnXSxljJgG8isSL+xLdX++b7PxUuar/q6ByYnl5uYB9WiB0C+H4+Hgy2N5OJ9LpRCkMkyTTodQNcoAywyB7QfSXi9V/WNxcXGtCjp7n3QFfJD88yqVq+ffSYeLhxpjYq3dvDck0pYfK8MFBQq/vzKS+PWumv2ir+CKquGGzsrm2vr7u6sDGc2WGMdxpYRmMBJ1pmzaWtiuRsMYi0SlUOoXgCMk+AwyAGIXBgBFHBA0CGCA5KKk/BFDtwouwgY806c/SDiJbte8KksHT4KAlyOnJhjFm2Fr7lt7Orqf2plJ/shNFX15ebtiDmuTo6Gh/EhgxifSdiej+xgT3EnDX+krLVG0Fxc3nv40qjN8aY0w3qd87Njl19xLsmxcWFq5t7AuiS1AHb+X8pvrsPQkgSaAbwBEEuOfp/yqjiMZUDZKRhO3ujs4VSmt93T2nJKwSdtHKLCOKFhBpSSbaUJQoUdxBBXvzxfkSgLgr5hKZTKanUqn0JZg4YkJzYWD4AAgXEboHDAcBJHjGww7X72etiKN/W1xd/K7LuK4Ui8X1/p6+rxkwVpEcOPMBFy8w0N8M9vS9eKCn799LUeWT+Xw+C+B8v7vpoaGhRBAEnclkMtSeOoMwStCkUoKGKNtNw1GSPTJmKKpE/53NZ78Q989zCKiys/XXya6eZwC6WyMvZSRTBO4pg3sa6mVAYuno1PQPLPhdCN+p2MpViShaX9/d3djY2NjCuT1ISwwNDaXDMOwwxqRNxaSSKXRECrqNNGwDDgdAv4BBksOQekD0iezpkLoA9gHoZTJVbyUlg9DUHkxa/jGARhTJKbL3Nv8jGQDolNRhyH6AswgC1PrZyBoEEZKIJFNGF9dInDzaN10guGahJYqLEbQEi+WI0YqkPQC7URSV7LLdWcXqHuIVHDg0NNTdCfQw0dXPkDMgLiZwXwPdE+QMgHTD74/S/E6l9PaGvsZZWFtbW+xMd745GfDvAMRelXxLBERj+gA8xco8vjuVXuqcmvmWpC9Ziy9WditZm7RrDRwf3ZFwGMPpaDAyPUFPp01boz11RmEUJsk0remLDPsCclRQd0COWGKEwBCAAZBDAPpDoB9iZWZ05r5zy3PxDpU+O9uC3iXpgS4+qjcVynmU0juPTk0/Qzb6sxMLC99B4x5opI8cmR7oSlZHESTuStgHkOaelO4KcgS1sSsB7MuijjOd8eBg1IT429mJzL029nb+qlAoOG1P5DVesVhc7+/s/0Mm9C+udrGf6czPozGmF8BjJPPohNFOgukTRzPTPxDwDYlXICodj8JwY2dnZ7NQKGzh3BagdAwMDCR7w7ADxnQwCJJCosPKDtPYXoqjxphBEQOGHJbUDbGbfYk+kV1poEdAP2s1N3PGXzKd5rPYhC+Se14L8kXyQySfz397dnL6LaJ+3/X2pxuRgERjzBFJjyPwGBMiUojVgXTvQn93z4KE4yKzAPIU87Iqg1C1Ut0xNBEA2NAGodR1m+02iQEY3DhhpFUvgAEEBtbapCFHARFgH4EBQAZgLyADspdAAAV9YhAGQC+QIGp1vDP/Ag15ZsGvXhyLTMChhvz8DpHyUvTZjung6wAe7iLe6QGTMSYp6fEIEw/rCMKvzU5OfxiIPlvY3MxubGyc6+r/jtHR0Z6UUt0M2QeDMUp3BnE3Y3iBgHFKGRBdQBCg9pFx8cdxol6ATCswL06KjzmamX5nWdG/Lyws3IAGtKQJwiAB8rx65NaLPAEkmdpqyWHUv32CABgbEIIJhAQgBTtMclvABoTtYz3TOyI2Ce5aaQVkZKVlY0yteGattcAiyQiRHSDZi8CAUhekYZFHDDAgaCiRSg8RGEbtAmRqbypP/zxP59uQN1rCiahc+jO04Cry02Txfhm9oP6exXLG6sekpIcSeFCaicLs9MzVtPp+BHzfRJoXzYoxUWStLQthJ4BBGvZCdlRUlxHHGJhuCMOEugSkUCsqJtmJXihIgeis3aRq+xoAkBAVmioAXyQ/CwuFQm62o+sPGZi/xT6ceUAS9dY+MwRmKD0BhA1MoqIgXB1Kpk8O9Q2sCygAWoWwDmOKAIjI7lpEBYqjNGZQwJAxGBPYxdqqrh4InUygC0BvCATAjU82a196gDTmzIRu/Mdba7EkqAuoX7bcCsxZFFNv7bpUH+8Z1B7wpQH0AjjK2ngNBhQIhaBgoBBhVdImyE2EiV1MYaNH09sgS4BWLLAnYYPCOoLaz8ZGdp2GG7JKGGIMxhhFkTHkmAx6KIwT6AcwCHIUQFc9J9Oo4egtSbLW4q3Ly8sn9uUF70B2IfvvRzPTTzUBn+s8+JkFpNo9eYrQFMmnGYNy0J1YArh4dHo6K4vrJWUpFCjkLU3VmCiqkjso1z7HJjBJ3M733QZ2xMDc1IpD0SBN2ANAsLYPxEA9sREDpEEkJXQBCkH2BjAB0ugBg6SkboY3futY/9LR3MrHW5JgWJLsvg28ttZ2P9pzpOu1BJycp3Hj2JXsEvA8mvCJs5npL8jqg7KVr84vLeUAbJxj2K4jR470ppnuMqHpEzVpjO5Mmrsb4E4CxshEBkAaMAa3vM7dIrf9dMailx6Rr+vt7H5aX2fP3+xF5f+sPzz3LVgOiLn83Mdnp2Y+aKDn79NHiaZ2fsU9EfCekp4NwMKktgxxsq+re62vq/sUhGWQG5CWZUwFkYUFCgBA6Ighx0j0AByxUC9qiwB7UGuV2WmA7gDG1I/2u3G8UHc6Fdz0Tz9MUoREMNjgn4fneefJF8kPFxV3Nt/e39X9BAbBoxv1ImcUPYDTkyBgQtK4MeYBP/QbglrxyQThFsla4U4mANB91gM0c9P/FgSnB3q1X6tNZE//D2eE463fuM5S61RCD6g88jvT5ck/D5PhA09v53SlPsjuDIx5tKhHA+HmUG///GD/wHFI8wRXrbVFGLNOaaS+hR2SEoYYl9AJYoxkl2oDo14A/YbsOPOtr3/QXabu1BnfRZKclfSmlIJfODo1/eWqjT7EKPrG9lIl6/AAsy4CnXEC3EaRB7jFQdOsvSe9BMZxuqtxvWgV1N+j4MyvaWBuOgnKBGcGwpnXCkNzm29ooyeMsrZUtXpzdmXlhka+TlyVjcpXgoHE9SQvdBm3/uMNWDurYBgBH2aAG4/wstZEQRiUTn9fa25epxdq1/tb+RDd5usaa4/ETv4QObGQ/bejU9NPAvC8/S6i1F8vQO1zMgVgqva95Q/f0UOD4LbOp+cPDwnOM5eb/5qUQGOK5CkLDDg/za72IPKmi2BNWC+m13YdEmf8Z97qiXpBWP85n3n5DG/6P2vfy+beLK21l23sbr+7mTncQqm0V31DuiP8ERoz0+gXO+M+mq6PB2ZI85BbvqEGgFUQJYAtpFn7HEsp3m4/6lt+Ks6YXgY3/w6efrjEW3yuTv/juXxMSFIAqra6b/PZkzsn811Rx18zMG9x/Zmu/XnUFxjzVBk9FUitH5uanrPAcQnzBNYJrFlwB8KYMbUDWq1shwFHSPaqVuTrskAfgR4A/eTNe6i37qi15oyxqwkC3kPSX3Yw8brZqZnPW1v9UKDS944vnsyiOe23vLO3t1cp/W46kXxYQE43+sVu+X288QEx0U+gH+QtHmzV//fQ3OZJscFNFya3yQIIdFsDFM/zms0XyQ+Z9fX1Ymdn5y+nLD9KYxp+wzrT7Q0m6+PlnjN+YV9e93xDOo53aM0vLfzXsemZ/wXwVNexb/GwpgcGdzfkPU5/tsyNhdIz307+8K+0cBH8XJGEgBFDPiNBPgMmKPZNpRZ70H0DpK+dyM3/PmJsqU8kE8lm/rziftebWcSRJAn/nl3I/kOzcjhb+a38ydn+6Q8C+NX9fF1T+9Le7kOY83oPibHzzemQKtty6ddNInUvGNy92dfIZhdfb4Y8glrF0OlOkKGhIWMIpw+T91Oz3yNrba5a1qsKhcK5rshtqMWTi9fMTky93lD/cPOHf413e++Jqe0S6jvjf96X1z0vkgkSwSiAa5zGvR1rxfV/HB4cupTA/VzHvsXYdUBAf0BefOb/c8vK2pklvtPrV9up+kaSIKcD4FLD8FIoWDs2PbNohWutdNl8bv4vm52jd+uWlpZ+MDM19Xpr7d8bY7qanU8LoR97el7raqd7qHeWFhYWLpfFa2R1ah/OYWk7JA1kG9LX/RAqVSv6LSudbPQLNXuS3irOnIDRmD4a3i0wfAqJF87EfXBKjDtJ8pCptSHX57fX916HA3JIlap87358b/dJH354KaR3O+aWl4+XFf0CpJVm59JSaivXnN9rkqVkyuJ0ywrvXMjaYlSJfjm3kvtes3O5NScWs++3Vn8kaw/Etb8VKQj2dT67tbV1UrJvkhT3HJQ75MeuN1cfuw6RvCgwfFZAPLvZOXm3by6bfZ+EP5fkr3FnoOx5taf0PK/xfJH8kDq+MP9BK/0m4h90dygZ0u/CcGQ+P/9tG9nft36C2FQil+birn6k+wPI2l39oM7LS1H1Z1e2V5abnc/Zmluau9oK/9bsPJwgOzPIHNhVus2ysLDwGRvpF2V1qtm5tAoBRzINeOBiu6whDu5K8maRtGWFN84vLXyw2bncjuhEbv6PLfQOPw46OE5ksx+Tte+U1LLnhxwGBP2hnq0vOpGb/11I/ygpzgHQ7eV2DuP2PK+5fJH88LIncvNvl/C7+7ESwvNuh3bKe+8A8AH4rQ1NQyn2QZ4GmHCRy2FRb7Hy7XJp74WLi4tXNzufc2QrO5W/slK22YnEJvRu9G7cTr9d77acWMy+z1q9XtJ6s3NpEUkg4zxoWAmT9YMvvbOg2imdm1GEN57Izf8NWvgg5Lqd7Wz29bL6O18oP2dEVG3GLovKVmnv9630Rfmxa9NEfnXyQbG7tsHXWOHf5GC+0QYIf0/3vJbli+SHW+V4du4tsvgVa21L9WlsdYp5OKF3c6urq1tlG/2KpM/7uUbt1HMBe/s58RJ4EjELCQJ8ofEsSbIW+HRpp/L83MpKS7YBuCOLa4vXUPYPDvrKIBE9iUQi3ew8Dih7YmH+723V/ryk/GG/fhPoqoxWnI+tgzBIwo/Zz560aiP94tzC3F8hxjkb+2kV2NpdyL4e0ttlbanZ+RwgTBjTc8f/m3urq6tLFRv9AqSrfaEckFSxUnk/X9NAB2YH3mFXLM6dWt849UoL/aW1dl8/J62IpN8d5nktyg+4vfLx3Nzbo0r0Elnrt6ydLaIf/gBPpxYWFnKVcunlkC4/rJMNa21Z1n4jsvilarn6EuzjKl0D7AGI+XOX70l+FmRtScI/7Jb2Ll1cO3AryM+k7XL5vQI+dJC/swS6usPQT1bOnz2xmH1fFFUvhfS9g/xZiItAX7VadT62jhIcgR+z3yFJiqz9XjXC8+cWs+/BASmQn7YMbB/PZV8fQW+y1m42O58DpGnXnIWFhe+WyqWXSco1K4dmk7Rjrb2sGulnbDV6taTCvr04zaEvth4kxWLx1In5+V9DxF8/zK3aSFLwB3d6XqvyA24PAOz80sL7yhX7TGvtVw/zBNdrruzy8vfLpb0XCvj+YfocWqkQCR9GpOecym49Zi4397b5fO6fUdWlsnZfiqgW2kD8iaZfSX4HrLXZajV65fHs3CuWl5cP/KGHy8vL26Vq5TUCvnVQv7MEuktM+89uPJpbWPjM5t7uMyV92Fp7oIqTDtFa63xszShKwT+Yv12ytiTgn1gpP21+cf7TaGLhNKbduWz2D2HxM9bqeLOTOQBoZZv6kHNhefkya6OfstKhWWwkSbJaqkrvjaLqU49n5580vzD/j3OLub+OytFLJeX3Iw8rnNqP1/Gc2ju+OPenka1eKmuvOahjx7h8Ec7zWpf/fno3yi3lvr63XnmqlX2rpPXDetM6GxIM/IS1IXIrK9+r7O48U9Jl7XogUq0Xtfas1ber1eh3bKX80BPzJ559fDH7nwUUbmx9dEM++4UK9BRF9r8a3dJCZOwieQCM+evGD6u/39uy+pdSVH3sfH7hHQDaZvXT4uJitrS9damEbx/Q95+Bqn5FjwOrq6vXH8/OX2oj+0uyOn5APw/nTUAyaZPO+yMnAjOMBhwIetDVr62RpO/ZSC86Pj/3M8eXluaanZcD0fGF+fdV9qLHVyP7H9jn9msHDEGONDuJuYWF/0M5eqa1tm13Q0qykrYj6YtRZF8TlfcePDc/95NzCwufQW03IgBobin3wUrZPt1a+5V9GMefanB8rzHs3MLCx0rb0WMkvNNau9mu35vbIqkXvpbgeS3JF8m9m8lv5U+eyGZ/pVIpP13SJyTtHrab1tkg6SesDZRbXb2usFF8Nqz+vD5wanZKsdUn8ztWusIKfx2Vqk8qbm8+am4h+9tz+fxVuI1+4Nls9vrtXOnHLfQGKy007PsY2RLiFclpySRJP+Cru7E4DnyyWq386A3ZuZ9cXFy8ptl5NcLi2trV26Xd5wpo+AOdBmAQBkPNTqKN7M4t5v56u7x3iaz+UlZL7frA85YIMJFMhK7jCuqEn0zfqH5trQi6wVr9+kqhfMmJxex/AGirQ/xyq7nr5nLzL7RV+yIB37JSpR3GQ84Z0xLfjeNLua+XbfRUK/yLpL12eK8kWSttSfq6rP2Tcjl6dGl+7vFzC9k/nVtePnFbvy+7lP3G3nrlaVb6MyutNWrsKsn37z/AFgoLuePZuZ8rWz7dSp+w1m4fmrqDYQq+luB5Lcn5QN5rC8rm818A8Oyjk9NPheHPA/oRAF2+AFZDIoCfsDZUsVhcLxaLvzI1MfWZRMg3SrqYZKLZeZ2LemFoU9IJCZ+JIn1M28Vv5jY2zqlf4zKWtzGPN2dGRj6WSKZfI+opJIdcfh9Jnozz+zPIpAnsSFpHre1K6rBeLyRZSCcj4TJGeueJfPYLAHaanVejrays3DA4OPiC7s7uV4XUy0GOHJTPgAEGm51Du1muFVBeNTU6+ndhIvVSUc8iOU6yfceeUmhlnR8iaMGUAQqSOgF0kDyUE+t68WQX0JWQ/rm8bd+/UFho917Q5eML8++b6Jn4v0Rv8CJjzAsJ3R1kqtmJtZCWuc8sLCzkALxkZmLq0ybg6wDc+aB9X+sPujckXSvwUzbSx7b2tq4oFG7a6Xg28lv5k9jCa6fGpz4UhnytpEeT7HE5LpD1B3e2AbuwMHcZgK/MZGYebaSXyeBhBPoPyhjyvEhJ1IrkB21hiee1vfadqHgu7B5fmH/fMIY/3jmWejjD4PmG9hKQowdtwBeHtbZMYBfkDqQNAflI+AJuY+Wv51SUXcz+50jXyNc6+lM/YQx/juSdWrVYXp/AlyCtCLxCVp+LrL64sbNxRbFYPBU3fm5l5XsAXjIzOXn/wAQ/K+FJIEZIxt4VJGujWLkhtzteGH9+2B3OBgncSRbHAsMLQF4IYRJEr6QeY0xbHpBYX9m4SeBqK/y3bPUjc4uLV6KN2qqcjUKhsFEoFN40MTHxyaQJXk3yCfVJcbNTuz0G9AcoNYiyy8vfB/DqqeGpvwwT+lGEfCbAe6DNJsCSKiK3TWCc35/mF+b/ceLIxGdN2hwLgGOEuYCGF0C4gLWDxHvQxgsZ6v3G8xIuQ6QPr+9sfK5YLK43O6/9tLi5uIZN/Glvb+97Brv7nmYC81wQDwIw2K7v+y3Vx1hlANsAdgRsQJqXRavt0NqbW8y+a3R09DMdidRLDXUpyEyrzp3qP9cdWC1b8luUPhtFlS/tVqvXrK6ubsUNn60tFPjG0fGphyPUz1uYRxEYiP25lWAO7/kX7WhvLjf3cQCfmZ6YuG8QJn5M1j6B5FEAbbVTVdKeAAxjOLGKVb8bwvNajC+Se3doFatbWMLHAXxqYmLiWNKYx9METyVwEYBRFwW6Zqqv+twEuQVpS0BRYA7SnMh5yM7biKsRqyt7e3v5Qk9PGXNzFQCxiooOLFnpesRokUFgbdNstnyxf2V7ZRnb+LPM4OD7gs6eHzXUC0BcZMjuZuZ106o2LEm6DlZfk/D1PVu5fGlpaQlAIwY+1bmFha8A+GYmk7lrAsHTBT0TwIUEus9nEFn7DgSxCw71VUMnAXyj/kvhzAzCnd3h/nSQzphQGVkzQ9m7g7yA0ATIPgC9JLvivv5+kxSBXFVkrxfwSSn67Obu7rcKhcImDu6hcS5ocXHxywBeNDU+9bAwxIshPMrVAx2XVPsSb1JyXdhcjnt9ljQfBEHLX5/Pks2uZq8H8NZR4G9TExP3hgkvCYgnkbgAwFCrFpDOdPrzAmDDAEUrLFvpOgLXWeE4VF0sLVeubMBL7y2eXLwGuLEYSACJwcHBdCqVmggRTpkQk0RwF8reFcAsgQGAfSB6DsLP9pastAkhB+mrsvp4abf6lfx6fhGHfNXdxsZGYWNj4z0A/j0zlrkoDM0TWdtddgHaoGBura2Q3BKwRWkb5EkrzNfG5Jq3ERaDyC7v7lWXbdKe7FtdrRxv0TY79d00b8gMD78rSHc+N5B9Hsi7kEw3M6/6Q/0tkkuy+oGVvkarb2xV9r578uTJNTTm4f7e8Xz2kwA+fzSTuZfE5ygwTyJwJwDp8xq7AnsRGbeI/0NsZLesMdfFiUGwKms3XeV0yOzNLy5+CcBXRkZGhjuSHQ81Bk+Q9DACUySd79ZqBEnl2vgSGwJOgZiHcC2tvb4KZm1lb34Vqw3fZVoNqpUQwQ1W6osRhrBadZZU65KsXZLh9Yo3j1vc2dppdp3Ii+FAD6S8pkqOjY3dKRkm7xuQjwRwPxIZAEdaqQhSWwXOHUGbALYJbAlYA5i11i4QXBCihWptG3NhY2OjsLW1VURtlbjQwqvFBwYG+vrL/eltbJ93DENjl7aWTuKAFfSGMdzdPZa6L0LzZJCPI3AMRF8jJ4dnFNMKAvOQvSISvx5E9upKGdfnCrkV1Cbv+/2z5ODgYE9XquteQcDHkHhUrQCNsbNtayApUqSfOL4w/75GJ1tnAJje3t7egUTXiO0Mh01VGRjOBoYXCJwlcQRSH2qD4d5WaNFgpW1IqxJyAL5uhS8jwvfnl+aPo3Zo1YH6Hu2jcHps7EIGiScY4qkk7wFyeD/vFVaKKBVFFiCtATgeCd83VtcIJrtT2Tm+urq65Or1XFyfd81udXNzs4D2/VwRQHpqaupOtLxPYPgIQfcmOc7aA/h93zFUf/C5B2mzNqnlJq3ygo5H4nXG6ETF2hVTNqs7q9mVtdpDUovWGSsQtetramxsbLgDGImC5EhAzgq6Ew2PEZiE1CegF2QPa+1bmjofsNZWCawJWALwAwlfkuU3yhvla/Nb+QJa5+fbijiO8Y7kBO8Ck3iwgR4Fw3sQGEcL7dY4/d2StF1rzYZNGm4JzANYQhRlIzAbCPmKtUVjzRpKxfX5YvH0Q+fT4/KDipnezEDQiR9hwjyNwCNAzrLBO0Bqh21iA8RJSIsAL69GlW8SuLZUjK5b3l4uoLboZ9/HruPd3UOJ3sGLST3eEA8DzVGew8N0SbvVih4+n5//puPcUiNdI/1xg6xsrxRx04GmXjymu7t7cLC390KaxIMD4iEWurA+XhhoRu2hfk3bErCB2gGypyBlLXg9hOMymkMFhagUrSwUFk6i9jCvGdexoKura6gLXbGuM1E62llbW2v7Bz8DGOjr74o3fg8YRH7scrC1xMDJO/hGMdplxs1UMkjO0vBetPYeAO5EwwEBvRS6QfSe701MUhXCFgwBaQtSVeQOhBKJLQuUCCxKWCWwbqMoL5plqlqokjthtVosG7OVz+c3cMjaH7S7UYx2hcPhBUEyuMgYPojQRQSHQQwB6CHZcTZx6quCN1E7XHPbkEVYrQs6EYHXBFZXW5hcZXfj5OL6eh6tu5otHB0dneoKUsdkcB+RFxM4RmgIQJ9upSgiaa9SsT+azWf/t4l5n4lDGOpODiQHOrqCPpB9NsKEjJmC7LgxnAAwTqBbZJpgN6BOkUlY23k+LV1u3G4M7EHYqD9YO0UwJ+kHVatrYHGDDezSwsLCElr3/W91iYmJiWMJa+7BhHkogfsSmBA5DKnPGHNe9whrbURwE9CGyA1K6wIWJNwg8rpquXqcqqztWXuygSvlvPjSM6Mz41EimjIydzHE3Qx5IaARC/QbY3ogdaB2bT/rz8rpdkiojRW2RW6z1rJhQ8CCrBZklRM5HyE6aa0tWmsLy8vLRTRmR1AzJUdGRgbCMOw31vQGwBEFZiowzAiYIDQJsJdQl4BuAEnWfu4hzrOgZ62toLbic4e1nXtFCCetdI2kawB7VUXKlxZLi2to/0l4g3G6b7o/6o6mjE0cDQJ7b5AXEZgENEhj+ih1qrbz7Hyvt2UYs8PauStbECIQWxIqJLZQa4OyaoUlAOsUliJV89aYDVOtbpWB7d3d3WKxVgA/lKvtZvr6+m1H7wUMeXFIPFjgXUkcETAIqfdsxzE3frekbQBbJDckrQk4DqtrYHVVJVI+VHllbnV1Ba1btElNTk5OpyLcWYnwPgIuJjSN2u6IfpDdBG62Al/S+k659NClpaUfNClnr4kGBgb6upPJjGFiyoTBPUTcjcBRQIMA+wD1oDbf6TyX+5akav07VZ8TaFPgNohVWeVF5ozVPMGFXVs+FUXRqVKptF5vq3mQH+R5nlfni+ReI7Gvr6+vu7u7Oyl1Rgq7I2MSITUh6WwG5nuKtExSZDWqALsoQ0xxJyyHVZSxVy6Wy3nk2/5APO+ccLpvun+vDwMplTpNKeyOkuGYkW51u7mksqyWAmOrlTK2kcSupN18Pr+J9imOBD09Pf2dnZ09SSS7aJim7LAC0wUAxqpa2qx+Mb+Vj3V4ZxOkBgcHU92mu4tBKV2JgkQqxXRkgwRNlIDlmIy53TYDJCWrZQh75QR2w11bDlDa2rJ2+zCsmGgBnJjoGUS5ZygVmH5rMKHATJHsMdIIzK1PbGS1JmlTVisU1mDscgXYKZVKm1rTVgHndsCY1/KS4+PjvZK6TMWkEyl0RtaEQRhM6jau7QAgowoqWCSrtiztJqKobIDtjWp1d319fRf+YcltMRhFxxjHOsvlMJk2tst22SBZZieQgIU9Yoy5w3Znxtot+//buZvcJoIgDKBV3YSJnTh4geUo8v3PwVkisTBCIP8bNDPNAoKyCQixAeu9fa0+tVrVquooH0sZ+q9f2im7PO52u+N2u93FP/pFxgWrq9XqTd/3s8ycXEVMa623Y9S3rbXf94MtNtHic0TEszxbOZdDKefxx53Zx/ftCv5cfZg9zOu8zl+N483Q6ixLLl/KJofx2LJ8+JnFmMf9sD9sNpt9XM7Zurq9v59PhuGuy26aJbus4zKiPj2Wnx/fP76L+IuRTy7RdLFY3F1H3GStXeTrSYs2yZLLXxW1sW0z8lOf/RARp+vWTjGO50PEYb1eP22NAQAAAAAAAAAAAAAAAAAAAAAAAAAAAAAAAAAAAAAAAAAAAAAAAAAAAAAAAAAAAAAAAAAAAAAAAAAAAAAAAAAAAAAAAAAAAAAAAAAAAAAAAAAAAAAAAAAAAAAAAAAAAAAAAAAAAAAAAAAAAAAAAAAAAAAAAAAAAAAAAAAAAAAAAAAAAAAAAAAAAAAAAAAAAAAAAAAAAAAAAAAAAAAAAAAAAAAAAAAAAAAAAAAAAAAAAAAAAAAAAAAAAAAAAAAAAAAAAAAAAAAAAAAAAAAAAAAAAAAAAAAAAAAAAAAAAAAAAAAAAAAAAAAAAAAAAAAAAAAAAAAAAAAAAAAAAAAAAAAAAAAAAAAAAAAAAAAAAAAAAAAAAAAAAAAAAAAAAAAAAAAAAAAAAAAAAAAAAAAAAAAAAAAAAAAAAAAAAAAAAAAAAAAAAAAAAAAAAAAAAAAAAAAAAAAAAAAAAAAAAAAAAAAAAAAAAAAAAAAAAAAAAAAAAAAAAAAAAAAAAAAAAAAAAAAAAAAAAAAAAAAAAAAAAAAAAAAAAAAAAAAAAAAAAAAAAAAAAAAAAAAAAAAAAAAAAAAAAAAAAAAAAAAAAAAAAAAAAAAAAAAAAAAAAAAAAAAAAAAAAAAAAAAAAAAAAAAAAAAAAAAAAAAAAAAAAAAAAAAAAAAAAAAAAAAAAAAAAAAAAAAAAAAAAAAAAAAAAAAAAAAAAAAAAAAAAAAAAAAAAAAAAAAAAAAAAAAAAAAAAAAAAAAAAAAAAAAAAAAAAAAAAAAAAAAAAAAAAAAAAAAAAAAAAAAAAAAAAAAAAAAAAAAAAAAAAAAAAAAAAAAAAAAAAAAAAAAAAAAAAAAAAAAAAAAAAAAAAAAAAAAAAAAAAAAAAAAAAAAAAAAAAAAAAAAAAAAAAAAAAAAAAAAAAAAA/M++AXI0LXAdaq8ZAAAAAElFTkSuQmCC;" vertex="1" parent="1">
          <mxGeometry x="607.65" y="447.5" width="115.7" height="65" as="geometry" />
        </mxCell>
        <mxCell id="C6JPkx4cW7BWjq2j-6dr-21" value="" style="outlineConnect=0;dashed=0;verticalLabelPosition=bottom;verticalAlign=top;align=center;html=1;shape=mxgraph.aws3.postgre_sql_instance;fillColor=#2E73B8;gradientColor=none;" vertex="1" parent="1">
          <mxGeometry x="620" y="550" width="80" height="65.75" as="geometry" />
        </mxCell>
        <mxCell id="C6JPkx4cW7BWjq2j-6dr-23" value="" style="endArrow=classic;html=1;rounded=0;entryX=0;entryY=0.5;entryDx=0;entryDy=0;" edge="1" parent="1" target="C6JPkx4cW7BWjq2j-6dr-10">
          <mxGeometry width="50" height="50" relative="1" as="geometry">
            <mxPoint x="130" y="382" as="sourcePoint" />
            <mxPoint x="420" y="470" as="targetPoint" />
          </mxGeometry>
        </mxCell>
        <mxCell id="C6JPkx4cW7BWjq2j-6dr-24" value="" style="endArrow=classic;html=1;rounded=0;entryX=0;entryY=0.5;entryDx=0;entryDy=0;" edge="1" parent="1">
          <mxGeometry width="50" height="50" relative="1" as="geometry">
            <mxPoint x="130" y="481" as="sourcePoint" />
            <mxPoint x="240" y="479" as="targetPoint" />
          </mxGeometry>
        </mxCell>
        <mxCell id="C6JPkx4cW7BWjq2j-6dr-25" value="" style="endArrow=classic;html=1;rounded=0;entryX=0;entryY=0.5;entryDx=0;entryDy=0;" edge="1" parent="1">
          <mxGeometry width="50" height="50" relative="1" as="geometry">
            <mxPoint x="130" y="581" as="sourcePoint" />
            <mxPoint x="240" y="579" as="targetPoint" />
          </mxGeometry>
        </mxCell>
        <mxCell id="C6JPkx4cW7BWjq2j-6dr-26" value="" style="endArrow=none;html=1;rounded=0;entryX=0;entryY=0.5;entryDx=0;entryDy=0;" edge="1" parent="1" target="C6JPkx4cW7BWjq2j-6dr-13">
          <mxGeometry width="50" height="50" relative="1" as="geometry">
            <mxPoint x="330" y="380" as="sourcePoint" />
            <mxPoint x="380" y="330" as="targetPoint" />
          </mxGeometry>
        </mxCell>
        <mxCell id="C6JPkx4cW7BWjq2j-6dr-27" value="" style="endArrow=none;html=1;rounded=0;entryX=0;entryY=0.5;entryDx=0;entryDy=0;" edge="1" parent="1">
          <mxGeometry width="50" height="50" relative="1" as="geometry">
            <mxPoint x="330" y="579.5" as="sourcePoint" />
            <mxPoint x="440" y="579.5" as="targetPoint" />
          </mxGeometry>
        </mxCell>
        <mxCell id="C6JPkx4cW7BWjq2j-6dr-28" value="" style="endArrow=none;html=1;rounded=0;entryX=0;entryY=0.5;entryDx=0;entryDy=0;" edge="1" parent="1">
          <mxGeometry width="50" height="50" relative="1" as="geometry">
            <mxPoint x="330" y="479.5" as="sourcePoint" />
            <mxPoint x="440" y="479.5" as="targetPoint" />
          </mxGeometry>
        </mxCell>
        <mxCell id="C6JPkx4cW7BWjq2j-6dr-29" value="" style="endArrow=none;html=1;rounded=0;entryX=0;entryY=0.5;entryDx=0;entryDy=0;" edge="1" parent="1" target="C6JPkx4cW7BWjq2j-6dr-13">
          <mxGeometry width="50" height="50" relative="1" as="geometry">
            <mxPoint x="330" y="580" as="sourcePoint" />
            <mxPoint x="440" y="570" as="targetPoint" />
          </mxGeometry>
        </mxCell>
        <mxCell id="C6JPkx4cW7BWjq2j-6dr-30" value="" style="endArrow=none;html=1;rounded=0;entryX=0;entryY=0.5;entryDx=0;entryDy=0;" edge="1" parent="1" target="C6JPkx4cW7BWjq2j-6dr-15">
          <mxGeometry width="50" height="50" relative="1" as="geometry">
            <mxPoint x="330" y="580" as="sourcePoint" />
            <mxPoint x="450" y="390" as="targetPoint" />
          </mxGeometry>
        </mxCell>
        <mxCell id="C6JPkx4cW7BWjq2j-6dr-31" value="gRPC" style="text;html=1;align=center;verticalAlign=middle;whiteSpace=wrap;rounded=0;" vertex="1" parent="1">
          <mxGeometry x="350" y="347.13" width="60" height="30" as="geometry" />
        </mxCell>
        <mxCell id="C6JPkx4cW7BWjq2j-6dr-32" value="gRPC" style="text;html=1;align=center;verticalAlign=middle;whiteSpace=wrap;rounded=0;" vertex="1" parent="1">
          <mxGeometry x="330" y="447.5" width="60" height="30" as="geometry" />
        </mxCell>
        <mxCell id="C6JPkx4cW7BWjq2j-6dr-33" value="gRPC" style="text;html=1;align=center;verticalAlign=middle;whiteSpace=wrap;rounded=0;" vertex="1" parent="1">
          <mxGeometry x="365" y="400" width="60" height="30" as="geometry" />
        </mxCell>
        <mxCell id="C6JPkx4cW7BWjq2j-6dr-34" value="gRPC" style="text;html=1;align=center;verticalAlign=middle;whiteSpace=wrap;rounded=0;" vertex="1" parent="1">
          <mxGeometry x="390" y="512.5" width="60" height="30" as="geometry" />
        </mxCell>
        <mxCell id="C6JPkx4cW7BWjq2j-6dr-35" value="gRPC" style="text;html=1;align=center;verticalAlign=middle;whiteSpace=wrap;rounded=0;" vertex="1" parent="1">
          <mxGeometry x="360" y="580" width="60" height="30" as="geometry" />
        </mxCell>
        <mxCell id="C6JPkx4cW7BWjq2j-6dr-37" value="" style="endArrow=classic;html=1;rounded=0;entryX=0;entryY=0.5;entryDx=0;entryDy=0;exitX=1;exitY=0.5;exitDx=0;exitDy=0;" edge="1" parent="1" source="C6JPkx4cW7BWjq2j-6dr-13">
          <mxGeometry width="50" height="50" relative="1" as="geometry">
            <mxPoint x="515.5" y="381.01" as="sourcePoint" />
            <mxPoint x="625.5" y="379.01" as="targetPoint" />
          </mxGeometry>
        </mxCell>
        <mxCell id="C6JPkx4cW7BWjq2j-6dr-38" value="" style="endArrow=classic;html=1;rounded=0;exitX=1;exitY=0.5;exitDx=0;exitDy=0;" edge="1" parent="1">
          <mxGeometry width="50" height="50" relative="1" as="geometry">
            <mxPoint x="530" y="583.37" as="sourcePoint" />
            <mxPoint x="615.5" y="582.38" as="targetPoint" />
          </mxGeometry>
        </mxCell>
        <mxCell id="C6JPkx4cW7BWjq2j-6dr-39" value="" style="endArrow=classic;html=1;rounded=0;entryX=0;entryY=0.5;entryDx=0;entryDy=0;" edge="1" parent="1">
          <mxGeometry width="50" height="50" relative="1" as="geometry">
            <mxPoint x="530" y="480" as="sourcePoint" />
            <mxPoint x="615.5" y="479.5" as="targetPoint" />
          </mxGeometry>
        </mxCell>
        <mxCell id="C6JPkx4cW7BWjq2j-6dr-40" value="&lt;font style=&quot;font-size: 14px;&quot;&gt;&lt;b&gt;Docker Containers&lt;/b&gt;&lt;/font&gt;" style="text;html=1;align=center;verticalAlign=middle;whiteSpace=wrap;rounded=0;" vertex="1" parent="1">
          <mxGeometry x="130" y="690" width="175" height="30" as="geometry" />
        </mxCell>
        <mxCell id="C6JPkx4cW7BWjq2j-6dr-41" value="GraphQL" style="rounded=0;whiteSpace=wrap;html=1;" vertex="1" parent="1">
          <mxGeometry x="160" y="760" width="120" height="40" as="geometry" />
        </mxCell>
        <mxCell id="C6JPkx4cW7BWjq2j-6dr-42" value="Account" style="rounded=0;whiteSpace=wrap;html=1;" vertex="1" parent="1">
          <mxGeometry y="840" width="120" height="40" as="geometry" />
        </mxCell>
        <mxCell id="C6JPkx4cW7BWjq2j-6dr-43" value="Products" style="rounded=0;whiteSpace=wrap;html=1;" vertex="1" parent="1">
          <mxGeometry x="160" y="840" width="120" height="40" as="geometry" />
        </mxCell>
        <mxCell id="C6JPkx4cW7BWjq2j-6dr-50" value="" style="edgeStyle=orthogonalEdgeStyle;rounded=0;orthogonalLoop=1;jettySize=auto;html=1;" edge="1" parent="1" source="C6JPkx4cW7BWjq2j-6dr-44" target="C6JPkx4cW7BWjq2j-6dr-48">
          <mxGeometry relative="1" as="geometry" />
        </mxCell>
        <mxCell id="C6JPkx4cW7BWjq2j-6dr-44" value="Order" style="rounded=0;whiteSpace=wrap;html=1;" vertex="1" parent="1">
          <mxGeometry x="320" y="840" width="120" height="40" as="geometry" />
        </mxCell>
        <mxCell id="C6JPkx4cW7BWjq2j-6dr-45" value="AccountDB - Postgres" style="rounded=0;whiteSpace=wrap;html=1;" vertex="1" parent="1">
          <mxGeometry y="920" width="120" height="40" as="geometry" />
        </mxCell>
        <mxCell id="C6JPkx4cW7BWjq2j-6dr-47" value="ProductsDB - Elasticsearch" style="rounded=0;whiteSpace=wrap;html=1;" vertex="1" parent="1">
          <mxGeometry x="160" y="920" width="120" height="40" as="geometry" />
        </mxCell>
        <mxCell id="C6JPkx4cW7BWjq2j-6dr-48" value="OrderDB - Postgres" style="rounded=0;whiteSpace=wrap;html=1;" vertex="1" parent="1">
          <mxGeometry x="320" y="920" width="120" height="40" as="geometry" />
        </mxCell>
        <mxCell id="C6JPkx4cW7BWjq2j-6dr-49" value="" style="endArrow=classic;html=1;rounded=0;" edge="1" parent="1">
          <mxGeometry width="50" height="50" relative="1" as="geometry">
            <mxPoint x="380" y="890" as="sourcePoint" />
            <mxPoint x="379.5" y="920" as="targetPoint" />
          </mxGeometry>
        </mxCell>
        <mxCell id="C6JPkx4cW7BWjq2j-6dr-51" value="" style="endArrow=classic;html=1;rounded=0;entryX=0.5;entryY=0;entryDx=0;entryDy=0;" edge="1" parent="1" target="C6JPkx4cW7BWjq2j-6dr-47">
          <mxGeometry width="50" height="50" relative="1" as="geometry">
            <mxPoint x="220" y="880" as="sourcePoint" />
            <mxPoint x="219.5" y="910" as="targetPoint" />
          </mxGeometry>
        </mxCell>
        <mxCell id="C6JPkx4cW7BWjq2j-6dr-52" value="" style="endArrow=classic;html=1;rounded=0;" edge="1" parent="1">
          <mxGeometry width="50" height="50" relative="1" as="geometry">
            <mxPoint x="59.5" y="880" as="sourcePoint" />
            <mxPoint x="60" y="920" as="targetPoint" />
          </mxGeometry>
        </mxCell>
        <mxCell id="C6JPkx4cW7BWjq2j-6dr-55" value="" style="rounded=1;whiteSpace=wrap;html=1;" vertex="1" parent="1">
          <mxGeometry x="330" y="580" width="120" height="60" as="geometry" />
        </mxCell>
        <mxCell id="C6JPkx4cW7BWjq2j-6dr-56" value="account docker file" style="ellipse;whiteSpace=wrap;html=1;fillColor=#ffe6cc;strokeColor=#d79b00;" vertex="1" parent="1">
          <mxGeometry x="920" y="690" width="140" height="70" as="geometry" />
        </mxCell>
        <mxCell id="C6JPkx4cW7BWjq2j-6dr-57" value="catalog docker file&lt;span style=&quot;color: rgba(0, 0, 0, 0); font-family: monospace; font-size: 0px; text-align: start; text-wrap: nowrap;&quot;&gt;%3CmxGraphModel%3E%3Croot%3E%3CmxCell%20id%3D%220%22%2F%3E%3CmxCell%20id%3D%221%22%20parent%3D%220%22%2F%3E%3CmxCell%20id%3D%222%22%20value%3D%22docker-compose.yaml%22%20style%3D%22ellipse%3BwhiteSpace%3Dwrap%3Bhtml%3D1%3BfillColor%3D%23ffe6cc%3BstrokeColor%3D%23d79b00%3B%22%20vertex%3D%221%22%20parent%3D%221%22%3E%3CmxGeometry%20x%3D%22640%22%20y%3D%22890%22%20width%3D%22140%22%20height%3D%2270%22%20as%3D%22geometry%22%2F%3E%3C%2FmxCell%3E%3C%2Froot%3E%3C%2FmxGraphModel%3E&lt;/span&gt;" style="ellipse;whiteSpace=wrap;html=1;fillColor=#ffe6cc;strokeColor=#d79b00;" vertex="1" parent="1">
          <mxGeometry x="920" y="810" width="140" height="70" as="geometry" />
        </mxCell>
        <mxCell id="C6JPkx4cW7BWjq2j-6dr-58" value="grapql docker file&lt;span style=&quot;color: rgba(0, 0, 0, 0); font-family: monospace; font-size: 0px; text-align: start; text-wrap: nowrap;&quot;&gt;%3CmxGraphModel%3E%3Croot%3E%3CmxCell%20id%3D%220%22%2F%3E%3CmxCell%20id%3D%221%22%20parent%3D%220%22%2F%3E%3CmxCell%20id%3D%222%22%20value%3D%22docker-compose.yaml%22%20style%3D%22ellipse%3BwhiteSpace%3Dwrap%3Bhtml%3D1%3BfillColor%3D%23ffe6cc%3BstrokeColor%3D%23d79b00%3B%22%20vertex%3D%221%22%20parent%3D%221%22%3E%3CmxGeometry%20x%3D%22640%22%20y%3D%22890%22%20width%3D%22140%22%20height%3D%2270%22%20as%3D%22geometry%22%2F%3E%3C%2FmxCell%3E%3C%2Froot%3E%3C%2FmxGraphModel%3E&lt;/span&gt;" style="ellipse;whiteSpace=wrap;html=1;fillColor=#ffe6cc;strokeColor=#d79b00;" vertex="1" parent="1">
          <mxGeometry x="920" y="930" width="140" height="70" as="geometry" />
        </mxCell>
        <mxCell id="C6JPkx4cW7BWjq2j-6dr-59" value="docker-compose.yaml" style="rounded=1;whiteSpace=wrap;html=1;fillColor=#ffcc99;strokeColor=#36393d;" vertex="1" parent="1">
          <mxGeometry x="640" y="880" width="150" height="60" as="geometry" />
        </mxCell>
        <mxCell id="C6JPkx4cW7BWjq2j-6dr-60" value="order docker file" style="ellipse;whiteSpace=wrap;html=1;fillColor=#ffe6cc;strokeColor=#d79b00;" vertex="1" parent="1">
          <mxGeometry x="920" y="1050" width="140" height="70" as="geometry" />
        </mxCell>
        <mxCell id="C6JPkx4cW7BWjq2j-6dr-61" value="" style="endArrow=classic;html=1;rounded=0;entryX=0;entryY=0.5;entryDx=0;entryDy=0;" edge="1" parent="1" target="C6JPkx4cW7BWjq2j-6dr-56">
          <mxGeometry width="50" height="50" relative="1" as="geometry">
            <mxPoint x="790" y="910" as="sourcePoint" />
            <mxPoint x="840" y="860" as="targetPoint" />
          </mxGeometry>
        </mxCell>
        <mxCell id="C6JPkx4cW7BWjq2j-6dr-62" value="" style="endArrow=classic;html=1;rounded=0;entryX=0;entryY=0.5;entryDx=0;entryDy=0;exitX=1;exitY=0.5;exitDx=0;exitDy=0;" edge="1" parent="1" source="C6JPkx4cW7BWjq2j-6dr-59" target="C6JPkx4cW7BWjq2j-6dr-57">
          <mxGeometry width="50" height="50" relative="1" as="geometry">
            <mxPoint x="800" y="910" as="sourcePoint" />
            <mxPoint x="930" y="735" as="targetPoint" />
          </mxGeometry>
        </mxCell>
        <mxCell id="C6JPkx4cW7BWjq2j-6dr-63" value="" style="endArrow=classic;html=1;rounded=0;entryX=0;entryY=0.5;entryDx=0;entryDy=0;exitX=1;exitY=0.5;exitDx=0;exitDy=0;" edge="1" parent="1" source="C6JPkx4cW7BWjq2j-6dr-59" target="C6JPkx4cW7BWjq2j-6dr-58">
          <mxGeometry width="50" height="50" relative="1" as="geometry">
            <mxPoint x="800" y="920" as="sourcePoint" />
            <mxPoint x="930" y="855" as="targetPoint" />
          </mxGeometry>
        </mxCell>
        <mxCell id="C6JPkx4cW7BWjq2j-6dr-64" value="" style="endArrow=classic;html=1;rounded=0;exitX=1;exitY=0.5;exitDx=0;exitDy=0;entryX=0;entryY=0.5;entryDx=0;entryDy=0;" edge="1" parent="1" source="C6JPkx4cW7BWjq2j-6dr-59" target="C6JPkx4cW7BWjq2j-6dr-60">
          <mxGeometry width="50" height="50" relative="1" as="geometry">
            <mxPoint x="800" y="920" as="sourcePoint" />
            <mxPoint x="910" y="1110" as="targetPoint" />
          </mxGeometry>
        </mxCell>
        <mxCell id="C6JPkx4cW7BWjq2j-6dr-65" value="Queries" style="rounded=1;whiteSpace=wrap;html=1;" vertex="1" parent="1">
          <mxGeometry x="880" y="220" width="120" height="60" as="geometry" />
        </mxCell>
        <mxCell id="C6JPkx4cW7BWjq2j-6dr-66" value="&lt;font style=&quot;font-size: 14px;&quot;&gt;&lt;b&gt;GraphQL&lt;/b&gt;&lt;/font&gt;" style="text;html=1;align=center;verticalAlign=middle;whiteSpace=wrap;rounded=0;" vertex="1" parent="1">
          <mxGeometry x="900" y="130" width="60" height="30" as="geometry" />
        </mxCell>
        <mxCell id="C6JPkx4cW7BWjq2j-6dr-67" value="Accounts" style="text;html=1;align=center;verticalAlign=middle;whiteSpace=wrap;rounded=0;" vertex="1" parent="1">
          <mxGeometry x="1120" y="170" width="60" height="30" as="geometry" />
        </mxCell>
        <mxCell id="C6JPkx4cW7BWjq2j-6dr-68" value="Product&lt;span style=&quot;color: rgba(0, 0, 0, 0); font-family: monospace; font-size: 0px; text-align: start; text-wrap: nowrap;&quot;&gt;%3CmxGraphModel%3E%3Croot%3E%3CmxCell%20id%3D%220%22%2F%3E%3CmxCell%20id%3D%221%22%20parent%3D%220%22%2F%3E%3CmxCell%20id%3D%222%22%20value%3D%22Accounts%22%20style%3D%22text%3Bhtml%3D1%3Balign%3Dcenter%3BverticalAlign%3Dmiddle%3BwhiteSpace%3Dwrap%3Brounded%3D0%3B%22%20vertex%3D%221%22%20parent%3D%221%22%3E%3CmxGeometry%20x%3D%221120%22%20y%3D%22170%22%20width%3D%2260%22%20height%3D%2230%22%20as%3D%22geometry%22%2F%3E%3C%2FmxCell%3E%3C%2Froot%3E%3C%2FmxGraphModel%3E&lt;/span&gt;s" style="text;html=1;align=center;verticalAlign=middle;whiteSpace=wrap;rounded=0;" vertex="1" parent="1">
          <mxGeometry x="1120" y="240" width="60" height="30" as="geometry" />
        </mxCell>
        <mxCell id="C6JPkx4cW7BWjq2j-6dr-69" value="Order" style="text;html=1;align=center;verticalAlign=middle;whiteSpace=wrap;rounded=0;" vertex="1" parent="1">
          <mxGeometry x="1120" y="317.13" width="60" height="30" as="geometry" />
        </mxCell>
        <mxCell id="C6JPkx4cW7BWjq2j-6dr-73" value="" style="endArrow=none;dashed=1;html=1;dashPattern=1 3;strokeWidth=2;rounded=0;" edge="1" parent="1">
          <mxGeometry width="50" height="50" relative="1" as="geometry">
            <mxPoint x="1000" y="250" as="sourcePoint" />
            <mxPoint x="1110" y="190" as="targetPoint" />
          </mxGeometry>
        </mxCell>
        <mxCell id="C6JPkx4cW7BWjq2j-6dr-74" value="" style="endArrow=none;dashed=1;html=1;dashPattern=1 3;strokeWidth=2;rounded=0;exitX=0.992;exitY=0.633;exitDx=0;exitDy=0;exitPerimeter=0;" edge="1" parent="1" source="C6JPkx4cW7BWjq2j-6dr-65">
          <mxGeometry width="50" height="50" relative="1" as="geometry">
            <mxPoint x="1010" y="260" as="sourcePoint" />
            <mxPoint x="1110" y="260" as="targetPoint" />
          </mxGeometry>
        </mxCell>
        <mxCell id="C6JPkx4cW7BWjq2j-6dr-75" value="" style="endArrow=none;dashed=1;html=1;dashPattern=1 3;strokeWidth=2;rounded=0;entryX=0;entryY=0.5;entryDx=0;entryDy=0;" edge="1" parent="1" target="C6JPkx4cW7BWjq2j-6dr-69">
          <mxGeometry width="50" height="50" relative="1" as="geometry">
            <mxPoint x="1000" y="260" as="sourcePoint" />
            <mxPoint x="1130" y="265" as="targetPoint" />
          </mxGeometry>
        </mxCell>
        <mxCell id="C6JPkx4cW7BWjq2j-6dr-77" value="Create Product" style="text;html=1;align=center;verticalAlign=middle;whiteSpace=wrap;rounded=0;" vertex="1" parent="1">
          <mxGeometry x="1100" y="482.5" width="120" height="30" as="geometry" />
        </mxCell>
        <mxCell id="C6JPkx4cW7BWjq2j-6dr-78" value="Create Order" style="text;html=1;align=center;verticalAlign=middle;whiteSpace=wrap;rounded=0;" vertex="1" parent="1">
          <mxGeometry x="1120" y="560" width="90" height="30" as="geometry" />
        </mxCell>
        <mxCell id="C6JPkx4cW7BWjq2j-6dr-79" value="" style="endArrow=none;dashed=1;html=1;dashPattern=1 3;strokeWidth=2;rounded=0;" edge="1" parent="1">
          <mxGeometry width="50" height="50" relative="1" as="geometry">
            <mxPoint x="1000" y="486.13" as="sourcePoint" />
            <mxPoint x="1110" y="426.13" as="targetPoint" />
          </mxGeometry>
        </mxCell>
        <mxCell id="C6JPkx4cW7BWjq2j-6dr-80" value="" style="endArrow=none;dashed=1;html=1;dashPattern=1 3;strokeWidth=2;rounded=0;exitX=0.992;exitY=0.633;exitDx=0;exitDy=0;exitPerimeter=0;" edge="1" parent="1">
          <mxGeometry width="50" height="50" relative="1" as="geometry">
            <mxPoint x="999.04" y="494.1100000000001" as="sourcePoint" />
            <mxPoint x="1110" y="496.13" as="targetPoint" />
          </mxGeometry>
        </mxCell>
        <mxCell id="C6JPkx4cW7BWjq2j-6dr-81" value="" style="endArrow=none;dashed=1;html=1;dashPattern=1 3;strokeWidth=2;rounded=0;" edge="1" parent="1">
          <mxGeometry width="50" height="50" relative="1" as="geometry">
            <mxPoint x="1000" y="496.13" as="sourcePoint" />
            <mxPoint x="1120" y="569" as="targetPoint" />
          </mxGeometry>
        </mxCell>
        <mxCell id="C6JPkx4cW7BWjq2j-6dr-82" value="Create Account" style="text;html=1;align=center;verticalAlign=middle;whiteSpace=wrap;rounded=0;" vertex="1" parent="1">
          <mxGeometry x="1110" y="410" width="110" height="30" as="geometry" />
        </mxCell>
        <mxCell id="C6JPkx4cW7BWjq2j-6dr-84" style="edgeStyle=orthogonalEdgeStyle;rounded=0;orthogonalLoop=1;jettySize=auto;html=1;exitX=0.5;exitY=1;exitDx=0;exitDy=0;" edge="1" parent="1" source="C6JPkx4cW7BWjq2j-6dr-78" target="C6JPkx4cW7BWjq2j-6dr-78">
          <mxGeometry relative="1" as="geometry" />
        </mxCell>
        <mxCell id="C6JPkx4cW7BWjq2j-6dr-85" value="&lt;span style=&quot;color: rgb(0, 0, 0); font-family: Helvetica; font-size: 12px; font-style: normal; font-variant-ligatures: normal; font-variant-caps: normal; font-weight: 400; letter-spacing: normal; orphans: 2; text-align: center; text-indent: 0px; text-transform: none; widows: 2; word-spacing: 0px; -webkit-text-stroke-width: 0px; white-space: normal; background-color: rgb(251, 251, 251); text-decoration-thickness: initial; text-decoration-style: initial; text-decoration-color: initial; display: inline !important; float: none;&quot;&gt;Mulations&lt;/span&gt;" style="ellipse;whiteSpace=wrap;html=1;" vertex="1" parent="1">
          <mxGeometry x="880" y="460" width="120" height="67.5" as="geometry" />
        </mxCell>
        <mxCell id="C6JPkx4cW7BWjq2j-6dr-86" value="Order" style="rounded=0;whiteSpace=wrap;html=1;fillColor=#647687;fontColor=#ffffff;strokeColor=#314354;" vertex="1" parent="1">
          <mxGeometry x="1360" y="230" width="120" height="60" as="geometry" />
        </mxCell>
        <mxCell id="C6JPkx4cW7BWjq2j-6dr-90" value="post order / create order&amp;nbsp;" style="rounded=1;whiteSpace=wrap;html=1;fillColor=#6d8764;fontColor=#ffffff;strokeColor=#3A5431;" vertex="1" parent="1">
          <mxGeometry x="1640" y="190" width="210" height="50" as="geometry" />
        </mxCell>
        <mxCell id="C6JPkx4cW7BWjq2j-6dr-91" value="get orders for a particular account" style="rounded=1;whiteSpace=wrap;html=1;fillColor=#6d8764;fontColor=#ffffff;strokeColor=#3A5431;" vertex="1" parent="1">
          <mxGeometry x="1640" y="280" width="210" height="50" as="geometry" />
        </mxCell>
        <mxCell id="C6JPkx4cW7BWjq2j-6dr-94" value="" style="shape=flexArrow;endArrow=classic;html=1;rounded=0;entryX=0;entryY=0.5;entryDx=0;entryDy=0;width=6;endSize=5.65;exitX=1;exitY=0.5;exitDx=0;exitDy=0;endWidth=7;fillColor=#647687;strokeColor=#314354;" edge="1" parent="1" source="C6JPkx4cW7BWjq2j-6dr-86" target="C6JPkx4cW7BWjq2j-6dr-90">
          <mxGeometry width="50" height="50" relative="1" as="geometry">
            <mxPoint x="1480" y="270" as="sourcePoint" />
            <mxPoint x="1530" y="220" as="targetPoint" />
          </mxGeometry>
        </mxCell>
        <mxCell id="C6JPkx4cW7BWjq2j-6dr-95" value="" style="shape=flexArrow;endArrow=classic;html=1;rounded=0;entryX=0;entryY=0.5;entryDx=0;entryDy=0;width=6;endSize=5.65;endWidth=7;fillColor=#647687;strokeColor=light-dark(#3e4042, #a9b8c7);fillStyle=solid;strokeWidth=0;" edge="1" parent="1" target="C6JPkx4cW7BWjq2j-6dr-91">
          <mxGeometry width="50" height="50" relative="1" as="geometry">
            <mxPoint x="1480" y="270" as="sourcePoint" />
            <mxPoint x="1650" y="230" as="targetPoint" />
          </mxGeometry>
        </mxCell>
        <mxCell id="C6JPkx4cW7BWjq2j-6dr-122" value="Account" style="rounded=0;whiteSpace=wrap;html=1;fillColor=#647687;fontColor=#ffffff;strokeColor=#314354;" vertex="1" parent="1">
          <mxGeometry x="1360" y="467.5" width="120" height="60" as="geometry" />
        </mxCell>
        <mxCell id="C6JPkx4cW7BWjq2j-6dr-123" value="post account / create account&amp;nbsp;" style="rounded=1;whiteSpace=wrap;html=1;fillColor=#6d8764;fontColor=#ffffff;strokeColor=#3A5431;" vertex="1" parent="1">
          <mxGeometry x="1640" y="427.5" width="210" height="50" as="geometry" />
        </mxCell>
        <mxCell id="C6JPkx4cW7BWjq2j-6dr-124" value="get a particular account" style="rounded=1;whiteSpace=wrap;html=1;fillColor=#6d8764;fontColor=#ffffff;strokeColor=#3A5431;" vertex="1" parent="1">
          <mxGeometry x="1640" y="517.5" width="210" height="50" as="geometry" />
        </mxCell>
        <mxCell id="C6JPkx4cW7BWjq2j-6dr-125" value="" style="shape=flexArrow;endArrow=classic;html=1;rounded=0;entryX=0;entryY=0.5;entryDx=0;entryDy=0;width=6;endSize=5.65;exitX=1;exitY=0.5;exitDx=0;exitDy=0;endWidth=7;fillColor=#647687;strokeColor=#314354;" edge="1" parent="1" source="C6JPkx4cW7BWjq2j-6dr-122" target="C6JPkx4cW7BWjq2j-6dr-123">
          <mxGeometry width="50" height="50" relative="1" as="geometry">
            <mxPoint x="1480" y="507.5" as="sourcePoint" />
            <mxPoint x="1530" y="457.5" as="targetPoint" />
          </mxGeometry>
        </mxCell>
        <mxCell id="C6JPkx4cW7BWjq2j-6dr-126" value="" style="shape=flexArrow;endArrow=classic;html=1;rounded=0;entryX=0;entryY=0.5;entryDx=0;entryDy=0;width=6;endSize=5.65;endWidth=7;fillColor=#647687;strokeColor=light-dark(#3e4042, #a9b8c7);fillStyle=solid;strokeWidth=0;" edge="1" parent="1" target="C6JPkx4cW7BWjq2j-6dr-124">
          <mxGeometry width="50" height="50" relative="1" as="geometry">
            <mxPoint x="1480" y="507.5" as="sourcePoint" />
            <mxPoint x="1650" y="467.5" as="targetPoint" />
          </mxGeometry>
        </mxCell>
        <mxCell id="C6JPkx4cW7BWjq2j-6dr-127" value="get all accounts" style="rounded=1;whiteSpace=wrap;html=1;fillColor=#6d8764;fontColor=#ffffff;strokeColor=#3A5431;" vertex="1" parent="1">
          <mxGeometry x="1640" y="600" width="210" height="50" as="geometry" />
        </mxCell>
        <mxCell id="C6JPkx4cW7BWjq2j-6dr-128" value="" style="shape=flexArrow;endArrow=classic;html=1;rounded=0;entryX=0;entryY=0.5;entryDx=0;entryDy=0;width=6;endSize=5.65;endWidth=7;fillColor=#647687;strokeColor=light-dark(#3e4042, #a9b8c7);fillStyle=solid;strokeWidth=0;exitX=1;exitY=0.75;exitDx=0;exitDy=0;" edge="1" parent="1" source="C6JPkx4cW7BWjq2j-6dr-122" target="C6JPkx4cW7BWjq2j-6dr-127">
          <mxGeometry width="50" height="50" relative="1" as="geometry">
            <mxPoint x="1490" y="517.5" as="sourcePoint" />
            <mxPoint x="1650" y="553" as="targetPoint" />
          </mxGeometry>
        </mxCell>
        <mxCell id="C6JPkx4cW7BWjq2j-6dr-131" value="Product" style="rounded=0;whiteSpace=wrap;html=1;fillColor=#647687;fontColor=#ffffff;strokeColor=#314354;" vertex="1" parent="1">
          <mxGeometry x="1360" y="800" width="120" height="60" as="geometry" />
        </mxCell>
        <mxCell id="C6JPkx4cW7BWjq2j-6dr-132" value="post product / create product&amp;nbsp;" style="rounded=1;whiteSpace=wrap;html=1;fillColor=#6d8764;fontColor=#ffffff;strokeColor=#3A5431;" vertex="1" parent="1">
          <mxGeometry x="1640" y="760" width="210" height="50" as="geometry" />
        </mxCell>
        <mxCell id="C6JPkx4cW7BWjq2j-6dr-133" value="get a particular product" style="rounded=1;whiteSpace=wrap;html=1;fillColor=#6d8764;fontColor=#ffffff;strokeColor=#3A5431;" vertex="1" parent="1">
          <mxGeometry x="1640" y="850" width="210" height="50" as="geometry" />
        </mxCell>
        <mxCell id="C6JPkx4cW7BWjq2j-6dr-134" value="" style="shape=flexArrow;endArrow=classic;html=1;rounded=0;entryX=0;entryY=0.5;entryDx=0;entryDy=0;width=6;endSize=5.65;exitX=1;exitY=0.5;exitDx=0;exitDy=0;endWidth=7;fillColor=#647687;strokeColor=#314354;" edge="1" parent="1" source="C6JPkx4cW7BWjq2j-6dr-131" target="C6JPkx4cW7BWjq2j-6dr-132">
          <mxGeometry width="50" height="50" relative="1" as="geometry">
            <mxPoint x="1480" y="840" as="sourcePoint" />
            <mxPoint x="1530" y="790" as="targetPoint" />
          </mxGeometry>
        </mxCell>
        <mxCell id="C6JPkx4cW7BWjq2j-6dr-135" value="" style="shape=flexArrow;endArrow=classic;html=1;rounded=0;entryX=0;entryY=0.5;entryDx=0;entryDy=0;width=6;endSize=5.65;endWidth=7;fillColor=#647687;strokeColor=light-dark(#3e4042, #a9b8c7);fillStyle=solid;strokeWidth=0;" edge="1" parent="1" target="C6JPkx4cW7BWjq2j-6dr-133">
          <mxGeometry width="50" height="50" relative="1" as="geometry">
            <mxPoint x="1480" y="840" as="sourcePoint" />
            <mxPoint x="1650" y="800" as="targetPoint" />
          </mxGeometry>
        </mxCell>
        <mxCell id="C6JPkx4cW7BWjq2j-6dr-136" value="get all products" style="rounded=1;whiteSpace=wrap;html=1;fillColor=#6d8764;fontColor=#ffffff;strokeColor=#3A5431;" vertex="1" parent="1">
          <mxGeometry x="1640" y="932.5" width="210" height="50" as="geometry" />
        </mxCell>
        <mxCell id="C6JPkx4cW7BWjq2j-6dr-137" value="" style="shape=flexArrow;endArrow=classic;html=1;rounded=0;entryX=0;entryY=0.5;entryDx=0;entryDy=0;width=6;endSize=5.65;endWidth=7;fillColor=#647687;strokeColor=light-dark(#3e4042, #a9b8c7);fillStyle=solid;strokeWidth=0;exitX=1;exitY=0.75;exitDx=0;exitDy=0;" edge="1" parent="1" source="C6JPkx4cW7BWjq2j-6dr-131" target="C6JPkx4cW7BWjq2j-6dr-136">
          <mxGeometry width="50" height="50" relative="1" as="geometry">
            <mxPoint x="1490" y="850" as="sourcePoint" />
            <mxPoint x="1650" y="885.5" as="targetPoint" />
          </mxGeometry>
        </mxCell>
      </root>
    </mxGraphModel>
  </diagram>
</mxfile>
